<mxfile host="app.diagrams.net" modified="2024-03-11T14:44:39.005Z" agent="Mozilla/5.0 (Windows NT 10.0; Win64; x64) AppleWebKit/537.36 (KHTML, like Gecko) Chrome/122.0.0.0 Safari/537.36 Edg/122.0.0.0" etag="ZEM7-GE03yg2YXJGGf_g" version="24.0.4" type="device" pages="2">
  <diagram name="Page-1" id="WYKMFbR1lBYsdawK520c">
    <mxGraphModel dx="4930" dy="2415" grid="1" gridSize="10" guides="1" tooltips="1" connect="1" arrows="1" fold="1" page="1" pageScale="1" pageWidth="3300" pageHeight="2339" math="0" shadow="0">
      <root>
        <mxCell id="0" />
        <mxCell id="1" parent="0" />
        <mxCell id="vtAirUSNCSAweiT9N4Ka-1" value="AWS Cloud" style="points=[[0,0],[0.25,0],[0.5,0],[0.75,0],[1,0],[1,0.25],[1,0.5],[1,0.75],[1,1],[0.75,1],[0.5,1],[0.25,1],[0,1],[0,0.75],[0,0.5],[0,0.25]];outlineConnect=0;gradientColor=none;html=1;whiteSpace=wrap;fontSize=12;fontStyle=0;container=1;pointerEvents=0;collapsible=0;recursiveResize=0;shape=mxgraph.aws4.group;grIcon=mxgraph.aws4.group_aws_cloud_alt;strokeColor=#232F3E;fillColor=none;verticalAlign=top;align=left;spacingLeft=30;fontColor=#232F3E;dashed=0;" vertex="1" parent="1">
          <mxGeometry x="620" y="490" width="1240" height="1240" as="geometry" />
        </mxCell>
        <mxCell id="vtAirUSNCSAweiT9N4Ka-30" value="WAF&lt;div&gt;&lt;br&gt;&lt;/div&gt;" style="outlineConnect=0;dashed=0;verticalLabelPosition=bottom;verticalAlign=top;align=center;html=1;shape=mxgraph.aws3.waf;fillColor=#759C3E;gradientColor=none;" vertex="1" parent="vtAirUSNCSAweiT9N4Ka-1">
          <mxGeometry x="324" y="61" width="76.5" height="80" as="geometry" />
        </mxCell>
        <mxCell id="vtAirUSNCSAweiT9N4Ka-34" style="edgeStyle=none;curved=1;rounded=0;orthogonalLoop=1;jettySize=auto;html=1;fontSize=12;startSize=8;endSize=8;" edge="1" parent="vtAirUSNCSAweiT9N4Ka-1" source="vtAirUSNCSAweiT9N4Ka-33" target="vtAirUSNCSAweiT9N4Ka-30">
          <mxGeometry relative="1" as="geometry" />
        </mxCell>
        <mxCell id="vtAirUSNCSAweiT9N4Ka-33" value="CLOUD FRONT" style="outlineConnect=0;dashed=0;verticalLabelPosition=bottom;verticalAlign=top;align=center;html=1;shape=mxgraph.aws3.cloudfront;fillColor=#F58536;gradientColor=none;" vertex="1" parent="vtAirUSNCSAweiT9N4Ka-1">
          <mxGeometry x="134" y="57" width="76.5" height="93" as="geometry" />
        </mxCell>
        <mxCell id="vtAirUSNCSAweiT9N4Ka-12" value="VPC" style="points=[[0,0],[0.25,0],[0.5,0],[0.75,0],[1,0],[1,0.25],[1,0.5],[1,0.75],[1,1],[0.75,1],[0.5,1],[0.25,1],[0,1],[0,0.75],[0,0.5],[0,0.25]];outlineConnect=0;gradientColor=none;html=1;whiteSpace=wrap;fontSize=12;fontStyle=0;container=1;pointerEvents=0;collapsible=0;recursiveResize=0;shape=mxgraph.aws4.group;grIcon=mxgraph.aws4.group_vpc2;strokeColor=#8C4FFF;fillColor=none;verticalAlign=top;align=left;spacingLeft=30;fontColor=#AAB7B8;dashed=0;" vertex="1" parent="1">
          <mxGeometry x="669" y="695" width="951" height="966" as="geometry" />
        </mxCell>
        <mxCell id="vtAirUSNCSAweiT9N4Ka-36" value="Region" style="points=[[0,0],[0.25,0],[0.5,0],[0.75,0],[1,0],[1,0.25],[1,0.5],[1,0.75],[1,1],[0.75,1],[0.5,1],[0.25,1],[0,1],[0,0.75],[0,0.5],[0,0.25]];outlineConnect=0;gradientColor=none;html=1;whiteSpace=wrap;fontSize=12;fontStyle=0;container=1;pointerEvents=0;collapsible=0;recursiveResize=0;shape=mxgraph.aws4.group;grIcon=mxgraph.aws4.group_region;strokeColor=#00A4A6;fillColor=none;verticalAlign=top;align=left;spacingLeft=30;fontColor=#147EBA;dashed=1;" vertex="1" parent="1">
          <mxGeometry x="660" y="540" width="1190" height="1170" as="geometry" />
        </mxCell>
        <mxCell id="GyusQABazjMxVqcBMALw-1" value="Availability Zone" style="fillColor=none;strokeColor=#147EBA;dashed=1;verticalAlign=top;fontStyle=0;fontColor=#147EBA;whiteSpace=wrap;html=1;" vertex="1" parent="vtAirUSNCSAweiT9N4Ka-36">
          <mxGeometry x="50" y="540" width="240" height="473" as="geometry" />
        </mxCell>
        <mxCell id="kY0M-rU2a5wiZX5oKVrV-1" value="&lt;b&gt;Security group&lt;/b&gt;" style="fillColor=none;strokeColor=#DD3522;verticalAlign=top;fontStyle=0;fontColor=#DD3522;whiteSpace=wrap;html=1;" vertex="1" parent="vtAirUSNCSAweiT9N4Ka-36">
          <mxGeometry x="57" y="796" width="853" height="200" as="geometry" />
        </mxCell>
        <mxCell id="uKabUwobmnWwx-PS6Z31-1" value="Private subnet" style="points=[[0,0],[0.25,0],[0.5,0],[0.75,0],[1,0],[1,0.25],[1,0.5],[1,0.75],[1,1],[0.75,1],[0.5,1],[0.25,1],[0,1],[0,0.75],[0,0.5],[0,0.25]];outlineConnect=0;gradientColor=none;html=1;whiteSpace=wrap;fontSize=12;fontStyle=0;container=1;pointerEvents=0;collapsible=0;recursiveResize=0;shape=mxgraph.aws4.group;grIcon=mxgraph.aws4.group_security_group;grStroke=0;strokeColor=#00A4A6;fillColor=#E6F6F7;verticalAlign=top;align=left;spacingLeft=30;fontColor=#147EBA;dashed=0;" vertex="1" parent="vtAirUSNCSAweiT9N4Ka-36">
          <mxGeometry x="70" y="836" width="200" height="130" as="geometry" />
        </mxCell>
        <mxCell id="SfwbnAQvLy-pjkr6WVtJ-2" value="ECS&lt;div&gt;&lt;br&gt;&lt;/div&gt;" style="sketch=0;points=[[0,0,0],[0.25,0,0],[0.5,0,0],[0.75,0,0],[1,0,0],[0,1,0],[0.25,1,0],[0.5,1,0],[0.75,1,0],[1,1,0],[0,0.25,0],[0,0.5,0],[0,0.75,0],[1,0.25,0],[1,0.5,0],[1,0.75,0]];outlineConnect=0;fontColor=#232F3E;fillColor=#ED7100;strokeColor=#ffffff;dashed=0;verticalLabelPosition=bottom;verticalAlign=top;align=center;html=1;fontSize=12;fontStyle=0;aspect=fixed;shape=mxgraph.aws4.resourceIcon;resIcon=mxgraph.aws4.ecs;" vertex="1" parent="uKabUwobmnWwx-PS6Z31-1">
          <mxGeometry x="20" y="39" width="51" height="51" as="geometry" />
        </mxCell>
        <mxCell id="SfwbnAQvLy-pjkr6WVtJ-3" value="RDS" style="outlineConnect=0;dashed=0;verticalLabelPosition=bottom;verticalAlign=top;align=center;html=1;shape=mxgraph.aws3.rds;fillColor=#2E73B8;gradientColor=none;" vertex="1" parent="vtAirUSNCSAweiT9N4Ka-36">
          <mxGeometry x="170" y="875" width="62" height="60" as="geometry" />
        </mxCell>
        <mxCell id="SfwbnAQvLy-pjkr6WVtJ-4" value="Availability Zone" style="fillColor=none;strokeColor=#147EBA;dashed=1;verticalAlign=top;fontStyle=0;fontColor=#147EBA;whiteSpace=wrap;html=1;" vertex="1" parent="vtAirUSNCSAweiT9N4Ka-36">
          <mxGeometry x="340" y="530" width="240" height="483" as="geometry" />
        </mxCell>
        <mxCell id="SfwbnAQvLy-pjkr6WVtJ-9" value="Availability Zone" style="fillColor=none;strokeColor=#147EBA;dashed=1;verticalAlign=top;fontStyle=0;fontColor=#147EBA;whiteSpace=wrap;html=1;" vertex="1" parent="vtAirUSNCSAweiT9N4Ka-36">
          <mxGeometry x="632" y="530" width="240" height="483" as="geometry" />
        </mxCell>
        <mxCell id="SfwbnAQvLy-pjkr6WVtJ-13" value="Public subnet" style="points=[[0,0],[0.25,0],[0.5,0],[0.75,0],[1,0],[1,0.25],[1,0.5],[1,0.75],[1,1],[0.75,1],[0.5,1],[0.25,1],[0,1],[0,0.75],[0,0.5],[0,0.25]];outlineConnect=0;gradientColor=none;html=1;whiteSpace=wrap;fontSize=12;fontStyle=0;container=1;pointerEvents=0;collapsible=0;recursiveResize=0;shape=mxgraph.aws4.group;grIcon=mxgraph.aws4.group_security_group;grStroke=0;strokeColor=#7AA116;fillColor=#F2F6E8;verticalAlign=top;align=left;spacingLeft=30;fontColor=#248814;dashed=0;" vertex="1" parent="vtAirUSNCSAweiT9N4Ka-36">
          <mxGeometry x="362" y="623" width="200" height="130" as="geometry" />
        </mxCell>
        <mxCell id="SfwbnAQvLy-pjkr6WVtJ-16" value="NAT GATE WAY" style="outlineConnect=0;dashed=0;verticalLabelPosition=bottom;verticalAlign=top;align=center;html=1;shape=mxgraph.aws3.vpc_nat_gateway;fillColor=#F58534;gradientColor=none;" vertex="1" parent="SfwbnAQvLy-pjkr6WVtJ-13">
          <mxGeometry x="20" y="31" width="50" height="69" as="geometry" />
        </mxCell>
        <mxCell id="SfwbnAQvLy-pjkr6WVtJ-14" value="Public subnet" style="points=[[0,0],[0.25,0],[0.5,0],[0.75,0],[1,0],[1,0.25],[1,0.5],[1,0.75],[1,1],[0.75,1],[0.5,1],[0.25,1],[0,1],[0,0.75],[0,0.5],[0,0.25]];outlineConnect=0;gradientColor=none;html=1;whiteSpace=wrap;fontSize=12;fontStyle=0;container=1;pointerEvents=0;collapsible=0;recursiveResize=0;shape=mxgraph.aws4.group;grIcon=mxgraph.aws4.group_security_group;grStroke=0;strokeColor=#7AA116;fillColor=#F2F6E8;verticalAlign=top;align=left;spacingLeft=30;fontColor=#248814;dashed=0;" vertex="1" parent="vtAirUSNCSAweiT9N4Ka-36">
          <mxGeometry x="650" y="622" width="191" height="130" as="geometry" />
        </mxCell>
        <mxCell id="SfwbnAQvLy-pjkr6WVtJ-15" value="NAT GATE WAY" style="outlineConnect=0;dashed=0;verticalLabelPosition=bottom;verticalAlign=top;align=center;html=1;shape=mxgraph.aws3.vpc_nat_gateway;fillColor=#F58534;gradientColor=none;" vertex="1" parent="vtAirUSNCSAweiT9N4Ka-36">
          <mxGeometry x="688" y="652" width="60" height="71" as="geometry" />
        </mxCell>
        <mxCell id="SfwbnAQvLy-pjkr6WVtJ-20" value="Public subnet" style="points=[[0,0],[0.25,0],[0.5,0],[0.75,0],[1,0],[1,0.25],[1,0.5],[1,0.75],[1,1],[0.75,1],[0.5,1],[0.25,1],[0,1],[0,0.75],[0,0.5],[0,0.25]];outlineConnect=0;gradientColor=none;html=1;whiteSpace=wrap;fontSize=12;fontStyle=0;container=1;pointerEvents=0;collapsible=0;recursiveResize=0;shape=mxgraph.aws4.group;grIcon=mxgraph.aws4.group_security_group;grStroke=0;strokeColor=#7AA116;fillColor=#F2F6E8;verticalAlign=top;align=left;spacingLeft=30;fontColor=#248814;dashed=0;" vertex="1" parent="vtAirUSNCSAweiT9N4Ka-36">
          <mxGeometry x="70" y="619" width="200" height="130" as="geometry" />
        </mxCell>
        <mxCell id="SfwbnAQvLy-pjkr6WVtJ-21" value="NAT GATE WAY" style="outlineConnect=0;dashed=0;verticalLabelPosition=bottom;verticalAlign=top;align=center;html=1;shape=mxgraph.aws3.vpc_nat_gateway;fillColor=#F58534;gradientColor=none;" vertex="1" parent="SfwbnAQvLy-pjkr6WVtJ-20">
          <mxGeometry x="20" y="31" width="50" height="69" as="geometry" />
        </mxCell>
        <mxCell id="SfwbnAQvLy-pjkr6WVtJ-22" value="Private subnet" style="points=[[0,0],[0.25,0],[0.5,0],[0.75,0],[1,0],[1,0.25],[1,0.5],[1,0.75],[1,1],[0.75,1],[0.5,1],[0.25,1],[0,1],[0,0.75],[0,0.5],[0,0.25]];outlineConnect=0;gradientColor=none;html=1;whiteSpace=wrap;fontSize=12;fontStyle=0;container=1;pointerEvents=0;collapsible=0;recursiveResize=0;shape=mxgraph.aws4.group;grIcon=mxgraph.aws4.group_security_group;grStroke=0;strokeColor=#00A4A6;fillColor=#E6F6F7;verticalAlign=top;align=left;spacingLeft=30;fontColor=#147EBA;dashed=0;" vertex="1" parent="vtAirUSNCSAweiT9N4Ka-36">
          <mxGeometry x="359" y="841" width="200" height="130" as="geometry" />
        </mxCell>
        <mxCell id="SfwbnAQvLy-pjkr6WVtJ-23" value="ECS&lt;div&gt;&lt;br&gt;&lt;/div&gt;" style="sketch=0;points=[[0,0,0],[0.25,0,0],[0.5,0,0],[0.75,0,0],[1,0,0],[0,1,0],[0.25,1,0],[0.5,1,0],[0.75,1,0],[1,1,0],[0,0.25,0],[0,0.5,0],[0,0.75,0],[1,0.25,0],[1,0.5,0],[1,0.75,0]];outlineConnect=0;fontColor=#232F3E;fillColor=#ED7100;strokeColor=#ffffff;dashed=0;verticalLabelPosition=bottom;verticalAlign=top;align=center;html=1;fontSize=12;fontStyle=0;aspect=fixed;shape=mxgraph.aws4.resourceIcon;resIcon=mxgraph.aws4.ecs;" vertex="1" parent="SfwbnAQvLy-pjkr6WVtJ-22">
          <mxGeometry x="20" y="39" width="51" height="51" as="geometry" />
        </mxCell>
        <mxCell id="SfwbnAQvLy-pjkr6WVtJ-25" value="Private subnet" style="points=[[0,0],[0.25,0],[0.5,0],[0.75,0],[1,0],[1,0.25],[1,0.5],[1,0.75],[1,1],[0.75,1],[0.5,1],[0.25,1],[0,1],[0,0.75],[0,0.5],[0,0.25]];outlineConnect=0;gradientColor=none;html=1;whiteSpace=wrap;fontSize=12;fontStyle=0;container=1;pointerEvents=0;collapsible=0;recursiveResize=0;shape=mxgraph.aws4.group;grIcon=mxgraph.aws4.group_security_group;grStroke=0;strokeColor=#00A4A6;fillColor=#E6F6F7;verticalAlign=top;align=left;spacingLeft=30;fontColor=#147EBA;dashed=0;" vertex="1" parent="vtAirUSNCSAweiT9N4Ka-36">
          <mxGeometry x="651" y="845" width="200" height="130" as="geometry" />
        </mxCell>
        <mxCell id="SfwbnAQvLy-pjkr6WVtJ-26" value="ECS&lt;div&gt;&lt;br&gt;&lt;/div&gt;" style="sketch=0;points=[[0,0,0],[0.25,0,0],[0.5,0,0],[0.75,0,0],[1,0,0],[0,1,0],[0.25,1,0],[0.5,1,0],[0.75,1,0],[1,1,0],[0,0.25,0],[0,0.5,0],[0,0.75,0],[1,0.25,0],[1,0.5,0],[1,0.75,0]];outlineConnect=0;fontColor=#232F3E;fillColor=#ED7100;strokeColor=#ffffff;dashed=0;verticalLabelPosition=bottom;verticalAlign=top;align=center;html=1;fontSize=12;fontStyle=0;aspect=fixed;shape=mxgraph.aws4.resourceIcon;resIcon=mxgraph.aws4.ecs;" vertex="1" parent="SfwbnAQvLy-pjkr6WVtJ-25">
          <mxGeometry x="20" y="39" width="51" height="51" as="geometry" />
        </mxCell>
        <mxCell id="ph9_aFmV50ASOIgg92gZ-3" value="ALB" style="points=[[0,0],[0.25,0],[0.5,0],[0.75,0],[1,0],[1,0.25],[1,0.5],[1,0.75],[1,1],[0.75,1],[0.5,1],[0.25,1],[0,1],[0,0.75],[0,0.5],[0,0.25]];outlineConnect=0;gradientColor=none;html=1;whiteSpace=wrap;fontSize=12;fontStyle=0;container=1;pointerEvents=0;collapsible=0;recursiveResize=0;shape=mxgraph.aws4.group;grIcon=mxgraph.aws4.group_on_premise;strokeColor=#7D8998;fillColor=none;verticalAlign=top;align=left;spacingLeft=30;fontColor=#5A6C86;dashed=0;" vertex="1" parent="vtAirUSNCSAweiT9N4Ka-36">
          <mxGeometry x="16" y="450" width="920" height="580" as="geometry" />
        </mxCell>
        <mxCell id="ph9_aFmV50ASOIgg92gZ-12" value="RDS" style="outlineConnect=0;dashed=0;verticalLabelPosition=bottom;verticalAlign=top;align=center;html=1;shape=mxgraph.aws3.rds;fillColor=#2E73B8;gradientColor=none;" vertex="1" parent="ph9_aFmV50ASOIgg92gZ-3">
          <mxGeometry x="732" y="433.5" width="62" height="60" as="geometry" />
        </mxCell>
        <mxCell id="vtAirUSNCSAweiT9N4Ka-29" value="ALB&lt;div&gt;&lt;br&gt;&lt;/div&gt;" style="outlineConnect=0;dashed=0;verticalLabelPosition=bottom;verticalAlign=top;align=center;html=1;shape=mxgraph.aws3.application_load_balancer;fillColor=#F58534;gradientColor=none;" vertex="1" parent="vtAirUSNCSAweiT9N4Ka-36">
          <mxGeometry x="287" y="232" width="69" height="72" as="geometry" />
        </mxCell>
        <mxCell id="ph9_aFmV50ASOIgg92gZ-11" value="RDS" style="outlineConnect=0;dashed=0;verticalLabelPosition=bottom;verticalAlign=top;align=center;html=1;shape=mxgraph.aws3.rds;fillColor=#2E73B8;gradientColor=none;" vertex="1" parent="vtAirUSNCSAweiT9N4Ka-36">
          <mxGeometry x="450" y="880" width="62" height="60" as="geometry" />
        </mxCell>
        <mxCell id="ph9_aFmV50ASOIgg92gZ-19" value="AMAZON INSPECTOR" style="sketch=0;points=[[0,0,0],[0.25,0,0],[0.5,0,0],[0.75,0,0],[1,0,0],[0,1,0],[0.25,1,0],[0.5,1,0],[0.75,1,0],[1,1,0],[0,0.25,0],[0,0.5,0],[0,0.75,0],[1,0.25,0],[1,0.5,0],[1,0.75,0]];outlineConnect=0;fontColor=#232F3E;fillColor=#DD344C;strokeColor=#ffffff;dashed=0;verticalLabelPosition=bottom;verticalAlign=top;align=center;html=1;fontSize=12;fontStyle=0;aspect=fixed;shape=mxgraph.aws4.resourceIcon;resIcon=mxgraph.aws4.inspector;" vertex="1" parent="vtAirUSNCSAweiT9N4Ka-36">
          <mxGeometry x="1013" y="62" width="119" height="119" as="geometry" />
        </mxCell>
        <mxCell id="ph9_aFmV50ASOIgg92gZ-20" value="GAURD DUTY" style="sketch=0;points=[[0,0,0],[0.25,0,0],[0.5,0,0],[0.75,0,0],[1,0,0],[0,1,0],[0.25,1,0],[0.5,1,0],[0.75,1,0],[1,1,0],[0,0.25,0],[0,0.5,0],[0,0.75,0],[1,0.25,0],[1,0.5,0],[1,0.75,0]];outlineConnect=0;fontColor=#232F3E;fillColor=#DD344C;strokeColor=#ffffff;dashed=0;verticalLabelPosition=bottom;verticalAlign=top;align=center;html=1;fontSize=12;fontStyle=0;aspect=fixed;shape=mxgraph.aws4.resourceIcon;resIcon=mxgraph.aws4.guardduty;" vertex="1" parent="vtAirUSNCSAweiT9N4Ka-36">
          <mxGeometry x="1009" y="300" width="126" height="126" as="geometry" />
        </mxCell>
        <mxCell id="ph9_aFmV50ASOIgg92gZ-23" value="KMS&lt;div&gt;&lt;br&gt;&lt;/div&gt;" style="sketch=0;points=[[0,0,0],[0.25,0,0],[0.5,0,0],[0.75,0,0],[1,0,0],[0,1,0],[0.25,1,0],[0.5,1,0],[0.75,1,0],[1,1,0],[0,0.25,0],[0,0.5,0],[0,0.75,0],[1,0.25,0],[1,0.5,0],[1,0.75,0]];outlineConnect=0;fontColor=#232F3E;fillColor=#DD344C;strokeColor=#ffffff;dashed=0;verticalLabelPosition=bottom;verticalAlign=top;align=center;html=1;fontSize=12;fontStyle=0;aspect=fixed;shape=mxgraph.aws4.resourceIcon;resIcon=mxgraph.aws4.key_management_service;" vertex="1" parent="vtAirUSNCSAweiT9N4Ka-36">
          <mxGeometry x="1011" y="703" width="138" height="138" as="geometry" />
        </mxCell>
        <mxCell id="ph9_aFmV50ASOIgg92gZ-25" value="SECRET MANAGER" style="sketch=0;points=[[0,0,0],[0.25,0,0],[0.5,0,0],[0.75,0,0],[1,0,0],[0,1,0],[0.25,1,0],[0.5,1,0],[0.75,1,0],[1,1,0],[0,0.25,0],[0,0.5,0],[0,0.75,0],[1,0.25,0],[1,0.5,0],[1,0.75,0]];outlineConnect=0;fontColor=#232F3E;fillColor=#DD344C;strokeColor=#ffffff;dashed=0;verticalLabelPosition=bottom;verticalAlign=top;align=center;html=1;fontSize=12;fontStyle=0;aspect=fixed;shape=mxgraph.aws4.resourceIcon;resIcon=mxgraph.aws4.secrets_manager;" vertex="1" parent="vtAirUSNCSAweiT9N4Ka-36">
          <mxGeometry x="1017" y="887" width="124" height="124" as="geometry" />
        </mxCell>
        <mxCell id="SfwbnAQvLy-pjkr6WVtJ-28" style="edgeStyle=none;curved=1;rounded=0;orthogonalLoop=1;jettySize=auto;html=1;fontSize=12;startSize=8;endSize=8;" edge="1" parent="1" source="vtAirUSNCSAweiT9N4Ka-37" target="vtAirUSNCSAweiT9N4Ka-33">
          <mxGeometry relative="1" as="geometry" />
        </mxCell>
        <mxCell id="vtAirUSNCSAweiT9N4Ka-37" value="" style="image;aspect=fixed;html=1;points=[];align=center;fontSize=12;image=img/lib/azure2/networking/DNS_Zones.svg;" vertex="1" parent="1">
          <mxGeometry x="796" y="435" width="64" height="64" as="geometry" />
        </mxCell>
        <mxCell id="vtAirUSNCSAweiT9N4Ka-40" style="edgeStyle=none;curved=1;rounded=0;orthogonalLoop=1;jettySize=auto;html=1;fontSize=12;startSize=8;endSize=8;" edge="1" parent="1">
          <mxGeometry relative="1" as="geometry">
            <mxPoint x="820" y="431" as="targetPoint" />
            <mxPoint x="820" y="291" as="sourcePoint" />
          </mxGeometry>
        </mxCell>
        <mxCell id="vtAirUSNCSAweiT9N4Ka-39" value="User" style="html=1;whiteSpace=wrap;strokeColor=none;fillColor=#0079D6;labelPosition=center;verticalLabelPosition=middle;verticalAlign=top;align=center;fontSize=12;outlineConnect=0;spacingTop=-6;fontColor=#FFFFFF;sketch=0;shape=mxgraph.sitemap.user;" vertex="1" parent="1">
          <mxGeometry x="767" y="210" width="120" height="70" as="geometry" />
        </mxCell>
        <mxCell id="ph9_aFmV50ASOIgg92gZ-13" style="edgeStyle=none;curved=1;rounded=0;orthogonalLoop=1;jettySize=auto;html=1;entryX=0.5;entryY=0;entryDx=0;entryDy=0;entryPerimeter=0;fontSize=12;startSize=8;endSize=8;" edge="1" parent="1" source="vtAirUSNCSAweiT9N4Ka-30" target="vtAirUSNCSAweiT9N4Ka-29">
          <mxGeometry relative="1" as="geometry" />
        </mxCell>
        <mxCell id="ph9_aFmV50ASOIgg92gZ-18" value="" style="edgeStyle=orthogonalEdgeStyle;html=1;endArrow=none;elbow=vertical;startArrow=block;startFill=1;strokeColor=#545B64;rounded=0;fontSize=12;startSize=8;endSize=8;curved=1;" edge="1" parent="1" target="vtAirUSNCSAweiT9N4Ka-29">
          <mxGeometry width="100" relative="1" as="geometry">
            <mxPoint x="956.0000000000005" y="980" as="sourcePoint" />
            <mxPoint x="1120" y="840" as="targetPoint" />
          </mxGeometry>
        </mxCell>
        <mxCell id="ph9_aFmV50ASOIgg92gZ-21" value="IAM&lt;div&gt;&lt;br&gt;&lt;/div&gt;" style="outlineConnect=0;dashed=0;verticalLabelPosition=bottom;verticalAlign=top;align=center;html=1;shape=mxgraph.aws3.iam;fillColor=#759C3E;gradientColor=none;" vertex="1" parent="1">
          <mxGeometry x="1690" y="1044" width="68" height="148" as="geometry" />
        </mxCell>
      </root>
    </mxGraphModel>
  </diagram>
  <diagram id="joWwgpqF_tyZ4jQB0fs3" name="Page-2">
    <mxGraphModel dx="939" dy="460" grid="0" gridSize="10" guides="1" tooltips="1" connect="1" arrows="1" fold="1" page="1" pageScale="1" pageWidth="4681" pageHeight="3300" background="#ffffff" math="0" shadow="1">
      <root>
        <mxCell id="0" />
        <mxCell id="1" parent="0" />
        <mxCell id="e_KA3uBAL_2bLxz84az9-1" value="AWS Cloud" style="sketch=0;outlineConnect=0;gradientColor=none;html=1;whiteSpace=wrap;fontSize=12;fontStyle=0;shape=mxgraph.aws4.group;grIcon=mxgraph.aws4.group_aws_cloud;strokeColor=#AAB7B8;fillColor=none;verticalAlign=top;align=left;spacingLeft=30;fontColor=#AAB7B8;dashed=0;" vertex="1" parent="1">
          <mxGeometry x="1199.6666717529297" y="669.5333213806152" width="700" height="560" as="geometry" />
        </mxCell>
        <mxCell id="e_KA3uBAL_2bLxz84az9-2" value="Region" style="sketch=0;outlineConnect=0;gradientColor=none;html=1;whiteSpace=wrap;fontSize=12;fontStyle=0;shape=mxgraph.aws4.group;grIcon=mxgraph.aws4.group_region;strokeColor=#879196;fillColor=none;verticalAlign=top;align=left;spacingLeft=30;fontColor=#879196;dashed=1;" vertex="1" parent="1">
          <mxGeometry x="1219.6666717529297" y="699.5333213806152" width="650" height="500" as="geometry" />
        </mxCell>
        <mxCell id="e_KA3uBAL_2bLxz84az9-3" value="VPC" style="sketch=0;outlineConnect=0;gradientColor=none;html=1;whiteSpace=wrap;fontSize=12;fontStyle=0;shape=mxgraph.aws4.group;grIcon=mxgraph.aws4.group_vpc;strokeColor=#879196;fillColor=none;verticalAlign=top;align=left;spacingLeft=30;fontColor=#879196;dashed=0;" vertex="1" parent="1">
          <mxGeometry x="1249.6666717529297" y="729.5333213806152" width="590" height="440" as="geometry" />
        </mxCell>
        <mxCell id="e_KA3uBAL_2bLxz84az9-4" value="Availability Zone" style="fillColor=none;strokeColor=#147EBA;dashed=1;verticalAlign=top;fontStyle=0;fontColor=#147EBA;whiteSpace=wrap;html=1;" vertex="1" parent="1">
          <mxGeometry x="1279.6666717529297" y="769.5333213806152" width="290" height="370" as="geometry" />
        </mxCell>
        <mxCell id="e_KA3uBAL_2bLxz84az9-5" value="Public subnet" style="points=[[0,0],[0.25,0],[0.5,0],[0.75,0],[1,0],[1,0.25],[1,0.5],[1,0.75],[1,1],[0.75,1],[0.5,1],[0.25,1],[0,1],[0,0.75],[0,0.5],[0,0.25]];outlineConnect=0;gradientColor=none;html=1;whiteSpace=wrap;fontSize=12;fontStyle=0;container=1;pointerEvents=0;collapsible=0;recursiveResize=0;shape=mxgraph.aws4.group;grIcon=mxgraph.aws4.group_security_group;grStroke=0;strokeColor=#7AA116;fillColor=#F2F6E8;verticalAlign=top;align=left;spacingLeft=30;fontColor=#248814;dashed=0;" vertex="1" parent="1">
          <mxGeometry x="1294.6666717529297" y="799.5333213806152" width="255" height="90" as="geometry" />
        </mxCell>
        <mxCell id="e_KA3uBAL_2bLxz84az9-6" value="NAT gateway" style="sketch=0;outlineConnect=0;fontColor=#232F3E;gradientColor=none;strokeColor=#232F3E;fillColor=#ffffff;dashed=0;verticalLabelPosition=bottom;verticalAlign=top;align=center;html=1;fontSize=12;fontStyle=0;aspect=fixed;shape=mxgraph.aws4.resourceIcon;resIcon=mxgraph.aws4.nat_gateway;" vertex="1" parent="e_KA3uBAL_2bLxz84az9-5">
          <mxGeometry x="155" y="22.5" width="45" height="45" as="geometry" />
        </mxCell>
        <mxCell id="e_KA3uBAL_2bLxz84az9-7" value="Private subnet" style="points=[[0,0],[0.25,0],[0.5,0],[0.75,0],[1,0],[1,0.25],[1,0.5],[1,0.75],[1,1],[0.75,1],[0.5,1],[0.25,1],[0,1],[0,0.75],[0,0.5],[0,0.25]];outlineConnect=0;gradientColor=none;html=1;whiteSpace=wrap;fontSize=12;fontStyle=0;container=1;pointerEvents=0;collapsible=0;recursiveResize=0;shape=mxgraph.aws4.group;grIcon=mxgraph.aws4.group_security_group;grStroke=0;strokeColor=#00A4A6;fillColor=#E6F6F7;verticalAlign=top;align=left;spacingLeft=30;fontColor=#147EBA;dashed=0;" vertex="1" parent="1">
          <mxGeometry x="1299.6666717529297" y="989.5333213806152" width="230" height="111" as="geometry" />
        </mxCell>
        <mxCell id="e_KA3uBAL_2bLxz84az9-8" style="edgeStyle=orthogonalEdgeStyle;rounded=0;orthogonalLoop=1;jettySize=auto;html=1;" edge="1" parent="e_KA3uBAL_2bLxz84az9-7" target="e_KA3uBAL_2bLxz84az9-9">
          <mxGeometry relative="1" as="geometry">
            <mxPoint x="70" y="52.85714285714312" as="sourcePoint" />
          </mxGeometry>
        </mxCell>
        <mxCell id="e_KA3uBAL_2bLxz84az9-9" value="" style="outlineConnect=0;dashed=0;verticalLabelPosition=bottom;verticalAlign=top;align=center;html=1;shape=mxgraph.aws3.rds;fillColor=#2E73B8;gradientColor=none;" vertex="1" parent="e_KA3uBAL_2bLxz84az9-7">
          <mxGeometry x="150" y="32.38" width="40" height="42.25" as="geometry" />
        </mxCell>
        <mxCell id="e_KA3uBAL_2bLxz84az9-10" value="&lt;font style=&quot;font-size: 8px;&quot;&gt;ECS Fargate&lt;/font&gt;" style="text;html=1;strokeColor=none;fillColor=none;align=center;verticalAlign=middle;whiteSpace=wrap;rounded=0;" vertex="1" parent="e_KA3uBAL_2bLxz84az9-7">
          <mxGeometry x="16" y="80" width="50" height="17" as="geometry" />
        </mxCell>
        <mxCell id="e_KA3uBAL_2bLxz84az9-11" value="&lt;font style=&quot;font-size: 9px;&quot;&gt;RDS (Mysql)&lt;/font&gt;" style="text;html=1;strokeColor=none;fillColor=none;align=center;verticalAlign=middle;whiteSpace=wrap;rounded=0;" vertex="1" parent="e_KA3uBAL_2bLxz84az9-7">
          <mxGeometry x="140" y="73.5" width="60" height="30" as="geometry" />
        </mxCell>
        <mxCell id="e_KA3uBAL_2bLxz84az9-12" value="" style="sketch=0;outlineConnect=0;fontColor=#232F3E;gradientColor=none;strokeColor=#ffffff;fillColor=#232F3E;dashed=0;verticalLabelPosition=middle;verticalAlign=bottom;align=center;html=1;whiteSpace=wrap;fontSize=10;fontStyle=1;spacing=3;shape=mxgraph.aws4.productIcon;prIcon=mxgraph.aws4.ecs;" vertex="1" parent="e_KA3uBAL_2bLxz84az9-7">
          <mxGeometry x="20" y="34.38" width="40" height="37" as="geometry" />
        </mxCell>
        <mxCell id="e_KA3uBAL_2bLxz84az9-13" style="edgeStyle=orthogonalEdgeStyle;rounded=0;orthogonalLoop=1;jettySize=auto;html=1;" edge="1" parent="1" source="e_KA3uBAL_2bLxz84az9-14" target="e_KA3uBAL_2bLxz84az9-6">
          <mxGeometry relative="1" as="geometry" />
        </mxCell>
        <mxCell id="e_KA3uBAL_2bLxz84az9-14" value="" style="outlineConnect=0;dashed=0;verticalLabelPosition=bottom;verticalAlign=top;align=center;html=1;shape=mxgraph.aws3.application_load_balancer;fillColor=#F58534;gradientColor=none;" vertex="1" parent="1">
          <mxGeometry x="1529.6666717529297" y="649.5333213806152" width="50" height="50" as="geometry" />
        </mxCell>
        <mxCell id="e_KA3uBAL_2bLxz84az9-15" style="edgeStyle=orthogonalEdgeStyle;rounded=0;orthogonalLoop=1;jettySize=auto;html=1;" edge="1" parent="1" source="e_KA3uBAL_2bLxz84az9-6">
          <mxGeometry relative="1" as="geometry">
            <mxPoint x="1349.6666717529301" y="1018.6633213806153" as="targetPoint" />
          </mxGeometry>
        </mxCell>
        <mxCell id="e_KA3uBAL_2bLxz84az9-16" value="&lt;font style=&quot;font-size: 8px;&quot;&gt;AWS WAF&lt;/font&gt;" style="sketch=0;outlineConnect=0;fontColor=#232F3E;gradientColor=none;strokeColor=#ffffff;fillColor=#232F3E;dashed=0;verticalLabelPosition=middle;verticalAlign=bottom;align=center;html=1;whiteSpace=wrap;fontSize=10;fontStyle=1;spacing=3;shape=mxgraph.aws4.productIcon;prIcon=mxgraph.aws4.waf;" vertex="1" parent="1">
          <mxGeometry x="1539.6666717529297" y="549.5333213806152" width="30" height="60" as="geometry" />
        </mxCell>
        <mxCell id="e_KA3uBAL_2bLxz84az9-17" style="edgeStyle=orthogonalEdgeStyle;rounded=0;orthogonalLoop=1;jettySize=auto;html=1;entryX=0.5;entryY=0;entryDx=0;entryDy=0;entryPerimeter=0;" edge="1" parent="1" source="e_KA3uBAL_2bLxz84az9-16" target="e_KA3uBAL_2bLxz84az9-14">
          <mxGeometry relative="1" as="geometry" />
        </mxCell>
        <mxCell id="e_KA3uBAL_2bLxz84az9-18" style="edgeStyle=orthogonalEdgeStyle;rounded=0;orthogonalLoop=1;jettySize=auto;html=1;" edge="1" parent="1" source="e_KA3uBAL_2bLxz84az9-19" target="e_KA3uBAL_2bLxz84az9-16">
          <mxGeometry relative="1" as="geometry" />
        </mxCell>
        <mxCell id="e_KA3uBAL_2bLxz84az9-19" value="" style="outlineConnect=0;dashed=0;verticalLabelPosition=bottom;verticalAlign=top;align=center;html=1;shape=mxgraph.aws3.cloudfront;fillColor=#F58536;gradientColor=none;" vertex="1" parent="1">
          <mxGeometry x="1541.4166717529297" y="479.53332138061523" width="28.25" height="33" as="geometry" />
        </mxCell>
        <mxCell id="e_KA3uBAL_2bLxz84az9-20" value="" style="rounded=0;whiteSpace=wrap;html=1;strokeWidth=8;" vertex="1" parent="1">
          <mxGeometry x="249.6666717529297" y="364.53332138061523" width="680" height="829" as="geometry" />
        </mxCell>
        <mxCell id="e_KA3uBAL_2bLxz84az9-21" value="&lt;font style=&quot;font-size: 5px;&quot;&gt;Cloudfront&lt;/font&gt;" style="text;html=1;strokeColor=none;fillColor=none;align=center;verticalAlign=middle;whiteSpace=wrap;rounded=0;" vertex="1" parent="1">
          <mxGeometry x="1569.6666717529297" y="502.53332138061523" width="20" height="10" as="geometry" />
        </mxCell>
        <mxCell id="e_KA3uBAL_2bLxz84az9-22" value="" style="image;aspect=fixed;html=1;points=[];align=center;fontSize=12;image=img/lib/azure2/networking/DNS_Zones.svg;" vertex="1" parent="1">
          <mxGeometry x="1539.6666717529297" y="419.53332138061523" width="34" height="34" as="geometry" />
        </mxCell>
        <mxCell id="e_KA3uBAL_2bLxz84az9-23" style="edgeStyle=orthogonalEdgeStyle;rounded=0;orthogonalLoop=1;jettySize=auto;html=1;entryX=0.5;entryY=0;entryDx=0;entryDy=0;entryPerimeter=0;" edge="1" parent="1" source="e_KA3uBAL_2bLxz84az9-22" target="e_KA3uBAL_2bLxz84az9-19">
          <mxGeometry relative="1" as="geometry" />
        </mxCell>
        <mxCell id="e_KA3uBAL_2bLxz84az9-24" value="Godaddy" style="text;html=1;strokeColor=none;fillColor=none;align=center;verticalAlign=middle;whiteSpace=wrap;rounded=0;" vertex="1" parent="1">
          <mxGeometry x="1525.6666717529297" y="389.53332138061523" width="60" height="30" as="geometry" />
        </mxCell>
        <mxCell id="e_KA3uBAL_2bLxz84az9-25" value="Amazon S3" style="sketch=0;outlineConnect=0;fontColor=#232F3E;gradientColor=none;strokeColor=#ffffff;fillColor=#232F3E;dashed=0;verticalLabelPosition=middle;verticalAlign=bottom;align=center;html=1;whiteSpace=wrap;fontSize=10;fontStyle=1;spacing=3;shape=mxgraph.aws4.productIcon;prIcon=mxgraph.aws4.s3;" vertex="1" parent="1">
          <mxGeometry x="1769.6666717529297" y="779.5333213806152" width="50" height="80" as="geometry" />
        </mxCell>
        <mxCell id="e_KA3uBAL_2bLxz84az9-26" value="" style="outlineConnect=0;dashed=0;verticalLabelPosition=bottom;verticalAlign=top;align=center;html=1;shape=mxgraph.aws3.codepipeline;fillColor=#759C3E;gradientColor=none;" vertex="1" parent="1">
          <mxGeometry x="1599.6666717529297" y="769.5333213806152" width="50" height="61" as="geometry" />
        </mxCell>
        <mxCell id="e_KA3uBAL_2bLxz84az9-27" value="Code Pipeline" style="text;html=1;strokeColor=none;fillColor=none;align=center;verticalAlign=middle;whiteSpace=wrap;rounded=0;" vertex="1" parent="1">
          <mxGeometry x="1594.6666717529297" y="839.5333213806152" width="60" height="30" as="geometry" />
        </mxCell>
        <mxCell id="e_KA3uBAL_2bLxz84az9-28" style="edgeStyle=orthogonalEdgeStyle;rounded=0;orthogonalLoop=1;jettySize=auto;html=1;" edge="1" parent="1" source="e_KA3uBAL_2bLxz84az9-29" target="e_KA3uBAL_2bLxz84az9-33">
          <mxGeometry relative="1" as="geometry" />
        </mxCell>
        <mxCell id="e_KA3uBAL_2bLxz84az9-29" value="" style="outlineConnect=0;dashed=0;verticalLabelPosition=bottom;verticalAlign=top;align=center;html=1;shape=mxgraph.aws3.codepipeline;fillColor=#759C3E;gradientColor=none;" vertex="1" parent="1">
          <mxGeometry x="379.6666717529297" y="590.5333213806152" width="50" height="61" as="geometry" />
        </mxCell>
        <mxCell id="e_KA3uBAL_2bLxz84az9-30" value="Code Pipeline" style="text;strokeColor=none;fillColor=none;html=1;fontSize=24;fontStyle=1;verticalAlign=middle;align=center;" vertex="1" parent="1">
          <mxGeometry x="364.6666717529297" y="540.5333213806152" width="100" height="40" as="geometry" />
        </mxCell>
        <mxCell id="e_KA3uBAL_2bLxz84az9-31" style="edgeStyle=orthogonalEdgeStyle;rounded=0;orthogonalLoop=1;jettySize=auto;html=1;" edge="1" parent="1" source="e_KA3uBAL_2bLxz84az9-33" target="e_KA3uBAL_2bLxz84az9-36">
          <mxGeometry relative="1" as="geometry">
            <Array as="points">
              <mxPoint x="403.6666717529297" y="860.5333213806152" />
              <mxPoint x="403.6666717529297" y="860.5333213806152" />
            </Array>
          </mxGeometry>
        </mxCell>
        <mxCell id="e_KA3uBAL_2bLxz84az9-32" style="edgeStyle=orthogonalEdgeStyle;rounded=0;orthogonalLoop=1;jettySize=auto;html=1;" edge="1" parent="1" source="e_KA3uBAL_2bLxz84az9-33" target="e_KA3uBAL_2bLxz84az9-43">
          <mxGeometry relative="1" as="geometry">
            <Array as="points">
              <mxPoint x="459.6666717529297" y="800.5333213806152" />
              <mxPoint x="459.6666717529297" y="800.5333213806152" />
            </Array>
          </mxGeometry>
        </mxCell>
        <mxCell id="e_KA3uBAL_2bLxz84az9-33" value="" style="outlineConnect=0;dashed=0;verticalLabelPosition=bottom;verticalAlign=top;align=center;html=1;shape=mxgraph.aws3.codebuild;fillColor=#759C3E;gradientColor=none;" vertex="1" parent="1">
          <mxGeometry x="372.1666717529297" y="770.5333213806152" width="65" height="67" as="geometry" />
        </mxCell>
        <mxCell id="e_KA3uBAL_2bLxz84az9-34" value="Code Build" style="text;strokeColor=none;fillColor=none;html=1;fontSize=24;fontStyle=1;verticalAlign=middle;align=center;" vertex="1" parent="1">
          <mxGeometry x="354.6666717529297" y="730.5333213806152" width="100" height="40" as="geometry" />
        </mxCell>
        <mxCell id="e_KA3uBAL_2bLxz84az9-35" style="edgeStyle=orthogonalEdgeStyle;rounded=0;orthogonalLoop=1;jettySize=auto;html=1;" edge="1" parent="1" source="e_KA3uBAL_2bLxz84az9-36" target="e_KA3uBAL_2bLxz84az9-47">
          <mxGeometry relative="1" as="geometry" />
        </mxCell>
        <mxCell id="e_KA3uBAL_2bLxz84az9-36" value="" style="outlineConnect=0;dashed=0;verticalLabelPosition=bottom;verticalAlign=top;align=center;html=1;shape=mxgraph.aws3.codedeploy;fillColor=#759C3E;gradientColor=none;" vertex="1" parent="1">
          <mxGeometry x="362.1666717529297" y="1029.5333213806152" width="67.5" height="81" as="geometry" />
        </mxCell>
        <mxCell id="e_KA3uBAL_2bLxz84az9-37" value="Code Deploy" style="text;strokeColor=none;fillColor=none;html=1;fontSize=24;fontStyle=1;verticalAlign=middle;align=center;" vertex="1" parent="1">
          <mxGeometry x="362.1666717529297" y="989.5333213806152" width="100" height="40" as="geometry" />
        </mxCell>
        <mxCell id="e_KA3uBAL_2bLxz84az9-38" value="" style="shape=image;verticalLabelPosition=bottom;labelBackgroundColor=default;verticalAlign=top;aspect=fixed;imageAspect=0;image=data:image/png,iVBORw0KGgoAAAANSUhEUgAAASwAAACoCAMAAABt9SM9AAAAe1BMVEX///8AAAAQEBB9fX3r6+u6urqnp6eNjY2AgICRkZEpKSmzs7Pb29stLS3z8/Pw8PDh4eH5+fllZWWdnZ3Q0NBfX1/Jycne3t5qamozMzOHh4e2traqqqpBQUFSUlK/v786OjpycnIiIiKfn59MTEwaGhoVFRVNTU1FRUX9/bFcAAAJ60lEQVR4nO1d63qiMBBtKmqtrJdqqba2im67ff8nXAFDbpNAIDgker7+KUJMjmEymVseHu644yawjOJ1csY6jpbYfekxov1ksyUCtpvJPsLuV+8Q7TZEi83uTliJxeRZz1SB58kCu5e9wO5PFVMF/uywe4qNaFCPqQJPt/w6RgZBBWNzq3TNUluqMqQz7H5jYNWEqgwr7J5fHfF3U64I+Y6xe39dPDWnKsMTdv+viOjYjitCjjcj6IdtqcowxB7FdTB2wRUhY+xxXAOvbrgi5BV7JN3j0xVXhHxij6VrbKs5qI8t9mi6hVOuAmfr4JYrQg7YI+oOX665IuQLe0xdwcocUxcD7FF1g2kXXBEyxR5XF3jrhitC3rBH1gHkMQ6Ho4H9HjEdDff/pGvYI3MP2ShaGA6ik42pZlxMokS6vMEcVxeQB0jW5Sd1dXomnORPEpQhdQdl6Nxn6zr+HV6OK9vLa4+mWyhag6gflQvl9uX9NN0n63Wy/xhN0nLSiSaGkdxaUPrDQpkosoFlQ7bvQ8CROk9WX2QrfaC80yQkF+xfZXSKx9QmCiRSmvvrsLPIWCuDI/s27S3V9tbVT3kCYP/cbgFT2zs46WgPAEws52QFM7UgY0Mrf8MMaDAQ84Mqjs84tWkR3GaG4Rx7h4aWtmkR9KW9u+ovKqCRkZ82LcL+bFf9xcQeHFkrwwrcYittpCfQxGC1ETGwKT8E4wPMVauVHlBKw3gP1X1chkm7RiHNLQRLDbgWHtu2Cvo+/F8Pwajt9nMAavXZQXdRAYqXQ/t2wSBL3/NXQJHlYJEHfwTfhRY4A1w0/AK063toLqRltdrqUEBbHt81LUi+O4lwhCwPvkt46C10Yx+AHI5OGkbDHCLLTdOQ0Jq7aRoJcXcvCxTH63c2AaQ5OPLEnICm/dYdoDXLUZTxDmja7+B4aEQdkuV3/qbiaCfOXAtQ0yM3TSMBUuB/u2vabxUeksKOVkPI9tPKZ4QO6F1xpGelwb2GYNCtm6bVYBPfg3FBD5+b+CCoZb9Vh67MWUEatEBHu5NMQdBn4XeUN2RIcZP6BloVPS9jAA3Jia38F2rYQbuYAHPmPtq3C07ZQ/t2UZFCg3Kw4QEVOCf2akSAg3JgKwUTWfzWSXWO9tZx63BojvehkuCoWk8tuDqZkw5jAs7MaSm14Jfb/2z8CTy1Wu3iwCjV1qE5PQAstNptEDVpin67K3JoyGrhtoLsDRkcdhoL2jTypkJex1UIqWG697ChjWCuLdPpveKQQUtWk5ph+hT+R/c9R4CpuJ/lLjE2lBzx21lBwe15j5PdSJRhPxauvkQnrXJ4bp6hYDFahb4gvUqbfR2TzRqM5GXwfRNNwZJ+X4oLS1mt/xzvDXpXlKX+ViGYxF+WLf91mUTg4EFz8/CxkqcM4ZRp4/PJLw4YwCioKYZVr6RwMBNLHHAh0YEoN52SWoerUCRWBsEIXCiPShCMdrx1qiMFshQWEHStQm7J5Xf02+BqrsLQsUrwhoIX9ZJRAa+UWr5HKcsQvK3Fi7gUhLxB6lS+h377VgHwRkC67vExtAZrIBTFy8N/o58CfltH7Q2zVaGebqYmJV5jGKU4dN/3q4NfEXkT/KzSCqhJXKUIaiWk4A1bdjqkkasgzFgqOJ+MXelaE1e+O1a14OoxWCVwGbgK+MwBTmOy8RzqufI9ac4IvlpffbOflqtwbA0ghFyudLgoVIZoPTKtiTfKlSYGiZjXR80jIZkaNND48+3JuolDLODDUazJchA+6AMWkKXYQBaowQe3edYCSNk1DB4gK3jRzuOjHVl+5xVaYynXRzaQJUcmf/mdN94EyY/AgCG4SiIrhAps9tg1ISswc7sFuNxNg6VldqeqwJTWgq+x3XkM1hxTG3EeVmOsqpYbwjZ+58c5QzKtiJ19m96mVL/jjjvuuMM7xB+r96czxqtpEkZx9o4wP8k5y/9WAQXjucQCKilHyMEy82j0/VzgUXhwebn6fKxnxVoe7e6/LrRB16yz09ft31VVBDeLkBcqf3BxIbW6Y3v/NbHUn/Q1km6pCEuoJKtexont/VcEWDPgAvo2lXSa5X74ZIkmPBGXW5jdyixEgifLdDg7DWfgMgToY/PoAj64KnSyYB/gBdRSx3m+qDqh0vcQPlkKQY/bw5YW8qXynFsBIvk5fjyBkyVG/n/u6MRZvn2kbNJwSXP00i2SxUv3H1kxKJc+lrpT2oVvkCw+StRUUJNOQBbAdoNkcWGP38Ybk1zGc/HqN0gWt8xVbQPjvfCW3h5Z3CbMdst6e2RxdZnMu745RXmlfPBnmX+Q77E1ZM0tBy+QtZymeYrQ9wa5hikXw2e8j4XMFFIrHqkmnex6vZnF8qvL5ZYl6CXC/cdI+CLUYsKsJ+YIa5YsMD7/1HBueDa1GFmCl5Bt1XOyWMWQUk6yXy0LB9Sn+mAeoMxS4Mx+dYEs9fxtgKz0tFoVf6vTiVGRk8X2A9ZkYVbYYp0we9btydKgNVmIQbusD6W5fTIW8J4L/h6RhXbMLWf2o4YWJac+L9PUJ7Kw6kYBtm6FrDwPqU9kYZnlF2oPekfW7yiOojWvQCAFLjUj6yE+gz36uIjzC9l9DsjKNE9G1pbKUq5SAlJCdUOycojjv8A5WUz9Yy5gpGPfuemuFfC4ZL2UTQ/FNq4PbjWk090VWa950MQFA/HmRmRxfe2SEgNYB+g+WnEiNiRL2O5IG+lGZHF9RTq4lXWgTA+JkzPWrPMNyTJtpJuRxapKIKmlbP8vqXpMQvSGLFYuEImstOyAZFRmNpnekMVsHUhkcXUaxFisHpLFZhZSlhTn3BFj/ntIFpNZWCdzM7LELvSQLObhdEmADbioEMFj0UOyWE9dEmADPiyE33NZkPXDPdYhWewanrGUI4uvsmChOthH0TCySgNCNVns58MrBiHWaBjHl/ofrOJaNVmcd7YeWUxUl6sK+z4dWcxdgOjiIRXQkcWKI34zraMeWZygLHZZMWeuEskim8s+LJWfQUFV7UIdWXzA4J9N+rrN7Bb1yOICLMhhMBBDDyWyzvhKxVuuyY4MU5ikgSylRnyWfF+PLOPvo5IlAbd+jT6w20SWYlzOXsZ6ZJnCo6vJwj1BxRAGbyBLOXGvPlnGyVxFFpKdlMHUeS1Z8tSyIMtERhVZ+OUz9CHLRbwyRJb8kAVZ0PcdflWy3tUDL3pReXIEpQ58U5WGkcXvt8UjZjIBn5b/CeWeVP+kfCzucUjXSJ6svXKkWF+OfIon4lELvyvWsxm1qA9ES86O/fSvmTqbDOh9os2pNMaz+JMTJykH2XyJ03RwRv5g8XWDrMkPJiOe+1UVYpFMT6vJ5LRL6qYaLuP9dNcslXOWfdlqtK989m0/Op27hC+t7rhDh/9+G3dkj6wn6AAAAABJRU5ErkJggg==;" vertex="1" parent="1">
          <mxGeometry x="351.0966717529297" y="410.53332138061523" width="107.14" height="60" as="geometry" />
        </mxCell>
        <mxCell id="e_KA3uBAL_2bLxz84az9-39" style="edgeStyle=orthogonalEdgeStyle;rounded=0;orthogonalLoop=1;jettySize=auto;html=1;" edge="1" parent="1" source="e_KA3uBAL_2bLxz84az9-40" target="e_KA3uBAL_2bLxz84az9-46">
          <mxGeometry relative="1" as="geometry">
            <Array as="points">
              <mxPoint x="899.6666717529297" y="818.5333213806152" />
              <mxPoint x="899.6666717529297" y="915.5333213806152" />
              <mxPoint x="847.6666717529297" y="915.5333213806152" />
            </Array>
          </mxGeometry>
        </mxCell>
        <mxCell id="e_KA3uBAL_2bLxz84az9-40" value="" style="shape=image;verticalLabelPosition=bottom;labelBackgroundColor=default;verticalAlign=top;aspect=fixed;imageAspect=0;image=data:image/png,/9j/4AAQSkZJRgABAQAAAQABAAD/2wCEAAMCAggICAgICAgIBggGCAYHBwYGCAgICAgGCAgICAgHCAgICAYICAgHCAgIBwoIBgcICQkJCAgLDQoIDQgICQgBAwQEBgUGCAYGCBAICAgKCAgICAgICAgICAgICAgICAgICAgICAgICAgICAgICAgICAgICAgICAgICAgICAgICP/AABEIAY0E9QMBIgACEQEDEQH/xAAeAAEAAQQDAQEAAAAAAAAAAAAACAEGBwkCBAUDCv/EAGgQAAEDAgICBxALDQUFBgMJAAABAgMEBRETBhIHCBQhIiMxCRUYMjM1QVFTVGFxc5KT0xZCQ1VydIGRlLPRFyQ0UmJjgoOhpLK01DajsbXDGXWiwcIlN2SE8PEmROFGdoalxMXS1eL/xAAcAQEAAQUBAQAAAAAAAAAAAAAABwECBQYIBAP/xABSEQABAgIDBw0MCAQFBQEAAAAAAgMBBAUREgYTFiExUVQVIjNBU3FykZOho7HRFCMyNVJhc4HB0uHwQkNjsrPT4uM0gpKiJDZig8MlVWTC8fP/2gAMAwEAAhEDEQA/ANqYAAAAAAAAAAAAAAAAAAAAAAAAAAAAAAAAAAAAAAAAAAAAAAAAAAAAAAAAAAAAAAAAAAAAAAAAAAAAAAAAAAAAAAAAAAAAAAAAAAAAAAAAAAAAAAAAAAAAAAAAAAAAAAAAAAAAAAAAAAAAAAAAAAAAAAAAAAAAAAAAAAAAAAAAAAAAAAAAAAAAAAAAAAAAAAAAAAAAAAAAAAAAAAAAAAAAAAAAAAAAAAAAAAAAAAAAAAAAAAAAAAAAAAAAAAAAAAAAAAAAAAAAAAAAAAAAAAAAAAAAAAAAAAAAAAAAAAAAAAAAAAAAAAAAAAAAAAAAAAAAAAAAAAAAAAAAAAAAAAAAAAAAAAAAAAAAAAAAAAAAAAAAAAAAAAAAAAAAAAAAAAAAAAAAAAAAAAAAAAAAAAAAAAAAAAAAAAAAAAAAAAAAAAAAAAAAAAAAAAAAAAAAAAAAAAAAAAAAAAAAAAAAAAAAAAAAAAAAAAAAAAAAAAAAAAAAAAAAAAAAAAAAAAAAAAAAAAAAAAAAAAAAAAAAAAAAAAAAAAAAAAAAAAAAAAAAAAAAAAAAAAAAAAAAAAAAAAAAAAAAAAAAAAAAAAAAAAAAAAAAAAAAAAAAAAAAAAAAAAAAAAAAAAAAAAAAAAAAAAAAAAAAAAAAAAAAAAAAAAAAAAAAAAAAAAAAAAAAAAAAAAAAAAAAAAAAAAAAAAAAAAAAAAAAAAAAAAAAAAAAAAAAAAAAAAAAAAAKAAqAAAAAAAAAAAAAAAAAAAAAAAAAAAAAAAAAAAAAAAAAAAAAAAAAAAAAAAAAAAAAAAAAAAAAAAAAAAAAACgAKgAAAAAAAAAAAAAAAAAAAAAAAAAAAAAAAAAAAAAAAAAAAAAAAAAAAAAAAAAAAAAAAAAAAAAAAAAAAAAAFACoKDEAqAAAAAAAAAAAAAAAAAAAAAAAAAAAAAAAAAAAAAAAAAAAAAAAAAAAAAAAAAAAAAAAAAAAUxAKgFACzr3sqWumkWGpuNDSzN1daCpq6eORPbb7HyI/fTtp4jqQbNlmc5Gtu1te566rWtrqZzld2kRJVNcGyrCxb5eVfGyRVvFVHjI3W4GvIWRe2RrBIuVCxcmCTWjYxrteSbLJCl7lEvS6X794aK6quY0R66WLcwpm9fWXv4m5JCp0bQ5VhiVVxVY48VX4Cf8AM7uJH0YVRqN6gVAKFCpUAAAAAAAAAAAAAAAAAAAAAAAAAAAAAAAAAAAAAAAAAAAAAAAAAAAAAAAAAAAAAAAAAAApiAVKDEYgGP8AZd2WqWyUa1tWkr2ZkUTIaZrHSSzSbyMjSSSCPHBHScdM1MGuXHkMOpt/7X73Xr6LTf1o5oIv/YtN2+elF9VUEKqlkvDw1/8A53V6f9Wb9QNAMT7CnHoxhUurFE0enKbekXUobs4zY9sK7Yiivy1TKWKqpn0GQssVdGyJ+rPmZb2akk+KLlv7KfZljAhPtAUXd16x5ci0Y/vBNbW/YavS0oiUm3GW46xGQ2OjJlUzLNvL8JcD6AoijExJlSoAAAAAAAAAAAAAAAAAAAAAAAAAAAAAAAAAAAAAAAAAAAAAAAAAAAAAAAAAAAAAAAAAAAAAPGrNK6aNysfUQRvTpmSTMa5vyKuJ8/ZxR990vp4fWF1mObmKVwPaVxFjTfbvNpa6soobZLV875n00k7qiKHWmZ0+ozUnVWI/e1lXw4dgkWum1H33S+nh/wD5msLZDkbJebu5jmubz4qpMWu4Ks15OGbPc9RrU5MKbfTrLFe3DH6jXKepByTlr4z4fGSWm5oDlprTWaZkTV4ckdZDI5re2keWiv8AkUl7DMjmo5ORUxQ09X6jVtPIrlTqEEfTe3zjb1Z+pRL2o4v4EPXdJRUvIRavKbFu3ljGOTfieW5+kXpxDino+BiyHplSiDE0s24qAUAKgAAAAAAAAAAAAAAAAAAAAAAAAAAAAAAAAAAAAAAAAAAAAAAAAAAAAAAAAHFRiWFsj7MVttLYn3GqbRpUK5sKOZJI6RY8NfVZEyWRUTFmL0TDhM7aY3JSpUakwr3spYpaU41F8uXA1vu25ekdQr546qkoonrO9lMtMx+pBH23yR5i/KSwft1NGMOujfold/TGtqw18KwIx8rYnZdVDquTu7//APBvVzVGodW73UzihCFV9hGEK8ddVfqNOp+kHGW09zrz13uNcTN9ftutKI1Ym76V6vljg4NHDwZH/qz79FjpNy88aTDhr+Bw+5vy3+5mEbxe4FdGrZWv+/IJnavtWRsy/wDoOw+vp1ard0M4STt5H+6TZhv2okhXsSTSdWaQsp16uTOUtxrZ6qsnllgWaoqXyzyOZwXVT+M4DI+pnS0hZPkPxkp1bqMc5sTNV2prn2o73AsszllaxM9kjXO9syNh173Xw5D2tma9zoYImtanc35hlIIbaaihGbEY+DjjkwhSk6+tv6s3D2bqMPk4/wCBDumBLbt0dGWxxtdc2orWRoqblrfxPixfGxzs62m7LIy31jKt8LUdJErJo5GtXkflzxwSOZj2URU+c56clnU1qUhUIVxxxhGrjyE5IfbVCFlR8dlHZ1ttmfTMuE6061z3thwY+TVZGnDmky9bLiRVZHjy4yJvYJKsd9265RysZLE9sscrGPjljdrtex++x7XouD2Ki44pypvmt7Z10iW46QXSV+L46KTnXBG/hZcdLwJ08UtRryp4HmSNpPskvpa51kle59LWsnqbej3a2TUx8ZPAz83LHmTJ2svHlllNnmLnlN0eidSqvbchiNcZp5tyfVJxJ1goilTTzawAAAAAAAAAAAAAAAAAAAAAAAAAAAAAAAAAAAAAAAAAAAAAAAAAAAAAAAAAAAAAdStr2RsfI9yNZGx73uXsMYmL1+QA7BEHb66TVUS2elgqaijirX3F1QlLIsTpMllPqI97Oxw3+A5LzQ+lXFYrVcZoseBNxTUc3t4YmB9srti2Xqe1vZQVVHzvW4Ytly3Olz2QdT8lk75t9EUTMJm2VPM97rrjXVkqj7ajV6TpFlUs6ll3XlgMusqo1d33PhJSu/DH+7vy4zq2q8VKq9H3C447onhZq1b+kjZmHXZXoiIiUtXwWwN6TuD8yM8+yXXfkVaeoerameRuWnS5jMvLeS13LL2k6xPJkXpmpmyrvquUO1pPM+WJEfVVtQjX0smXUzvlbxn5HdD7Ps8aa3HVfAz/AHbufVDz73csI0RKeoZv0rdaZODxfUz0H3JF1saWr4efrcDunVD7tNto1qUHwdcdWlKlLJS8z1o0jrL01HPemTa3a0rtZ3/zBN/E1k7W/bDsstVcXyUFVVbsjoo0ji1GujyMzp/SGe/9obTN332i4MY3p5MYeC350Ijpui5p6cecbatIz4iVKJn2G5Vptx3XkqNIL/FSwTVM7kihpY5Z5pHcjYY2K97/AJEQj3sHbcykutQlJUwOtdRUSSLQZr9aOph11y2a/Iyp1MOKd1XljXjEiTpbdLTxs2jVM6mXWgv9TbGNkVNV25ZmPrmP8C8Qz9pD+62pHxo1irG+LhQSRu1XRvj6nIw+tC0CmflnnFR18MTe/DKeWmae7gmGW/oL2Q2zawME7Cu2VoKq00NTcLhQ0VXLCrKiKrrKeGVZ4Hvgkk1JJIlZnLHnJvJgkmHYMv2DSWmqo8ymqIKuPHVzaWVkzNbta8aqn7TS3GlNqilUMkYwjizG4IdStNpMT2QCh8j6lQUABUFAAVBQAFQUABUFAAVBQAFQUABUFAAVBQAFQUABUFAAVAKAFQAAAAAAAAAAAAAAAAAAAAAAAccDg4j9tmNstNZJaOmpqRlbUVrJ5XLPLlRRwR9ntvXp13sMNRE90Qw10d1496qH6RIZqVoWbmkXxlq2jOYeZpWVl13t1ywvMRSttHFJGs0zFnllStnfLI9+s58b/b+ecrxo9Ajo0ZHqffUEDt9/CZIzMGjefko1KdkrW58es6XV4Ej+MOd+qajGFVgYxXVMDm6smtrT6nFk5oaQlpGs5iIlrcVML1+6fWfrOb7VSo1XbnTgpO7p3+5zZZ8aPR6nSSVro9dM9kLW67+CyRh6fH4Ybliw1Xt6v3R+ZJ/eHn22pqFknXIY9c5jnNdJq6r9Q+thMFJqR0Z5ErcilVa+k/18M694tUGS9zIkjc2NkzXa73dUflm4ezN4qLycf8CGn3SF8yQPxp2RN1GNdI2TW1Wa5Kak2894axjUtdFwWsbwqh/4ho901GzE6prudNuxWbjc9SDMohzuh3w47pfCdpFbbJ7aWotdfT0Ntigq54WbpuDahMG5D96OkY9kiLHLL1XFU72wzUWZE9Ta3baee81s1BV0cdHNDSrWslp5s2J0GcyHLVvKkmL8eXDe5CKGyFc31F7vk0q6z+edTTIv5mkfkQR+jYw1ehKEvs9GXmk1WERjGBsVMUxeJLuiXV4eQn3sM7NNJfKRtTTOdG+N2VVUknVaefucnJixd9Y5UTCVO0qSRpkdE+U1s7A2yjHZLzHPUTbnobhDNBXq5JnNbJGzMgn1I8deTM4nHI90lJbWvbnaMyvbGy6MRz11UWanrIW/LJLTwxs+VyGOpah3JSYW22hS0bUbMY4vnmPdRdKNzsuh1UbCtuETOoPMs17hqI2zQSx1MMqazJ4JGSxPTtsfGqo9PEelrGv1GergVBTEYlBWVBTEYgVlQUxGIFZUFMRiBWVBTEYgVlQUxGIFZUFMRiBWVBTEYgVlQUxGIFZUFMRiBWVBTEYgVlQU1hiCpUFCoAAAAAAAAAAAAAAABwUglt+W43a17yLq0Fa5N78szptxNkusttrhdQyJTzV1fS0O6sNZ0MT2TyPexO6cTlJ2tcgffLdVVUjJam411XJEmDJamd8zo2fiMzOpm+XL0W668mbT4DccfEaTdHSjDDSpZXhryHSh1lVqK1MFWDW4DPdGcYeVZ8Ug4DU6S4u6TW4cb+LPV9jD++qj5z5U2hjmJqsqZ2J+K1SXbCiKUutWfDOvfocXRI5qYNrYGt3vaakf+ofZ8z9RV1d/Uqvc2e5zZcf92cqnQxX6uvUzrqO1m6y9K8+vsYf31UfOLKvJEXWrKU2zpUEOE0+q1PwljXcD2mode/ay08ms1OowO6TV4ecehDoYrVc5tTOivXWc5q9MKnQ9z2qx9TO9ruma5wvarNmwXQfatpVb3M7LGLro3VTUzmN6RnSblzPrDNm0RVef8quTVc6wvc/g6vD3bSGEGaKvRMN1VHnHCHQ9Uesm6qlr3Jlukjk1XOZ3PyZjaTkFzcutmHe7fmPdR1INScwl1S7dgyLs1aOLQaQXSnfjq1s77pTyOTVzGVXGSankZNeH9WW02NzZIpo5ZaaanV7op6aZ8EjMxmXJqPj43qZ5ln0YhgVVjZwndNI7hOPPqdIZ3TSR08bJGwajXySO1dV56pWXvEohh/vn1WTFxGPnH+6JxczL97Lyi0sro9ZzLlc4VdwnvZcqxvn8YS72m2nd2uNHVVdxqFq6d8+VbXyRQxSuZBrsneqxRQRyM19SJJERcZYpuQghNo9UTrhUytSNq9QptfhfDfIXbTVb2Naxj3MaxNVrWrqtaww9KUCifRZaQlj7W94+uBmKOp9ciq04pT/+53s2oZidtBmJ20NWnPWXusnnvHPWXusnnvNWwHXpHRfuGwYdJ0fpf0G0vMTtoMxO2hq056y91k89456y91k894wHXpHRfuDDpOj9J+g2l5idtBmJ20NWnPWXusnnvHPWXusnnvGA69I6L9wYdJ0fpP0G0vMTtoMxO2hq056y91k89456y91k894wHXpHRfuDDpOj9J+g2l5idtBmJ20NWnPWXusnnvHPWXusnnvGA69I6L9wYdJ0fpP0G0vMTtoMxO2hq056y91k89456y91k894wHXpHRfuDDpOj9J+g2l5idtBmJ20NWnPWXusnnvHPWXusnnvGA69I6L9wYdJ0fpP0G0vMTtoMxO2hq056y91k89456y91k894wHXpHRfuDDpOj9J+g2l5idtBmJ20NWnPWXusnnvHPWXusnnvGA69I6L9wYdJ0fpP0G0vMTtoMxO2hq056y91k89456y91k894wHXpHRfuDDpOj9J+g2l5idtBmJ20NWnPWXusnnvHPWXusnnvGA69I6L9wYdJ0fpP0G0vMTtoMxO2hq056y91k894ZeJkVFSWRFbwtZr3jAdekdF+4MOk6P0n6DaVrBVNcGjezbdaVUyq2ZUTey5350eHga/PVPkJFbF229hnc2G4MSjkXBqVTF+9nO3+nx4yBeRMVzY+yrouQ16kLlZyVTahC+Izt1xjxZeIz1H3WSk2q9r7yvM52kmQfGKVHIjmqiou+ip2T7GoZDdYRryAAAqAAAAAAAAAAAAACgBxLd2Ql+8K74pWfUvLhVTVlsqRbuu93kq3OqnwXO4UkeY56alNBNIyGBmG9lxR7/AIzOUPRSqRfvaVWLGPHjMJS1Jpo9m+KTb2iyNHoXrTR6jt7J1eXV4eedisxSem116aeqc3f9pqHb9hFL3JPnePYRS9yT53k/waXBMIZiC1TTSlLVrvrPq90/nKQ00qIzFy4tZRNdw/bxv4/+7PP0eY5VkVi7zayqc/VX2mpxf95lno+wil7knzvHsIpe5J87xelnzhMtQSpPl/Z/rPMvbJEiTMd2aJvCXW4cfVD0pqaVdfBy8LdWrw+6dTK+wil7knzvHsIpe5J87yt6UO6WrP7f6zzqbWWepRq8L/s7s9z6odi8QvSGVXLwcq4a3C7o/iP7s7PsIpe5J87x7CKXuSfO8tiys+kJpqCkK12L7P8A0WPLM67KGy9Za3RGgod3sbcbbR2WaCnWOpx3ZT0zI3skSOnVMFjfNEi70WasXGIYcttZmxsfgqa6a2q469Ho3TxriyJjV/GcmsdfS28OijRGdVleyOJv5chjqMoyFHIXZXWiMb7jq4sUIHupSktVFtJsVLgcvYlTIqrktXW/G4R9dDKtlNc6VKSpfapc5jqm4UyzOyKWN/GI+NmeknkqiDJm91PN9jdQ5cJKx6s9s2KNkbvPPWtVkjgarY26ut0zumc7yh6n5SE02ttSLCI7dUKzxMTy5ZVtLttebvl7NhvRSWLv791q/UDopLF39+61fqCAQNRwKk90Xxt+4bFhpOeQj+/3yfvRSWLv791q/UDopLF39+61fqCAQGBUlui+Nv8ALK4aznkI/v8AfJ+9FJYu/v3Wr9QOiksXf37rV+oIBAYFSW6L42/yxhrOeQj+/wB8n70Uli7+/dav1A6KSxd/futX6ggEBgVJbovjb/LGGs55CP7/AHyfvRSWLv791q/UDopLF39+61fqCAQGBUlui+Nv8sYaznkI/v8AfJ+9FJYu/v3Wr9QOiksXf37rV+oIBAYFSW6L42/yxhrOeQj+/wB8n70Uli7+/dav1A6KSxd/futX6ggEBgVJbovjb/LGGs55CP7/AHyfvRSWLv791q/UDopLF39+61fqCAQGBUlui+Nv8sYaznkI/v8AfJ+9FJYu/v3Wr9QOiksXf37rV+oIBAYFSW6L42/yxhrOeQj+/wB8n70Uli7+/dav1A6KSxd/futX6ggEBgVJbovjb/LGGs55CP7/AHyfvRSWLv791q/UDopLF39+61fqCAQGBUlui+Nv8sYaznkI/v8AfJ+9FJYu/v3Wr9QOiksXf37rV+oIBAYFSW6L42/yxhrOeQj+/wB82E2nbHWWZcG18TV5MJ2ywJ/fshQyBb7lHM1HxvbKx3Svjcjmr+kmKGrY9zRHTmsoX5lJO+nd7ZrF4Mnw2dSk/XngmriU2a5Z6vzO9sIew98pduu1/iGuT+Js5UYmBNg7bNx3BW0tWjaasXgsc3qM/k1XpJO3Eq4+Mz2ikbTkk7JuRaeTYX59vzwzwJMkp1mcbvrKraeo5gA8RkAAAAAAAAAAAAAAUABxKYkZtvvdJGWiliZI6NlbdKOmqUY7VzaV8NU/Levc1kjjVfgHplpdUw6hlP04whx4jzTD6WW1OK+hjMR7eu6RS3W25cscmFFWsXUex2q/X+UwBDTKitVVbg1YOyz3NkmYfX2GUvcW/O8ewyl7i353nQFGUaqSl0s27dj2kD0pSbM5MKe1yPnhni2aHXg4Kt6ncY+m9vI+PLPvfsEfGqubw62CRvC9pqRxnp+wyl7i353j2GUvcW/O8yF7VZsni7rZt2td8/znSfQO1Vbi3FzKpvTs90mzIz5UGDpp8HN4NSx3L7TUPS9hlL3FvzvHsMpe4t+d5fe1FvdLNlXhcn+s8K/Uytp5MVb1CCPl9vnntMh4xH6zdXOzOX2m5cv6w5+wyl7i353j2GUvcW/O8XpRRUyypNnXcn+s6eiOmM1vrWPiqlon8744Hysmy/bx8Xr/AKB87PpAstbVrruqd1SPnfO7Xdx7+n13/npNc9Nmh9Ki45LT0qamYxNVjUYn4rU1TztysEu33bz7dRc9OpW3Y13/ABiama7DWai6vS6yHVus0MbFdKjdRv4ydMZG2C9r3UaQpWVLa91spKWeOlhcyBk+e9jNebezIFjytdmG9yvw9yJFaNbQ2zRqj6p1ZdZMOmq6hWxtf+RHTpT/AN/nGvT11EnLuKbqvi0YshsMjcvOPJQ5Fd7RmrIa7FGl9dRxzOpqiehiq5c5tNBI9re0smp3TDe/QiL8+7LdvfGr9M4mF0KNk72f9In9YOhRsne0n0if1hhI3S0VHGqX6JrtMm5c7S0VVpeTyjhD77tF298av07x92i7e+NX6d5MHoULJ3s/6RP6wdChZe9n/SJ/WF+ElE6L0TRZg3S+kdK4Q++7RdvfGr9O8fdou3vjV+neTB6FCy97P+kT+sHQoWXvZ/0if1gwkonReiaGDdL6T0rhD77tF298av07x92i7e+NX6d5MHoULL3s/wCkT+sHQoWXvZ/0if1gwkonReiaGDdL6T0rhD77tF298av07x92i7e+NX6d5MHoULL3s/6RP6wdChZe9n/SJ/WDCSidF6JoYN0vpPSuEPvu0Xb3xq/TvH3aLt741fp3kwehQsvez/pE/rB0KFl72f8ASJ/WDCSidF6JoYN0vpPSuEPvu0Xb3xq/TvH3aLt741fp3kwehQsvez/pE/rB0KFl72f9In9YMJKJ0Xomhg3S+k9K4Q++7RdvfGr9O8fdou3vjV+neTB6FCy97P8ApE/rB0KFl72f9In9YMJKJ0Xomhg3S+k9K4Q++7RdvfGr9O8fdou3vjV+neTB6FCy97P+kT+sHQoWXvZ/0if1gwkonReiaGDdL6T0rhD77tF298av07x92i7e+NX6d5MHoULL3s/6RP6wdChZe9n/AEif1gwkonReiaGDdL6T0rhD77tF298av07x92i7e+NX6d5MHoULL3s/6RP6wdChZe9n/SJ/WDCSidF6JoYN0vpPSuEPvu0Xb3xq/TvH3aLt741fp3kwehQsvez/AKRP6wdChZO9n/SJ/WDCSidF6JoYN0vpPSuEPmbNV3TBUuFV+lK9xdmjm2uvEC8OaOsantKiNn8ceRJ86KSPl2plkcmCQSs8KTzf9aqWBpdtJ2KiuoatzHYb0NYiua5e1nRpxfoZfEVTTFBzGsWzY87jUP8AjxliqGpuW1zb1v0bn5hdexrtsqGsVsVV/wBnTLwWrKutA5297smCM7PVsE/LUzzG9F30XeNY+mOg1Xb5Vhq4XQP9q5eE2Rn47H+6GVtgLbFy0DmUtW5ZqJy6rVdvupfy2L3L816P89j6UuWbU13TRy75DLFrLi+zjt7xkqLuocQ53NSCL3Had/MJzg6tLVNe1rmORzXpi1zV1muadojSMKsUSToRrxwAAKFQAAAAAAAACMe3+tr3Wanlaiq2hulBUyr2o9SeBF9JOwiGbENn3QPnnZrjRo1XyT0z3QMaurrVUOE1O3Hy8bDW/o9cs2GN/ZcnC+H7oS9cTMQUw6z5C4R4/wD4RFdrLKttPHoAAkojEAyvscWzCnppKe2QXx89XNT3OKd+rJS0mozIkZmdQjlke+aWpyfaLF2sMfaZUcMdXUspnZkEU8zYX462tDr8Dh+6GJl6SS++thKNj296NW/DzV5YY4bdWVmaPizLtTCl+HtHkgAyxigAcHvREVVXBGgrUefpDeEghe9eVvBY38Z58tFbOsMKNd1R65kvw5DzKPGrnSVUXc9KvFfnJ+6f+vXF1nmTrlWj2vd5bvUPD+sAAPSY8AAAAAAAAAAAAAAAAAAAAAAAAAAAAAAAAAAAAAAAkJtZtnl9NIy31b1fTzKyOmleqcTN3Pk6hLyp3Lk7O9M9qpy9s1WGwDa7afrX22J8jtaanVaeZy+2ezpX/rY3Md8pD111EJZjCbayObLCEMis/r6yYLkaXU7XKPZUbHHzGWAARwSaAAAAAAAAAAAAAAAfNzTWNsp2Xc1+vdOqoqur31vB/Ermbr/6zZ1iQZ28Oha01zormxMIblCtBUua3pa2DjIJHv8Ax5o+JTwU6G4XKzMGJ5EFZHIXvjNRunllPyK7P0O+cRhAAE8EBg+tTQPj1ddjo9dus3MTV1mHraD3aGnrKaadmbDDPC+SPV18WMfy5ZeWnGlyvoFpqi4x32d1a+opalsM0UlNSv19dkj597MlR7E3LBxUOX5ExMxNutTKGks3xDmV3Hi5owxeeMPNWZViTZdl3XlO2Fo+qMZAAyxiQAAVBa9B981LpumipeLi/Kn90kOWkNydI7csK6sj042TuMHrD26CgbGxsbEwaxuq082yKPdsDdr6a/wztgA9JjgAAAAAAAAAAAAAAUAABUAAAAAAAAAAAAAAAAAAAAAMeqKjmqrVaus1zfak59rTsxLcqbJndjV0SMbI5fdYV6SblThr7om/guHdEIMF8bCemi0NzpZ8cGPkZBN5GfgP9CvHfqzV7oqLTPSq1fWN42s8c8PWbRc/SipGZR5DmJ02QA4sXeORz+dCQAABUAAAAAAAAAFFKlFAOGBHDb52HMsOfjq87K6grF/KxfuXD95/YSQLT2TNDGXG31lC/VRKymngRz26zWSPYuXJh2cqTUl/QPVJv3l5DnkLhHnPLNNXxpbflwjA1rcoPMsmujFimasc9G99NURSdNHPBxckbz0zpplaXUQWk5mmGlNurbV9AHYpqB8mtqMdJqN1nZaa2qw65k/QjTBY6ekZT3JLJLR1s1RVa8M0kddSyMYxjOAybMkh4XFS8Vw83tYeGkJtyXbtNIvkcm3i4oRjzHqkJZuYdsOO3tBjAHsaY3OKerqZYWZUU08z449XUwa9/AX5Txz2sritEFqhVHNm8x4XU2F2UgAH1LAfGShnqHw0dKxZKq4SMpqeNv47/dH9zjhj46WX3E419eyNqyPdqtaSz2oOwE+mRbzcItStq2YUVK9OHR0T/bvx3mVE6cuKZsMPFYtWWaI1mnaVTIS8Y/TXsRtVz9Eqnn4RV4CNkM97E+x9DarfS0EO+yjiRjn4YZky4vmmXwzSvfKvheXhgECqc/qUpSoqjljj4yfkpgiFmGSBXAqUKlpcChUAFAVABQFQAUBUAFAVABQFQAUBUAFAVABQFQAUBUAFAVKAAqCmIBa+negdNcYHU9SxJWOxwd7dj/x2PwxY9O2hr62T9jma11bqaXht6pDPhwZYfaOXl30XeXwmyrHEwdtrtAEqrctQ1vHW7GdF/GhTqzPFhxvjjQ3G5ql1ScwlpUe8uRhCMM0Y4oR7eM0i6eh0zcup5EO+ohXCOeBZ+1A2Ulka+2Tu1nQok1I53cU6eD9V08fbTMT3ElCimszY50rdQ11JVIuqlPMxz/yoOpvZ6PXNl8M2OC9tMS+6yj0y01fEeA/WqHD+l1wj6y25OkFTEpeV+Gzi/k2jsAA0s3kAAAAAAAFACmBri2zmxi6x3KWoRjudl4lknikYnBgrXrrzUvFomXjw5osEwyscMcmZTY4qlt6b6C01xppqOsibUQVDdV7HJ49V7FxVWPj3lR6dlPkMtRVIuSD9+R64Z4GKpOQbn2FMuGsCmr3SLqxU9XUP7nFSTOd9WZL0F2uF9uKt+9Vs1OvTVVzbqy6n5uk6rmeXyYiQVHbNItHm5dO32WWuFUyonvSG60sGK4R5iplVccXJjhm4rgkcUaJh7Fu251o1kir0rLHUYJjS3akmieidvi2TIieWWPHtG7zN1E69D/DITD0ffI8nHHCO/A0+WuXkmY2nbX+4RD010Nmt9TJSzphJGvBk1eDKz2k7O0yXkVOweITR2SNLNGL1AjJbvbY3x8KGo3XTRyxv3+6SJrsVeWNcUX9qRF07s1PRPwbcbdXxL0ktFW00nnwRyZjPGmKG2ULTiZpF7fhe3/PCMK97FzGj0zQTkq5aYjfGc1eQ8gFvVmnNKxN+VHL+K1NY+HskqJFVsFM5n56p4trf1fun6g2q/INcTKu/STY9IXFU1jGNV73Ixremc4td8z65dVmMNK13Ck9tN8D82dmHRJXuSSqfulzelh1dWJv6v3QuJjERME3kPnZU54XgH0vjbPga9ZwpqZrGoxiIjWJqta0+wB6TwgAAsPrQUb5HsjY1XvleyNkbemc+TqcZMbY62otDHAi3Bi1lQ9MXo2WaOOPk4DMuSHWw5MxyYr4CNOwfT613t6f+Khd6PjCT+3F0klgt8LInujSqn1JctdVzo2MWTLx8OBHl0UzMrmpeQl13u39ZCMYR44Y6oVbWUkK52Wlkyr89MIvlj6su9m1usbUwShZh4Zp3f4yqfTocrH3jH6Sb1hr4e/FcVBbgxO/9wV0v5h9MJpP/ALeno/yzYP0OVj7xj9JL6w60u1ksT99aFE+DUVLf4J0IAnKGpc1cWuVi/jNXVKYNTv8A3BXS/mlMJpH6VHp6P8smrprtSLdNA9KJjqKoRFdE/OmkjV34j2PfNxfgiw+2GV3tEkEskEzVjlhe9j2L7V7CQ21X2bXxTJbquRXxVC/e0sr0dqTdx+BL2PzvlkL52ye1/fXubV0TWuqkTLmhVWR57MOA/XemXmQ9t3LH5NqHnkKQmKKnIydIO2217G67GMas0a414o5I48UfNjPtO0fL0rKQm6PbsOI2RpurHxeyBDYGUuhfvveC/SaT+oHQvX3vBfpNJ/UG76sSOko5Vs0zUie0dfJuGLQZS6F6+94L9JpP6gdC9fe8F+k0n9QNWJHSUcq2NSJ7R18m4YtBlLoXr73gv0mk/qB0L197wX6TSf1A1YkdJRyrY1IntHXybhi0GUuhevveC/SaT+oHQvX3vBfpNJ/UDViR0lHKtjUid0dfJuGLQZS6F6+94L9JpP6g+Mu1ovjeWgd8k1M76uQrClpGOSYRyrZ89SJ3R1cm4YzB6ekmi1TRyZVTDJTvw1mpImrrM/I7oeYZJtxDiLaI1wzwxmOWhSFWVwqAAPoWAAAAAAoCTe0huypNXwKvTx00zU+A6Rkn8cZGQkPtJ+uFV8U/1mGsXTJtUa7HNV+IbRc2pSaRY9ZNBCpQqc/HQwAAAAAAAAAAAAAABwLA2Zdi+C82+ehm4CTprQzo3WfBUsxy52Y9pd5U3s2JZI1VElUyAhVS5K4oVBSdrIfNaILTZVtmrC27H143dLaXUkctfSp0j6uGmz2d3g3RufdEfu3EGTbFtPtIahUzdxWpntnPlWplb8CONMr+/JebLGwpQXiNjaqNySwKr6Wupn5VXTSb668EyY4eTlRYlx30XBDHsOjOl1sRW01XQ6T08beAy5I+kuC/kJMzGF6/naiXE3rCidcbspWltWTJGEfU5X11Gn4NSTbltTVv58gsfSXaVMpaBz6SeeuuDF15ZJ3arZ2JyxwwdSiw9y7CdsjVU0zmucx7VY5i6rmuTVc15K/SXbmzW6VlPdrBXUU0kccyNop6avajHvkZr68erGnSP5TFWyps6aPXRVmW3XujqsPwiCjpna6fnmJW8NPAuVN4UM9QVKTzWKaQp1tzI7DvtXFXXDex75rNP0TKPRtyy0tuIytbHWYjBb9TpaqvVsVLVPTHedLDka3w+rxR+nPi+sr5MUbFDTflSv1vqyRb+n6JHXcjifCso/3C45pmtRXOVERvTOcWvU6QvnVY6RFwx1X1bk4LfJ/nD6s0M13a9TK+qVq8GPpYvMLghha1Ea1EY1qarWtTgtGvV/oL7TTPg69fRnSslhZA1WtxVzuE+R3TSPPTAPslKU61J4FKUpVpQABeWgAAAAAAAzJsWbWCtuCNlm+8KZeEj5Wca9n5EHb/ADk+/wCWPDOT7Emi+PLsJzbcd6GWJ75ORem13tlFtXMYbPfsGgFdVYLT0lRUNd7pFC9zPSdSJy6E7XW10KIsdOlTKifhFYqTPx8GKJGz9RE0yeyJE5N4jubu2hCNmWaxZ3Y+yHaSFKXEKVrph2x5mjX/AEu1dvjkx3Gkaflz06f4SKdh+1TvaYruVi/kpUResJ+AwuGc95KOJz8wzuBcl5Suj/LNcd42BbxAirJb6hUTuCMm/l88sappnscrHsdG5vTRyJquabUsv/0pb2keglHVpq1NNFUonJmsa5W/Ad07PGiop7pe7Z2Ee/tQjDO3ijxRr64GNmbiG6v8O7VH7TGazASz2R9ppE5HSWyVYXdNuWpXWjVe0ybqrPHNnkYNJtE6mjldBVQvppWe1enTflsf7pH+dgJBo+mpWfT3pdS9yjsnx9RH1IUNNSCu/I1m6/VnlgAzphAAAAAAAAAAAAAAAAAC1WSO9EuTlhvwNoWjdYskEL15ZIoXu8b2Ip6h42iP4JTeQpv4GHsnLjvhr349Z1GzsaN6HUcgAWHoAAAAAAAAAAAABQqUAIL7cfYQlo55b9QxpLDUanPOka3qcqbzK5mX7nKvVu1KqSb+bMsWP9E9ge/10cctPSUiwTJrMq1uFNJE5n/l8+RfkNkD4kVFa5NZHJgqL2TAV62sstJM+q0cr3WGSRz5Jba5mdbJ3rjvZH/y/axhSVIk6lFFv47fI3STLDPc6V2bGSMYVwqzRq6+POanO3PS0w9flotmOtC9olK9Wuu9ejme2obU18bHL+XVSca6PwNhhMbbNOw9LaahWo1z6SVfvao/I7g/8uLlReyhlrSPbY3i0VLqK62mmrJGMjkdVWirfHGrH/iR1EayKqeHK5D3bbtoae7U8sbtHrzWxdTmjgpoKhiP7SqtTD+wy8pSdKSzkJt5N8YXvVVR20ecw87RdGzSO5ZdSUPozZd5wiIDImmexnO+TWttmv6NevUK+ihiaz4EzKn6+FfKnXtu1v0kmVqNtSUzXe61dZTNa34bI5KiX+4N/bp6RUi2p29+aOXeI9Xc7PwcspaLDOjU3VGvZExr6molVkcVJTNzJ5Hv6nGxkZ5eynHJaaqeC6TKsdCrG1UdqXU18yOPgQzyRTy+3ZywGfNrrtjbDQOYynsy0e6WKi3PdUNRUv3o9d9RJU7i1GakazSx082GYzi4HLIfGkqXdZYU6wzfO93yvvdUG9pzdOKES+Qothx1Lc07Y75e9jXskPq7diwXxtdtqS9XxXO9sTNY5ktHaMFcyD8Seq7pUfm/ck6pj1KGYSEd27dazrq/hKa2pg17aZm9I7gY69SmpizjlztXJ3opcmWSKF3kzbfe0MXBKa5PRMMJEhptVzEw4eD6xJETe5JkSTwEKKem6WeVGEIuLzQhHFvQJnSuSotpKYLS2jfgSfxGJGBnNBbQvJSXNf1NN/WFP9oPaMcNyXP0NN/WHo1Cn9HX/TEs1fo/SE8ZKDEYkYH80FtCctJc0/U039YP9oLaMMdyXP0NN/WDUKf0df8ATEav0fpCeMk/iMSL7OaC2hVwSkuePkab+sD+aC2hOWkufoab+sGoU/o6/wCmI1fo/SE8ZKDEYkYv9oFae9Ln6Gm/rDgzmgtoXkpLmv6mm/rBqFP6Ov8ApiNX6P0hPGSgxGJF/wD2gto5NyXP0NN/WFX80CtCctLck/U0/wDVDUKf0df9MSmr9H6QnjJP4jEjB/tA7ThjuS5YeRp/6oM5oHaVXBKW5Y+Rp/6oahT+jr/piW4QUfpCST+IxIvP5oJaE5aW5ehpv6o5f7QO0963L0NP/VDUKf0df9MRhBR+kJJP4jEjAzmgdpXkpbkv6mn/AKof7Qa0d63P0NP/AFg1Cn9HX/TEYQUfpCST+IxIwv5oLaE5aW5J+ppv6sf7QK0KmO5Ln6Gm/rBqFP6Ov+mIwgo/SE8ZJ7EYkYU5oLaFXDctyx8jTf1gfzQW0Jy0tyT9TTf1Y1Cn9HX/AExGEFH6QnjJPYjEjF/tArThjuS5ehpv6wozmgdoXkpbmv6mm/qxqFP6Ov8ApiMIKP0hPGSexGJGH/aCWjvW5eipv6wP5oHaE5aW5ehpv6wahT+jr/piMIKP0hPGSeKOUjEnNAbSqYpSXLDyNN/Vn2tW3ptEz1asNdDqsfIr5mUrWcm9H+F8ZJI7FESFF5dbqaSyJ53aInWEKcWyuCU5dbE+rVNyDy7CH02t8ku1SjiPtXtzLMzpln5Z8dTc7tVkbOG9dSpXFNdcmPKxlnXfiSWPjTE915pVFFqq+1KiSSMjZjWa2Ln+TpJj4yUhMTtq8txjZy197/EsH1mqWlZazfXfDyXuEXPw7ZNtEPI0rt7Zaaoid0ssEzHfBex7TFW142xfP9atNyLRLQ7mXq+dmZ+f+ag1MEh7OOOv2DMF1TipPJyfwKWuS7stMXp5NhaIwrhixZI7XmPu3MtTcvF1pVtC4RqNW5s20FqVfRUb3dNJS0znfDdExf8AE1kmzLY5630PxSj+pYSTdtsctvOewja4rZZn+T2lzAAioloAAAAAAAAAAAA4OLL2ZIUdabmioiotBX4oqf8AhpC9HFn7MHWq5fEa7+XkPtL7K3w4dZ45vYneBHqNY7NG6ZOSngT9WwP0ep15YIfRsPTB04lpNUMRzMqYcrjrzr0dAyNNVkbY0/FjTVOwAfU+Sl2gACpYAAAAAChfuwH15t/l2/Vkhdu5+A0Xxp/1EhHrYD682/y7fqyQ+3ZZ94Ua9qrw/uJCOaW8dyu975I1E+JJz58gh2ACRa6iOoQrAAKWoZ+cusxzcwY9UVFRcFb7ZpI3QnbjzQQNiq6fdj40wSoZNqOkbvYa7Mvefvb703l+fGOQMVP0bKz0IQmE26skYRqjD1wxmVkqQmZCNcuqxXlxewln0csXvdJ9IZ6sdHNF73SfSGerImAw2C1G7n0znaZrCilN06JBLPo5ove6T6Qz1Y6OaL3uk+kM9WRMAwWo3c+mc7RhRSm6dEgln0c0XvdJ9IZ6sdHNF73SfSGerImAYLUbufTOdowopTdOiQS5h28NOvTUMzV/JlY7/oQ+3RvUveU/pIyIALMFaN3PpXO0rhVSW6dEgl/0btL3lP6SMRbd6kVUxoqhqdlzXwu/5kQAWxuWo2rwelX2n0hdVSVfhdEgn7sy6OU90s0kyIj8KZ9bSTI1NZvFZrFTtZjOLXwKpAI2B6KQK/RyFi7yutLY+T/wyMNfhjrj1qTCYZt6xC8UOOGLiPfdchKoy71jXrbxgAEjEdAAAAAAAkNtJ+uFV8U/1WEeSQ20n64VXxT/AFWGuXSeLX/V1mx3PeMWOHHqJooVKIVOejooxbtiNn6j0atkl1r46mangkgidHQMhkn1536jMGTy08eCLyrm/IRTh5tFosqom4b81FXDWWlt+q35rl/yLy5rb/Yur+O2v68gZsG7aPQah0Zhtl00Y57XiOK4MmuHO62cbJPU1EkH/aL6hK6PJp3wxZiQa0WXvYpgAbbNgnbFWjSOmWrtVW2rjjflzRKx8U8EnKjJoZMJGb2CpJhlyb+CqY/2MdvLabtpDWaNU9NcY662SXOKeepjpm0ivoZ8ifLkjrZ5VRZOpYwIqp3IixzGHYoqoILrdpHRpT3DcVJTxxTMkVz4MySR8jI5Fy8pJGR5c6JLjm7ydmwtph/3taR/HtNP8xeAbI9sVtgaPRm2PulfFVT08UsEDo6BkMk+vO/UZg2eWnjwTs4y/IdDY/2ylBctHHaTQQ1cdvbS3St3POyJtXk259QyduXHUTxZirSyZSJPgqKzFYt/DCHNdP7G1Hx62fXFu7VH/ugk/wByaa/zV3AM/wC1d229u0tp6qptsFbTsoJmQStuUcEb3SPZrpqbnqa5NTDlxVDwdgzbyWnSC8V1koqa4w1VqjrJppqyGmZTKylqoaSTLfHWVEjuNnYqIsMfF48mCEbOYi9ab3/vGl/lkMX8zB/7wtJviWkP+d28A27EItkfms+jtruFdbaiivUs9rqqqinfT09C6J01PI+N7o3SXGCRWYsXfWFu92OTGbpp02vWhNHcNlW/01fR0txp3V2lb3U1fTw1MOuyqfqPy545o9dOwuG9v+IAm1sJc0t0Wvc8dLFUz2ypqH6kNNeYmU+a9VRkcbJo5aimzJlXCKJZ82RcEROwSxNXvNTdpvZaO0JfLXQwWiekqaWCqht8TIKaelm4rfgjwijkhly1SSCJFckkqSZuESwy12gGylPeNE7TV1TnS1DI56OeV6q50i0kz6eOR7135JJYo45ZZV31lWQAkaUKgAhFt0eu0PxCD+YqjAhnvbo9dofiEH8xVGBDoa53xfL8CP3onOd0Ef8AHv8ADh1QAANiNeAAAAAAAAAAAAB9aCgfI9kcbHSSSuy2MjTWc5/c2HyJlbWTYKSkjbX1TPvuZNaGN7cVpoX9jsYPl5V5ctN7exlxwNM0q3RzNtWNyOxQ+drOZ6iKLcpGYsJ8D60psF7WOOk1KqvY2eq3nshXhR0yr2sd58idtUwjx3sVTMWRbW+DA5YnFSAp2eenHIuvLrjHm80M0PmJPklIMyTcGmU1H0BQHiMmVAKAFQCmIBwwLT2QdjikuUKw1UaPT2j03pI3/jsfyoqeD9pdqoURC9txTaoLbVYXDJGEcZ8HWkOpvbibaY7UTXRsv7DVRaZtWTjaeVfveqRvBf8Am39zk/NpvKWEbNtMNE4a6nkpqhiSRTN1XJ7Zq7+q5i4Lg9O3/wCl157J+x5Na6t9NLvonCgnVODLD7R6+FF3l8JNlzt0Hdybw/syMn2sO0g+6SgO4VX5nYV9EWqADeTSQAAAAAAAAAAAAAC1WSO9EuTlhvwNnmiX4JTeQpvq2HtHi6JfglN5Cm+rYe0cvO7Ivfj1nUjOxo3odRyMW7YjZ+o9GrZJda+Opmp4JIInR0DIZJ9ed+ozBk8tPHgi8q5vyGUiGfNbf7F1fx21/XnyPuWhbubM6Kve1rqS+wNcuDpZqSic1ifjvSK5TyYeRiVd8l/sS7L1uvlFHX2upbX0siuZmM12uZMzffDLHIiSRyJi3GObB2DkXDBUx1MbF2y7sfQ6DNorrSUlZpDue7sc2ntb23DdUlVVvoZOeu54Y+JifTr+G8XFhHlrl5RIDmLWiNbBabtVzNfHRXCrpUotbFEkkgZIyqnYmHScOCLNRcFWORPclAJJ7Am3ktOkV2rrPRU9xgqbXHVSzy10VNHCscFQylky3x1lRKvGyMwRYY97f3uQurbO7Zqg0UoIrjcIauohqKyKgjZbo4ZJEnfBUTo97J6iiZl6lM/Fc1VRdTeXlTXtzLH+3Wk3xS7/AOb0hm/m1H9lrf8A7/ov8vugBKFu2YoV0b9lCRVXO/cXPDI1Id17n/E1N0ZWZ4N0YeExztaOaDWLSmtkoKGOvo6mKB9Uxt0ipY0mYxyMkSDIrK1Xvj19bLVE4vFUxRFwxhTf9zq//dt//M1xaK6DV9ktOj+m9sVzVp7hVUtU7hObHWQTSZOum9971tM99HImOHFqnuwBur2zu2aoNFKCK43CGrqIaisioI2W6OGSRJ3wVE6PeyeoomZepTPxXNVUXU3l5Uv3Y801judvobjC2SOG60lJXQR1CMbK2CqhZPGyRkck0aSZb2qqNmkRFx317OvHmneyvS3zQKx3ajXGC4Xi3yozFHOilS3Xdk1O9U90gla+GTHssUnBtTf7LaNf7g0e/wAvpwDK4AABRSpRQCCG2768v8hTfwqZT2j/AOC1vl4vqzFm2768v8hTfwqZT2j/AOC1vl4vqyWaR/y+3wGeuBEFG+P3uG71EnMAVKETEvmrvbbWtF0iuqaztVZKNHMwY5vDoKR8nTsVPbmENILWuo3huVVkZ02oZ82239pLp8O3/wCX0hhG/wDSt8pH/idJUSmuRlox222vwzmaknVJpJ5P27v3zwudrW6uKIq462sfeK04IjlwXWWZ3nvPpXP5PGdrX4DTJwTCCsUOY80Xl2Tz6a26ytwwRrGyph8N7PtOE9Em+1ETFY3pid+0v31+C869Q/fTxF4vqq94VFrRqLiiLvHGnteOs5cFRVZ/Ad25v3vkKUj+AoLb4qo851vRzka1ETCRin3qKRrcMETFq9McqZ/D+U53R+/8oFtXgnyt1mRsbdZEU+FFbEc/Hew1cD02P4tvwj52Z++viBffFVxUebdaBHJqtREx5TuS0KNTkTFE6Y4VL+EniO3cuRfECy2qpKToWizojXudguK4nzmtWvK3DBEZqcE9OhfwFPhTv4z9JgL74q1FRxu9Emq5GoiYqw5W+2oyJmKIqo7pj63N+/8AKfVj+Lb8IuPlbVZs+c8iz2pFkc52CouucbzbddWI3BERH7x6No5V/TPlUv4SeIsSfW+qvlo53GiRGORqIirHhrHXsVqRrH6yIqrqHfruT5Bbn8BxUsvqrNk8nnZrTo5VTDWYdq/0SKmq1ETh4n1ifxnysPrdH7/ygrfVVoOFDQoyNmCJimvwjo2C1ojlVyIu9getH1NvjOva37/ngpfVVLPOult13t5METV1T0bvQtVmDURMUPlVP4SHcruT5AL6qyg6dioGtjXeTW6bWOrT2lM7FyI7f1j1LY/gO8R14X8Z8rClQvqrS4nT0mtyLjhgiN9qXHHZkRETWfg3pdZG+rPHvT+Cpc6PLoNwzHmmXl3tHr9hNTmetgZHSXKdFe589TDC7W1dXLghR8eHyzvJX3XqUvk5P4VIy8z/AOt9d8dX6mIk1depS+Tk/hU56p/xm96SHVA6CoDxUx6OPtNWxsy2N+t9D8Uo/qmGs02ZbG/W+h+KUf1TDc7tthlf5/YadcVs8zwW/aXKhUohUiglwAAAAAAAAAAAA4lm7L3Wm5fEK76iQvIs3Ze603L4hXfUSH3l9lb4aOs8U1sLnAX1GtsAHUEMkDmCOWIABUoAAAAAAAAAX7sB9ebf5dv1ZIvbtdb6T42n1EhHTYD682/y7fqyRe3a630nxtPqJCN6W8dSW9DrWSRRPiSc+fIInaI6NPrKmCljXVfUyMiRzva90kJ16MbFFptULVdHTorcGPq6zK13vw/Hk6XHf4uLBPARm2o1hzru2RU3qSCpm/TeuT/hMpkLbv3zg0FMi7zn1NQ9vhZlsYv948+VPLenaSao9td7R9ZVnqjHHVmhCFW+X0EhmSo52kHEXxf1dfznM1TaRWNiYumtjE5NZ0lK3/FUPl7L7B3zavS0n2mu8H0wN/8AJVxfE+eGX/jJNh/sxsHfNq9LSfaPZjYO+bV6Wk+014AYHQ0lXF8RhkrRkfPqNh/sxsHfNq9LSfaPZjYO+bV6Wk+014AYHQ0lXF8RhkrRkfPqNh/sxsHfNq9LSfaPZjYO+bV6Wk+014AYHQ0lXF8RhkrRkfPqNh/sxsHfNq9LSfaPZjYO+bV6Wk+014AYHQ0lXF8RhkrRkfPqNh/sxsHfNq9LSfaPZjYO+bV6Wk+014AYHQ0lXF8RhkrRkfPqNicOn1ibjq1lrZjy6s9K3/rOx90ay9+236RTesNcgGBadJVxfEphorRk/PqNkSbLVpwwS5UGH4u66f1hYuyhsAUFzpnTUkcMFQrMynqaXVbHLvYsZJqcW+OXk11TkwILmwXa/wBv3PY6JHrgmQ+dVd2GTOfP+xkhr9J0Sug72+w8qK4uVVVVZMefHvecz9GUsmm4rYfl02IN15//AIa+poVRVa5FRWrqua72oPvda/MlkkVNVZXvk9I/MPgTK3GtEIxzEOuQqXGCQAD6FgAAAJDbSfrhVfFP9VhHkkNtJ+uFV8U/1WGuXSeLX/V1mx3PeMWOHHqJooVKIVOejoohnzW3+xdX8dtf15FDas7NOxtS6KUlLf6W21N2ZFdW1rHWSaeukzKyrfBGy4souqLSvhSKRK9Mni0zYVi3toWy1sO26+0T7fdKfdtHK+GV8GdNDrSRP12cZTyQSby9qXAwX/su9BfeL/8AMrz/AP2IBDTmMMdQt6vj4GyR2rcTNdrnazW1b6pi0LHr2ZNz7r38ewpa9Dsgt0J2T7rW3iKZlJX1d5nWaFiuc2ius0lXBVxsx++I4pNSGTIXe1Jd5ZIcldumx/sbUFqp20lupILbTMV7209JG2Juu7DXkdh08i9mRcVXeTsHh7Le1/s1+jSK726nuTWa6RPlRWzxI7ffkzxrDURY/mJkx3u0gBrk5pDt9rDe7Ky02WokuclTVU1RPUbmqaaKCGBHrqffcdNI+WSRWJgkKx5WvvopJXYi2Pai1bFstFVNdDPHo5pJPLE9NR0a1rK+uy3s9pJCydGqi8iopkzY42iOiVonbVUNlp4qiN7JIp6mWqrXRPZvsfCtZPU5T/DDguKGZtKtGoaymqKWoZm09bBPS1EOs9uZTTsWOSPXjwkbrRvcnFKi7/KgBr15iL1pvf8AvGl/lkI5bS7Z3tWj2m+kVbeKvnfTTRX2jjlyaioxqZLvSSMj1KWKok6nBIuOGCanKmKG2LYR2uVm0cings1HuCKrkbNPHumqqNeVjEYj03XUVKsVETDgr/yMX3jma+hVRNLUTWbNmqZJJppOeV2brzSPV8j9WOuRN9644IiAF1bEO3Y0Yv1WlBabnu6rWKSfc+4rhDxUeGu/MqKWnj3tdPdeya0dijZmtth2T7/cLrU7hpEr9KInT5M8/HSVT9RmXTxTy7/bSL/kbLtiHaT6MWGrSvtNs3DVpFJBujdtwm4qTDXZl1FVUR7+onuXYLf0t5ndodX1dTXVdnz6qunmqamfnhdI8ypneskkmpHWwxMxkXkgaieAAg9zQ7b22/SWkgsGjraq5brqYJKiqbTTR57mKuRSU1PJHuqWSaXUkxWGLBY4kTN1nZWwjaY7DUlg0ZtVsnREqYIZJqtG7+rVVU0lRJH4clZsnHtRnd2JtqXo5YnI+1WilopmoqNq1SSeraxyvV7G1U756nBdfBUSbDDLTfSKJG5jAAAAIRbdHrtD8Qg/mKowIZ726PXaH4hB/MVRgQ6Gud8Xy/Aj96JzldB/Hv8ADh1QAANiNfAAAAAAAAAAAAgZj2sOxclwrs6VuNNQakr0XpXze4Q+JOq/oJ3Ynlj+wxZtdtB0obXA1W6slSm6pvhzb7GfqY8uH9EylrHPV0FJKnZtca9YjvbW9Dty8R0Lc9RyZKUR5bnfHN+JzRTgoxwMeXzZ5tNO9Y31sKPbvObHrSKno2yp85gGmXHcTaYr3oRj1QiZ96YbZhW4uxvxMhuU8y9X+GmifNUSMhiibrPkevBanbUsNdspZe/o/Ml9WRT2f9m991mWOJVjooHcWx3BdK/u7+0ncTYKMoCam3oIWhTaNuMUxhi81cIVx6jXqTuglpVmKm1pcXtQhGvqJOdFfZO+X/R5/VlOixsnfMn0af1ZAsEjYFyflr5vcI7w1nfIT8/zmxbQXZtttwkdFSz5sjE1st7HxuVnbakiJrp4UL8f+w1b2m7S08sc8L3QyQrrsexeEjyaegG2tt81Kx1ZKlHUpwZIlZK5qvT27NRkvFr2F7BptN3MOSkUrloKcbj5q3IR88IbRt9C3TtzdpuZiltcPP3vjiZ4RAqmMU2yVk7/AI/Ry+rLzsOlNPVsSSlmiqY19vE9HJ/zNQdlH2U2nGlIhni3GHXA3FmcYejZbdSvechE9tDEO2P2LUuVC5Y241NGkk1Pq9M5cOHAnbzkT0iRr2DL+JRwlZhcs6h5uNS0RhGHz5+orOSqJplbLmNK4VGqoGR9sNoSlDdahjW6sdR99Q73tZuqf3mvF4jHB0nKTCZphD6frIHNM1LKln1sq+rAAPYeUAAAAAAAAAAAtVkjvRLk5Yb8DZ5ol+CU3kKb6th7R4uiX4JTeQpvq2HtHLzuyL349Z1IzsaN6HUciGfNbf7F1fx21/XkzCxtlrYdt19on2+6U+7aOV8Mr4M6aHWkifrs4ynkgk3l7UuB8j7mpvRnaHUl32OaK+W2nVL9Elzq51bLO/d1LS3CsgfTpDJIsUckVNC10W54UWWWPL383WSa/M2ttJFpDZI6STKiudhZBSVUMbWxpNTIzLp6+NjMERJUYscuVvJOyRdWJk0KEldjLYvobLQQWy2QbkoqTPyKfNlmy86aSd/DnknlfjLJJJxkq4Y+LCwdj3ag6O2m5SXe3W3cFfOtUks9PWVyRvZUSK+Zi0i1W5VjWTCRIsjKiVkeWiZUWAGsba/7KsOgun17bfWTU0FWt0o31LIpJcuOorY6ylr8tmMr6eaJjeo50vGcnKhdPNNduvZNJLdQWixyy3NzbhHXS1Laapga17IKiCOCOOoiglkkmWqfyQqnA5d9DZZsv7WuxX9rW3e2U1xWNNSOeRHxVMbOn1GVUEkFTHHjiuW2ZEVeUtvYq2kmi1lqG1Nus1NT1MTtaKpnfU1ksT/x4X1ktTkP8MGqoBiTT3QSe17Fc9BUorKik0ca2oidyxzvYkj4PHDI/K/QLN5njsW0162OpLVWN1qe5T3eF7kTF0b85FjnZ2MyGRGSx+GNCb+nmg1LcqOooK6LdNJXxvp6mDMkjzIX8rMyKSGVnJhxMqL855OxLsNW2xUbbfaqfcNGx80zYM6abjJFTXfmVEk8u/ve6gGgjZSulzslJc9DLgzFlFeILhFrJ1Ophgnp8+BFRVyLjTTwzYr3ONUwzZje3tTf7LaNf7g0e/y+nPA2YNpdozf6ttbdrW2tqmRNgSdKqtpnOhY96sR6UlTTsk6d2EkuMmGCY72CZW0T0UhoaWmoqWPJprfBBSUsWu9+XSwMbHDHryLNI9Yo2NbjKqqvbUAuAAAAopUooBBDbd9eX+Qpv4VMp7R/8FrfLxfVmLNt315f5Cm/hUyntH/wWt8vF9WSzSP+X0cBnrgRBRvj97hu9RJ0opUopExL5rG23H9o7p8O3/5fSGD9IH8BvlGGcNtx/aS6fCt/8hSGDdIHcBvlGHSdE+L5f0bX4cDmGkfGkx6dz7551c/k8Z3dfgNOlcX8njO0vU2mVPjFOtPlZX7/AMh8Kl++niPpZH7516x/CTxBJdZ1x6N05PkOFD0jhdOl+Q4W3pHAts60+VM/jP0j63V+/wDKdeF/GfKfW78vysBfZ1x22P4tvjPhZn76n0hfxbfGfCyLvqBZPjUv4SeI7tx5P0Tz6x/CTxHduT+D8gPnZ8ErQv4CnXifxnysPrbX8Bx14X8Z5gPpZynZuj/8WH3Y/i2+M6t3f/iw+8L+Lb4wWWdafC0P31PjWP4SHOyP4SnxrOmQJL7OuPQrn8H5Djbn8F3iFf0n6JwtT+C7xAss60+UT+M+Vh9rq/8AxYdZj+M/SYfa7v8A8WA+ln2HahfxafCOraX8Lzz7wv4tPGdW0P4fngtSkrVu4SHcrn8H5DoVz+Eh3K/pE8QLbJxtj+C7xHwY/jPMPpa38F3iOux/G+YC+zlOV5fwV+EXRrlq3x+8vwi5UefZGU8Mz4CPX7CePM/Ot1d8dX6mIk3depS+Tk/hUjHzPzrdXfHV+pjJOXXqUvk5P4VOdaf8aPek9kDoSgPFTHoomrY2ZbG/W+h+KUf1TDWabMtjfrfQ/FKP6phud22wyv8AP7DTritnmeC37S5UKlEKkUEuAAAAAAAAAAAAHEs3Ze603L4hXfUSF5Fm7L3Wm5fEK76iQ+8vsrfDR1nimthc4C+o1tgA6ghkgcwRyxAAKlAAAAAAAAAC/dgPrzb/AC7fqyRe3a630nxtPqJCOmwH15t/l2/Vki9u1+AUnxtPqJCN6W8dSW9DrWSRRPiSc+fIPD2j9lwbX1CpvOWmgYvk8x7/AKxhjvbcXvNvDo8d6kgpof038cn7JkJBbUqypDZo34YLVTVM7vGj8n/CFCHuyted0XKumxxR9VNqO/Ijfls/u2MLaLrmabmno5G62/XibhzIiVpT/DULKs7p3z/kLXABJRGoAAKgAAAAAAAAAAAAAAHKGFXKjWprK5dVrTYXsgytobHUI3g7moHQRq3sOysqP9uoQh2H7Nn3SgiwxRamGRW/kRvzH/3cZLLbfXjKs6x99VFNFh+Szj1+oI0uljf5+SlP9eP1qh2RJIuch3PITk1/o9hB4AElQxEbxjWAAVAAAAJDbSfrhVfFP9VhHkkNtJ+uFV8U/wBVhrl0ni1/1dZsdz3jFjhx6iaKFSiFTno6KAI/7Klp03fXSOstXo7Bb3JFkxXamr5Kpr0YmZrvp1ysFk1lTtJgWl7HNk33x0P+iXMAlaCKXsc2TffHQ/6Jcx7HNk33x0P+iXMAlaCKXsc2TffHQ/6Jcx7HNk33x0P+iXMAlaCKXsc2TffHQ/6Jcx7HNk33x0P+iXMAlaCKXsc2TffHQ/6Jcx7HNk33x0P+iXMA9PS7b52W1Xuosd5Weyzw5D6evnZmUFTSzMR8cjJo8ZY/dIZVngSGKWORM5cMSQlh0ggqoWVFNPFWQyt1mVNJKyaJ7e2ySPGN/wAimkrmolPemXC2sv8AU2Srr0o5lYthiqYnsolm4tKpKjlRZUnysPzvbLK2mmgWnMlQk2iqV9JG5/G1quybU5UXBc/dGNJU5XLlJDPL+a7AB+gAFgbEFDemUETb7UUNVcG45stogmhgww5OPk4x/wCcSGCPtRIX+AQi26PXaH4hB/MVRgQz3t0eu0PxCD+YqjAh0Nc74vl+BH70TnK6D+Pf4cOqAABsRr4AAAAAAAAAPc0DsG6q6kp1TeqKiGKT4D38Z/dnhmUtrFQZl7ot7WRm6Xrj2mUz9X/j1DHUi9eZV5yH0G3T30czfpppvy3GzYDGzBMETePoAc0HTsIVGFNtZpfLSWp2S5WPrJ46VZG8rGPZI9/zsjWL9MgmTO26/Wym+Pxfy1UQxJruNaRCRiurHfOqECELsXVKnoJjkQ2DlTUz5HNjY10r3rqsjjbrOc/ubDiSn2rOgMNNSS3qqRqarZnQvemtlU0KLnT9tJJcHxrgnJHimOaqGzUrSCaPYvse+Rjiah9rE1qi5BU+/eoayGV2P2Ra+hm07rp2NkqpY6DHhJErc6ZfA9iPhjZ+jKpctx2kHBXJuGs7sJLTpqr43MkRTGOyltiq64SvSKWSipWuwjhgfquc3srM9irr+LHJ8ZYtj09raZ6SQVU8Tk4WLJH8Lykfun6811MtTUwm+qmEtrywZvcOKuoz6pihmFXqEupxGS+3w9HZB2LKy1yIyqjwa5cI52LrQSr+Q/8AqOOLSJn7F+yFBpJQz0NdG3dDGtzNVMNdi9JVQ9mN8UnjwVEXkkwSI+l+jL6OqqKWTp6WR8Wt+N3OT9dHxxkaHpNx9a5WbTYfay5nPtPn4GPpajW2EomZVVtlzo/szyDK+1i0rlprvTxscuVWOyZoseC7gSaj/wBVJveJTFBfuwJ14t/l2/VmTpZpLkm9BUPq3I8WOBjqKdU3ONRTujZsaQqUQqc2HS5Fjbu6PosVDVom/HJNTPXt5jFkj+ren6ZE4nTtu6JH2aRy+4T0sifK9Gf9ZBYnK5F6+SCU7m451V+0ge65m9z6leW22AAbsaUAAAAAAAAAAAWqyR3olycsN+Bs80S/BKbyFN9Ww9o8XRL8EpvIU31bD2jl53ZF78es6kZ2NG9DqOQMK7NVt0tkqIl0eqrJS0yQ4Tx3uCrkldVa7+HGtPvZeXqJwuziY89jmyb746H/AES5nyPuStBFL2ObJvvjof8ARLmPY5sm++Oh/wBEuYBK0EUvY5sm++Oh/wBEuY9jmyb746H/AES5gErQRS9jmyb746H/AES5j2ObJvvjof8ARLmAStBFL2ObJvvjof8ARLmPY5sm++Oh/wBEuYBcezdtzbXo1dKagvMdTQ09xgz6S9Rx59I5zH5c8E7I+OZJDxarkwzcXLHisRmPQbZDoblAlVb6umuNO7pZ6OZk7OROCqxquo/82uCp2jVBzUKl0kjt1sZpHVaPVTn1k7qCOzQVkVYmpDhVP16ji9z8OnzcPdVh7W9E7awaH6V1FYj9F47k2oarGSVVue+GBicupVVCrDSpGvc62VEXtLvgH6NyimG9rVatJ4qDV0nqrfV1nARjrbE9j0Z/4mTiKZ8vY+8aKGJMOWXlMyKAQQ23fXl/kKb+FTKe0f8AwWt8vF9WYs23fXl/kKb+FTKe0f8AwWt8vF9WSzSP+X0cBnrgRBRvj97hu9RJ0opUopExL5rC23Tv/iS6fDt3+X0hg3SDpG+UZ/iZw23X9pLr8O3/AOWUhgvSHpW+UYdLUT4vlvRtfhwOZqRh/wBUf9O5986F1fyeM7bH8W06N27HjO2zqbTKlqk60+Vlfwj4Vj99PEVsj+EfKt6ZviCSlnXHoXJ/B+Q4W1/AcLr0vyHC2dI4CzrT5wv4z5T63h+/8p1YX8Z+kw+94fv/AClCtnXHbhfxbfhHXsr+Ep9YX8W3xnVsr+EoCUnCsfwm+I9C5P4PyHmVvTN8R3bk/g/IVKWfBK2t/AcdeJ/G+YfW1P4DjqxP439JhQrZynbuz/8AFh94X8W3xnVu/wDzYfeF/Ft8YLLOtPhaH8JThXP4SCyP4Snxr38JCqS6zrj065/BTxHytb+C7xFK/pE8R87T0rvEUK2cRwa/jPlYfW7v/wAWHVa/jflYfe8f82AWfAO3C/i08Z1bQ/hn0pn8WnjOraHcMBKTnXP4SHdrn8FPEebcn8JDv1z+CniBZZ1sDja38F3iPg1/GeYVtD+C7xHw1+N8wF9nXRPre37ylzlqXl/BX4RdJ9EZTwzSdYjfj1QJ6cz663V3x1fqYyTt16lL5OT+FSL/ADPfrdXfHV+pjJQXXqUvk5P4VOdqf8Zvekh1QJ+oDxUx6OJq2NmWxv1vofilH9Uw1mmzLY3630PxSj+qYbldtsMr/P7DTritnmeC37S5UKlEKkUEuAAAAAAAAAAAAHEs3Ze603L4hXfUSF5Fm7L3Wm5fEK76iQ+8vsrfDR1nimthc4C+o1tgA6ghkgcwRyxAAKlAAAAAAAAAC/tgHrzb/Ls/gJE7dtfvCk+Np9TKR22AuvNv8uz+AlFtpbLuiO1QYb090pYnfAeyRi/4kYU6uCKXllqyQTXH1RWSZQaFO0RMoTtuVfhl52FvO6xxq7eWht+Y/wCHHDrv/wCNFNdj3qq4qusrifm2dvmRZapEXVdPkQN8KSPYj/7vX+YgGeu41ClNzEwr6blXF/8Aoee7BaUuS8un6Dfz9wAAkQjsAAAAAAAAAAAAAAAAAAzXtP7NmXdsipvUtPUyov5x+XD/AITSF9beG98Kgp0XpUqZ3t9Gxn+offaPWPg19QqbzlpoGfoJI9/1jDHG21vObeZWcqUkFNB/wZ/+uRqmuZuh9Ajqh2uEkfw1z/p1/P3DDQAJKI3AAAAAABIbaT9cKr4p/qsI8khtpP1wqvin+qw1y6Txa/6us2O57xixw49RNFCpRCpz0dFAAAAAAAAAAAAAAAGA7ttMLDV3ipvdxpFvVfUrBlrdHZ9LTQwRsjZBBSb1NlojEVc+GWXOWWTW4xTOVLStY1GMajGsRGsYxqNa1mG81uGHa7H7DtAAAAAhFt0eu0PxCD+YqjAhnvbo9dofiEH8xVGBDoa53xfL8CP3onOV0H8e/wAOHVAAA2I18AAAAAAAAAGWtqo5EvdKi8qtq0b9HeYlL52CrvkXigkVcE3SyJy+X4j/AKzF0s3fJKYSnc3TK0U5e5uXUrdG/wAQ2Pgoig5rOmCPG3Z62U3x+L+WqiF5NDbs9bKb4/F/LVRC8m+4/wDgYelc6oEE3X/x6vRtgmDpeqpoZHlci01Br4fi5sWvh+niQ+JYbWDTGCut81lqlTWayZsTHLqulopt+TV/Like9N5MU4vueKfa6VCkoZmEptoYcbcdh8Pmo89zK0qW8wpVhb7bjbRE8GQtlPYSrLXK/WjdNTY8XVsTi1Z+c7nIWVaLLNUSJHBE+eRelZEx7nGzMT7Dzd/bcqRvmvPyL7Ll5Wite8ZX2pD5EvMaMx1VgqUlw/E1U/1NQ6W2ojTn3V4YY6tNrYfj7mZh+wztsJbGbLBR1FxuDmxzvjTMbjrZEO8uSi+3fK/Vx7fFp44nadaVvrqypq3pgtTI9+C+1Z7mz9THqRGpUe4mdpZ6aZ2Ftu9Xzacc+earObXSDapKimpV7ZnHL7e9zbPDL+2AuvNv8uz+AsEv7YC682/y7P4DaaS/hXvRufhmsUZ/FM+ka/ENjKAIVOaDpswvtsZESy1GK4a0lJh4eOjIHkz9ujd0ZboIUXhVFU1dXtsYx+t8z3R/OQwJtuNbsyMVeW45VxQINuxctT9nyG2+sAA3s0QAAAAAAAAAAAtVkjvRLk5Yb8DZ5ol+CU3kKb6th7R4uiX4JTeQpvq2HtHLzuyL349Z1IzsaN6HUcgAfI+4AAAAAAAAAAABg3ZR2olmvdzhul2hkur6OBlNSW+qk+8YUR8j3yLTxo3Nkle/CVahZYlSOLi+LxMvWOxQU0UcFNDFSwwt1IqemjZFFGxPaMjYjY2J4ETA9QAAopUooBBDbd9eX+Qpv4VMp7R/8FrfLxfVmLNt315f5Cm/hUyntH/wWt8vF9WSzSP+X0cBnrgRBRvj97hu9RJ0AETEvmrzbe/2luvw6D/LaQwXpA/gN8pGZx23zv8A4luvw6D/AC2kMGaQO4DfKRnS1E+L5b0bX4ZzVSEP+pvend+/E826v5PGdtj+Lb4zz7q/k8Z2oX8W0yoUnEfKyP4R8qx/CTxCyP4R8ax/Cb4gkus649O5P4PyHC1P4Ljjcn8H5Dhan8FwLLOtPnC7jPlOxdn7/wArDowv4z5TsXd+/wDKULrJ3Yn8W34R1bM/hH1p38W34R1LK/hKCiU5RXv4SHoXJ/B+Q8mvfwm+I71xfwfkKiziScrU/guPg1/G/pMOVqfwXHwY/jfMKCzronau7/8AFh2KZ/Ft8Z0ru/8AxYfemfxbfGBZ1p8rO/hHyr38JBZ38I+Ne/hIVSXWdcenXv4CeI42p/Bd4jhXv4CeI4Wp/Bd4gWWdafJr+M+Vh2Lu/wDxYdLX4z5WHYu795fGwoVs+Ad2mfxaeM6todwzlTP4tPGdW0P4YFnKc65++n6Z365/BTxHmXJ/CQ7tY/gp4gLOtK2h/Bd4jq6/GJ+gcrQ/gu8R19fjE/QAs66J2Ly/gqXWjyzry/eX4Rd2ufRGUx82nWI349UCenM9Ot1b8dX6mIlFdupS+Tf/AAqRb5nj1urvjq/UxkpLt1KXyb/4VOdqf8aPekh1QJ7oDxW16OPtNWxsy2N+t9D8Uo/qmGs02ZbG/W+h+KUf1TDcrtthlf5/YabcVs8zwW/aXKhUohUiglwAAAAAAAAAAAA4lm7L3Wm5fEK76iQvIs3Ze603L4hXfUSH3l9lb4aOs8U1sLnAX1GtsAHUEMkDmCOWIABUoAAAAAAAAAX9sBdebf5dn8BOHTWyZ1Va97FtPVTTu/QpZ2M/vJGEHtgPrzb/AC7P4DYmjEVccN9OQhu7JcUTjSoblVxxXAmO4xEFybqVbp7EEbNu7e9Wlo6fsyzvmw8ELNT/AFyIJnzbmXnXucUKLvU1KxXN/Fke971/u0YYDN7uYYvNHNV/WRi7z4uao0a6Z+/Ui79n3oAA2k1UAAAAAAAAAAAAAAAAApHFAQhXiJ0bUm0JFZmSYYLVTVM6+BdbJ/whQh5spXjdFxrpUXWSSqqUY78jXy2f3eoTq0fbzuscau3lobdmvxT3WOHXf878TXg9+K4qRtcxC/zs7N/68XrVGPVCBJF0se55OSlf9HsgAASURuAAAAAACQ20n64VXxT/AFWEeSQ20n64VXxT/VYa5dJ4tf8AV1mx3PeMWOHHqJooVKIVOejooAAAAAAAAAAAAAAAAAAAAAhFt0eu0PxCD+YqjAhnvbo9dofiEH8xVGBDoa53xfL8CP3onOV0H8e/w4dUAADYjXwAAAAAAAAAcqaZzHNe1VRzF1mub7V5xBSMK4RhnKwjVGEcxsy0D0mbW0lPVNwwqYWPc1N/Vfhw48fzT9aPxoXFgn7CLO012RtZkttkdvx61RTI78RV45nySLm+FZJO0SmREObKVklScytmO1HF50RyR4uc6TomdTOSqHYZqo8OGUj1t1U/7Mp+2ldF825qohgbJtkfQSK5UktLLi1JUxZK1OFHKzpHp4UXtkQbntR7wx6oyOGoYnSyslY3H9B+QSDcnS0rLy0WXl3tSYxjC+ZI11c5Hl1VEzT8zfmUW0Kbq73lMLn3t1xkhkZLE90MsS67HsXVc15lboUb33tH9Ii9YOhRvne0f0iL1hvC6Xo9cKozCKo5e+NmkIoekEY4S6q4fZrL20I250sbWsr6dKhWphuinVGOXwvh6THxrEngLkqdunRsb970EyuX2sixQp87Fn/wMS9ClfO9o/pEXrCnQpXvvaP6RF6w1NyQoBSrUHUwhtwg9VDihHqNqbnadQmze1b8Wi3dlDZnrbq5M9yRwsXWZSwrqxt/LkVeqSJ2ixTLvQpXvvaP6RF6wdCle+9o/pEXrDZZakaMlm7008hCPSNmuv0bScy5fHmlrX6NwxEX9sA9ebf5df4JD3+hRvne0f0iH1hmjYA2tklvnStrHMdPGj2wwRLrNiR6aj3uf7aRWayb29v8p4KWpySTKvQQ6lxbiKoQaz+rIe6iqCnYzTUVNKbQ25X3wkigxKYlu6aaVx0VNPUyrqx07HPXD2y8jWJ+XI9UjTwqnIQUlMVqsp28XGTw4uDaYqVtER9uLpak9xjpmri2gh4XgmmTXeno8hflMCHfv98fUzzVEu++okfK9Py3vOgdI0VJ9ySjLO2jHHfjjjznNVJzfdU0695fsAAMqYsAAFQAAAAAAAC1WSO9EuTlhvwNnmiX4JTeQpvq2HtHi6JfglN5Cm+rYe0cvO7Ivfj1nUjOxo3odRyAB8j7gAAAAAAAAAAAAAAAopUooBBDbd9eX+Qpv4VMp7R/8FrfLxfVmLNt315f5Cm/hUyntH/wWt8vF9WSzSP+X0cBnrgRBRvj97hu9RJ0opUopExL5q424P8AaW6/CoP8tpDBGkbuA3yjDOm3E/tLdfhUH+W0hgnSPpG+UYdLUR4vlvRNfhnN0/4zd9O5988u6P5PGdpj+Laefcn8njOwx/FtMuXKTrTjZX8JT5Vj+E3xFLO/hHyrH8JPEVQXWdcencn8H5DhbX8FxwuT+D8hwtr+C4oW2dafOF/GfKdi7v3/AJTosfxnynYuj/8AFgL7J3ad/Fp8I6tlfwlOUL+LT4R17O/hFqiiUivfwkPQr38H5Dyqx/CQ7te/g/IXFlnEk52p/BcfBj+M8wpbX8Fx8mP4zzAX2dcdu7v/AMWH3pn8WnjOldH73ysPrC/i2+MFtnWnGzv4Snyrn8JClnfwj5V7+EhVJdZ1x6Ve/gJ4jjan8F3iOFe/gJ4j5Wt/Bd4ihZZ1px1+M/SYfe7v3vlYdLX4xPGw7F4fveYC+z4B2qZ/Fp4zr2p/DOdM/i08Z1bW/hgrZPrXv4SHdq38FPEeVXv30O7Vv4KeIFlnWi1v4LvEfLX4xP0Ba38F3iOvr8Yn6ALrOuOxeH7yl3IpZd2fvKXiXpMbNp1iN+PVAn1zPHrdXfHl+piJSXbqUvk3/wAJFjmd3W6u+Or9TGSnu3UpfJv/AITnSn/Gj3pIdUCd6B8Vtejj7TVsbMtjfrfQ/FKP6phrNNmWxv1vofilH9Uw3K7bYZX+f2Gl3FbPM8Fv2lyoVKIVIoJcAAAAAAAAAAAAOJZuy91puXxCu+okLyLN2XutNy+IV31Eh95fZW+GjrPFNbC5wF9RrbAB1BDJA5gjliAAVKAAAAAAAAAF/bAfXm3+XZ/AbFnLymunYD682/y7P4DYZca1scb3u4LY2Pe5fyWIqqQ3dpjm2ofZw/EiTLcXGqTej9pH7kDXls93rdF4r38qMnyE8cLMhf2sLCOxcq90skkr+mne+R3w5H5h1yWJNi8MNt7m3DqImm3r8+455bkQAD2HjAAAAAAAAAAAAAABQHr6HWbdFXTQd81NLE79N8bDyDKu1fsmfeqVVTWbTpNO79Bkmp80kjDG0g/eZZ5zyG3OMyFHM36YZb8txslRtnL5k2WrwXVdNkwN8UkjNf8Au9cgES+27l51aWip+7TyTqnghZqf6yEQTWbj2b3IRXujn7ZtN2D18noI3Nur/wBwADeDRwAAAAAASG2k/XCq+Kf6rCPJIbaT9cKr4p/qsNcuk8Wv+rrNjue8YscOPUTRQqUQqc9HRQAAAAAAAAAAAAAAAAAAAABCLbo9dofiEH8xVGBDPe3R67Q/EIP5iqMCHQ1zvi+X4EfvROcroP49/hw6oAAGxGvgAAAAAAAAAAAHo6NaRS0lRDUwLqy079djv9PyfuJsX2M9kKG50kVTCu8/gyRe2ilTp43+FF/9drWuX1sQ7Lk9pqM1nGQS6iVFOq8F7e2nLly+M0y6OhNUGr41szfPDc+z4m53OU1qe7Yc2Fz5vhsbQKhbmhem1PXwsqKeRJY34fCY7ssez2j05FRU/wCRceJBi0KbjZViVtwJ1adS4m0nGk5gAtPqAAAAAAChUoqgHFSFW2q2ZN1zbgp3401I/GZ7V4MtT2lXsxwb/wCt/VKt7bY3bHpG19voJMZ14FVVsXgws9vDHJ2JcN5ZU6j5TqUSSUrlqCVBXdkwjF9VCP4kYeba48xE11VPpUnuOXX6WP8AxgAErEVgAAAAAAAAAAAAAFqskd6JcnLDfgbPNEvwSm8hTfVsPaPF0S/BKbyFN9Ww9o5ed2Re/HrOpGdjRvQ6jkAD5H3AAAAAAAAAAAAAAABRSpRQCCG2768v8hTfwqZT2j/4LW+Xi+rMWbbvry/yFN/CplPaP/gtb5eL6slmkf8AL6OAz1wIgo3x+9w3eok6ACJiXzVptw3f/E11+HQf5bSGB9JXcBPKMM67cf8AtNdfh0H+W0hgXSXpU8ow6WofxfLeia/Dgc6z/jJ30jn34niV795DtsfwGnm1z/8AE7WvwGmaPpZ1os7+Ep16x++niOVqfwl8R8Kl++hakus649K4v3vkOFA/guPlXv3v0ThRv4KlxZZ1pWF/D/SPtcX/AOJ1IXcYnjPrcX/4lhdZO7C/i2/CPhaHcJSkL+Lb8I+Vqfwl8ReUsirfvodqufvfIebUP30O1XP5fEBZPtbn8FT4NfxifoHGgfwVPnC/hoBZ10TtXR/L42H1hfxbfGdS5P5fGfZj+Lb4wLOtOFqfwlONY/fQ4W1+DlPlUv30LUl1nXHpVb+D8hxtzuC4+NW/e+Q425/BcXFtnEVR3DTxsPvc38v6B0mP4aeNh9bi/l8YK2TtRP4tPhHwtz+EcoX8WnjOvbncJSwpZOdc/fQ7tW/gp4jyqt++h3ax+8niLxZ1pztz+C4+GvxifoFba/guPhr8NPhMAs44n3ur95S9EeWLc37yl7BOUxk6nWI34+wn7zOzrdXfHl+pjJT3bqUvk3/wkVuZ19bq746v1MZKm7dSl8m/+E50p/xo96SHVAnGgfFbXo4+01bGzLY3630PxSj+qYazTZlsb9b6H4pR/VMNyu22GV/n9hpdxWzzPBb9pcqFSiFSKCXAAAAAAAAAAUUqUUA4/wD0LO2XutNy+IV/1EheP/0LO2XetVyT/wABX/USH2l9lb4cDxzewucBfUa2wAdQwyQOX45YgAFSgAAAAAAAABf2wH15t/l2fwE19nm9ZFnuEiLgq074kVO3NhCnzK8hLsEORLxb1VcE3QxpK7bY008lpWOCKSfXqIM1sTXOc2FmvJr73akZH85FV0baXKVlUqyd7r3r5jJUudWpFFTUU5e+fhkFgd2ayTtVUdDIi/iujefLnPL3KTzHkn31vPDjIwvDmaPFE64Oxznl7lJ5jxznl7lJ5jxfW88OMpel5uY64Oxznl7lJ5jxznl7lJ5jxfW88OMXpebmOuDsc55e5SeY8c55e5SeY8X1vPDjF6Xm5jrg7HOeXuUnmPHOeXuUnmPF9bzw4xel5uY64Oxznl7lJ5jxznl7lJ5jxfW88OMXpebmOuDsc55e5SeY8c55e5SeY8X1vPDjF6Xm5jrkltpJZcamtqFTqUMMLV8Ez9dfqWEdobDO5cGwzPX8Vsb3Ez9qLodLTW+R80b4ZKmoe/VlbquyWsjjZinyPNQuqmkokFISuuLkYQ56480DcLlpVS55K4oqg3nMQbc2869yhhRd6mpmK7wSPc9yp5iMX5TARfuz5fN0Xivei4o2bITxwsyF/awsIzVBs3mRZRnbr9ccZhqZev07ML+0qAAM2YQAAAAAAEhtpP1wqvin+qwjySG2k/XCq+Kf6rDXLpPFr/q6zY7nvGLHDj1E0UKlEKnPR0UAAAAAAAAAAAAAAAAAAAAAQi26PXaH4hB/MVRgQz3t0eu0PxCD+YqjAh0Nc74vl+BH70TnK6D+Pf4cOqAABsRr4AAAAAAAAAAAAAABdGx9slVdsmzqWTBHdVgfwo5Wdt7OVF8Kb5MvYs2yNBcWtY96UdUvBWnmXBHP/Mv3kk/ZJ4CBgNYpW56WpHXR725usNvfhtmz0TdBM0frYd8RuRtSa/HwnNqmu3QnZ/ulDg2OoWeNvJDVJnRr4G4caxPBDOqGadHtu2zeSronsXsvpZGPxXwMkyMPSqRfN3KTzEa0JviM6c29HqxkoSl1sk9skb2rNHtJUgwhQbb2zPRNZ9RT/kywL/p5x25dtlZUTFKiRfyW08/qzCajzujr5OPYZvVqQ0hPKQMyopxVSPF526NvYipDBV1DvaqrWRtd+ksiyf3JivS3bj3KZFbTMioGu9smE0rf03okXzwGQlrmp9+NV6sedzFDt5jGzN09Hsw2W36PGS70s02paKNZaqdlOxuO+9V1neBjUxe9fBEiqRJ2ZNtXPWI+noEfSU68F87l1Z5Wf/p417PuvgQwbeb/AD1L1lqJpKiVeV8r9Zx0yRaKuTYlVQcmO+LhjhD6qHbH5qI7pa6x+aTe2O8o6QAA33IaHHHjAAAAAAAAAAAAAAAAALVZI70S5OWHqNnmiX4JTeQpvq2HtHi6JfglN5Cm+rYe0cvO7Ivfj1nUjOxo3odRyAB8j7gAAAAAAAAAAAAAAAAAED9t315f5Cn/AIVMpbSH8FrfLxfVoYs23XXl/wAXp/4VMp7SN33tXJ2c+Le7XFks0j/l9HAZ64EP0d/mBzhu9RJ1AoQqRMTAar9uR/aa6/CoP8spDAOky8WmPdGGetuNXv5/XZYmxPmR8CNbNqaq6lLTs4eP5vtmIK5GSRo2RjFXgK5sf450nRLkISUs1Xkaa/DOdJ+MUzzrtWK/uwxZfD6sZYM8iL85987FrUQutlhiw6kobYYk5IlMxfU5+cpGZ+zVxFnW6ZEcviPlUOwXfL25wx9xOTrHHhgsIvsM8OOBf3XDyI8RaVW/HHxHGlmTVcicuJd7LDGnuRX2PRpvpCL6nPzwLO6fs1cRZMcuD0x7Zyrn8q9jEvR1hj7MJy5xx8mTvC+wzw44DuuHkR4iz4psY24b++fK3TJrKnZwLzZo7EnJFgPY1Fjjk74vqc/OO6k7mriLGqJcFTHeO3Vvx8WBd0thjVN+HE5MsbETDJ/4i6+ozw4x3XCz4EeIsygmRWuw3z5tnRHoi8perNGok5IcPlEmjcS76w7/AGy2+pz85XupNexqLLuMuGKryYn1il4tuG+Xk6wxrvLDinwg2wxpvJDh+kL6jPDjHdULPgR4iybbUorlRF38HnyrJkRUx3i+GaNwouKQ4L4zm/RuJeWHHVF9Tn5yndSbWxq4izat/wA2BxopUVrsC9ksbFTDJ3vhHGOwxp7hh+kL6jPDjHdcPIjxFjMm4aJ2cWH1uMyIq4l5+x6PHHJTHtlV0djXlhx/SF9hnhxwK91o8iPEWc1/ARewfK3TYuUvj2PswwyN74Rwi0ejTkhRBfW8/PAd1p8iPEWLUT76J2TuV02GGPaLu9jsa76w75zfo+xUwWD/AIhfW88OOA7rR5EeIsmhk4Lj5MmxenjYX23R9ibyQYHBujsfKkP/ABC+ozw44DutPkR4iyLnLyl9JIcZNH415YUVPC4+9xr3ojclkUi67Ufr6jcIvbvKLfglNqs8Uw5F+whKMePLihtbZPnmc/W6u+O/6MZKq69Sl8nJ/CpDvmdFxVzbtHimpGtskaxOlbJJuvXenj1GJ+gTBu70SGVVXBEjkxVfgnPt0CaqVd28bfOhESbLn410U3GOZ376zVybMtjfrfQ/FKP6phrNNmWxv1vofilH9Uw2+7bYZX+f2Gn3FbPM8Fv2lyoVKIVIoJcAAAAAAAAAAAAOJ5GlFrzqeoi7vDNF57FYeycXIXJVZVBWao+biLSYpzwNVL2Kiq1UwVvBc13tQZT2yWgDqG5zKiYQ1zn1ELvh9XZ+qk11/WxGLDpaRmkzLDbyfpwgcyTssqXfWy59AAAyB4QAAAAAAAAD60FY6N7JGOVj4nskZI3pmvj6nITD2Ott5RSQtSvV1JOxMHubG98MnJw2Zee9uPc3b6eHsQ3BgaVoeXpKCIO4oo24ZfaZui6Yfo5SotY4L2o5CfnRR2Lv391q/UDoo7F37+61fqCAYNbwLk90Xxo9w2XDOb3NHEv3yfnRR2Lv391q/UDoo7F37+61fqCAYGBcnui+NHuDDOb3NHEv3yfnRR2Lv391q/UDoo7F37+61fqCAYGBcnui+NHuDDOb3NHEv3yfnRR2Lv391q/UDoo7F37+61fqCAYGBcnui+NHuDDOb3NHEv3yfnRR2Lv391q/UDoo7F37+61fqCAYGBcnui+NHuDDOb3NHEv3yfnRR2Lv391q/UDoo7F37+61fqCAYGBcnui+NHuDDOb3NHEv3yfnRR2Lv391q/UDoo7F37+61fqCAYGBcnui+NHuDDOb3NHEv3yfnRRWHv392q/UFkbJW28o2QubbnOq53t1WSOjeyKLl4S5mRI96dybvr4N/GHQPszcdJtuQVFS3IZo1VeupuB8n7r5xxuymCG/nhiaZVVXOVVc52s5zvbPABvcIVYjRIxrxgAFQAAAAACgJN7SG0YzV06pvMjpoWr8N0j5P4IyMhsA2u2x86322KORurNOq1E6L7WR+Gqz9VG1jfkNHuvnEsyUWfpuRhxQxx6qvWbvcjKKenUu/QbrMsAoVIPJ3AAAAAAAAAAAAAAAAAAAAAIlbdzR5daiq0TewmppHfi72ZH+zOX9Ai4bHNmDQJtyoJ6beR7kR8L19rOxdZi9jBMeAq9pymuq40D4pHxSMWOSJ743sd0zXs6eMmu4+eS9KRYj4bMYxhvR+aiDrr5FTM3f/oPdZ8AAb6aGAAAAAAAAAAAAAAAAAAAAAAAAAACgAAKgAAAAAAAAAAAAAAAAAoD0dF7G6pqYKduKLUzQxIqdp79Q84kftQNi5Zah1ylbxVLrxU2t7aof1R/6pmCL+dkXuSGGpeeTJSi3Y5Y4ob8chl6JklTk0hpO1HH6MmHTwo1qIiYIiYIh9iiFTnA6WhCqFQAAKgAAAAAAAAAAAAAAAAAENNuvo8raykqUTg1ED4P04H66fPnf3Z8NphpY2KtnpHLglbDG9mt2ZoFfwPRvf6MzxtjdjxbhbZGRt16ilXdNOjemc9nTx8nusavROTjMtewQNsd8kppop4V1ZKeRj2L+Wwl6iLNJ0QuU+sb73z3xuPHiIbpi1RlLomvoL75/6OG0lFBZexbsjw3OkZURKiL0ssOPCimTp43+FFLzIkdbU04ptyFSkYowiS4w+h5tLjca0rxwPOqLBA9Vc6GJ7l5XPjY5y/Lgc6WywxqqsijjVd7GNjG/4YHojEXxWSvnL72jNzQKZadpPmGWnaT5jkC2svswzHHLTtJ8wy07SfMcgKxZhmOOWnaT5hlp2k+Y5AVizDMcMtO0nzFctO0nzHICsWYZjjlp2k+YZadpPmOQFYswzHDLTtJ8wy07SfMcwKxZhmOOWnaT5hlp2k+Y5AVizDMcctO0nzFMtO0nzHMCsWYZjjlp2k+YZadpPmOQFYswzHDLTtJ8wy07SfMcwKxZhmOGUnaT5hlJ2k+Y5gVizDMcMpO0nzDKTtJ8xzArFmGY4ZSdpPmGUnaT5jmBWLMMxwyk7SfMMpO0nzHMCsWYZjhlJ2k+Y8uTRqnVVVYIVVd9XLGz7D1lU4qpVK1QyR4olIoTHa5jpUdrjjxy42R48uW1rdb5sP2lh7POlraO01cmKI+WN9PF2FWWZNTe8WLpPExTIznIiYrvIhBXbN7L6XGpSngdrUtE5+D2u4E03t39rU9xiXs8b2JUNgoKjVz82jyEd8dj5oduT/4a1T1IpkJRe0tfe2oeeJiG0Wt00sULExfUSMiY38t78ths/t1E1kbGN3kjYxifBYmCELNqTsdLU127JG8Rb0VzVXpXVL+kj/U9V9ETd5MDPXZTiXZlMujI1DHvrqjzQ6zB3HSSm2FzCsrn/ofUFCpH5IgAAAAAAAAAAAAAABjnZh2KYrrSOgdgyVmMlPPh0k3Y5ExVknJIicqL2d4gDpRovNRTyU9QxYpIVwVF+sj7pGbQMd8sjZL2J6O6RIypZw2dSqY+DNEv5D8MU+ByG4UBdCqjo3pzXsx2tzjnh7Yevf0in7nk0hC+s6x6HSeaJriBm3TfalXKnVzqZG3CH2ronZcyfDifvehzV8Bim6aFVkK4TUtTAv52B7f9MmOVpSUmU2mnkr80cUeKOMhuZoyalVWXWlJ88McDyAdrnVL3KTzHjnVL3KTzHmQvreeHGeG9Lzcx1QdrnVL3KTzHjnVL3KTzHi+N5+cXpebmOqDtc6pe5SeY8c6pe5SeY8XxvPzi9Lzcx1QdrnVL3KTzHjnVL3KTzHi+N5+cXpebmOqDtc6pe5SeY8c6pe5SeY8XxvPzi9Lzcx1QdrnVL3KTzHjnVL3KTzHi+N5+cXpebmOqDtc6pe5SeY8c6pe5SeY8XxvPzi9Lzcx1QdrnVL3KTzHjnVL3KTzHi+N5+cXpebmOqDtc6pe5SeY8c6pe5SeY8XxvPzi9Lzcx1QdrnVL3KTzHjnVL3KTzHi+N5+cXpebmOqDtc6pe5SeY8c6pe5SeY8XxvPzi9Lzcx1QdrnVL3KTzHjnVL3KTzHi+t5+cXpebmOqDtc6pe5SeY8c6pe5SeY8XxvPzi9Lzcx1QdrnVL3KTzHjnVL3KTzHi+N5+cXpebmOqDtc6pe5SeY8Mskyrg2KVVd0rWxPF8bzw4xel5uY6oL40Z2DLtVu1YqKZiLyy1LMmPz5MhZP1BIzYq2otPTq2a4uStkRdZtMxMKZuOHTou/Py8jky/AYCkKfk5NONd8XubXtzGeo+5+cnFYkXtG6ulhbWbYFfUSR3CrYraeJWSUsUiJxz+VknL1OHkTuvL4CZiYHyZEjcERMETeREPt2yEaSpJ2kHouueqG1CGbt7CcKKotqjmb23l+sjnic0KlEKmJM2AAAAAAAAAAAAAAAAAAAAAccCPW2M2vC1+NZRtalW1EzYulbUMZ2F/OJyIq/+8hcDie2SnXZJ5LzMalQ4o+aPmMfPSTU6ypl6GtjzGrCsoHxvdHIx0cjF1XxyJqua/wDLYfI2K7IWwlb7m374hwlw1W1UK5czd5Pb7+v4pkkTwEf9JtpPUIqrR1cUzewyqR8bk8cjM9ZPkSImGRuulHk1P94Xnywj64e2ohufuSm2Vd478jnI1AzW7ah3nfTUp1/KSZU/5HDoRLz3OD0zfsM7q3IaQnlDAaiT+jq5MwuDNHQiXnucHpm/YOhEvPc4PTN+wrq3IaQjlBqJP6OrkzC4M0dCJee5wemb9g6ES89zg9M37Bq3IaQjlBqJP6OrkzC4M0dCJee5wemb9g6ES89zg9M37Bq3IaQjlBqJP6OrkzC4M0dCJee5wemb9g6ES89zg9M37Bq3IaQjlBqJP6OrkzC4M0dCJee5wemb9g6ES89zg9M37Bq3IaQjlBqJP6OrkzC4M0dCJee5wemb9g6ES89zg9M37Bq3IaQjlBqJP6OrkzC4M0dCJee5wemb9g6ES89zg9M37Bq3IaQjlBqJP6OrkzC4M0dCJee5wemb9g6ES89zg9M37Bq3IaQjlBqJP6OrkzC4M0dCJee5wemb9g6ES89zg9M37Bq3IaQjlBqJP6OrkzC4M0dCJee5wemb9g6ES89zg9M37Bq3IaQjlBqJP6OrkzC4M0dCJee5wemb9g6ES89zg9M37Bq3IaQjlBqJP6OrkzC4M0dCJee5wemb9g6ES89zg9M37Bq3IaQjlBqJP6OrkzC4M0dCJee5wemb9g6ES89zg9M37Bq3IaQjlBqJP6OrkzC4M0dCJee5wemb9g6ES89zg9M37Bq3IaQjlBqJP6OrkzC4M8WzaaXV6pmSUsLezjI9zv8AgjRP2mWNBtqBQ06tfVvfcJE39RWpHD5nCkeqb/LMqcnFoY6auokGE4nL5HM125OcyctcvPvK2K9+lI/bC+wTUXWRr1R0FGxeNqnJ035EP47/AAr1Enno/YYqWGOngYkUULUYxjeRrUOzSUbI2taxrY2MTBrGpqtRqeBP+R92t5d8iKmKaepNytWsQjwW4ZIeePn8/q35coehWaMb1uvcXsjnztH1KlEKmBNkAAAAAAAAAAAAAAAAAABQqAD5KiEM9s9sEuppH3ClYq08y61TFGnUZe6eTl5FX3Jd/soTNwTePjNG1yKipii7yovZMrRlJuUc9B5r/chnh85I7Rg6VotukGYtOZfq45omtfY+2R6q2zpPTPwV3Blidwo5WfiPZ2F8Kb5MbY6201urEa2Z6W+o9tFUKmWr/wAibejw8rlLv8hZGy3tRGSK+e2K2F7uE6heurE7yD/cvJLxPkuUjJpNoVV0TtSqp5qZ2OrxrOC74D+pSfqCUXGaLugTbSu9P7e0564fWfNUSL23qToBVlSL4z0f6DZnTVjXojmua5rt9rmORyKh98w1ZUF1ljxy5Hw634j3tO77LKrvmo9M/wBYYdVxCvozHR/uGbTdxD6Uv0n6DZ/meH9qDM8P7UNYPstqu+qj0z/WD2W1XfVR6Z/rCzAhzSOj+JXDdvR+kh2Gz7M8P7UGZ4f2oawfZbVd9VHpn+sHstqu+qj0z/WDAhzSOj+Iw3b0fpIdhs+zPD+1BmeH9qGsH2W1XfVR6Z/rB7Larvqo9M/1gwIc0jo/iMN29H6SHYbPszw/tQZnh/ahrB9ltV31Uemf6wey2q76qPTP9YMCHNI6P4jDdvR+kh2Gz7M8P7UGZ4f2oawfZbVd9VHpn+sHstqu+qj0z/WDAhzSOj+Iw3b0fpIdhs+zPD+1BmeH9qGsH2W1XfVR6Z/rB7Larvqo9M/1gwIc0jo/iMN29H6SHYbPszw/tQZnh/ahrB9ltV31Uemf6wey2q76qPTP9YMCHNI6P4jDdvR+kh2Gz7M8P7UGZ4f2oawfZbVd9VHpn+sHstqu+qj0z/WDAhzSOj+Iw3b0fpIdhs+zPD+1BmeH9qGsH2W1XfVR6Z/rB7Larvqo9M/1gwIc0jo/iMN29H6SHYbPszw/tQZnh/ahrB9ltV31Uemf6wey2q76qPTP9YMCHNI6P4jDdvR+kh2Gz7M8P7UGZ4f2oawfZbVd9VHpn+sHstqu+qj0z/WDAhzSOj+Iw3b0fpIdhs+zPD+1BmeH9qGsH2W1XfVR6Z/rB7Larvqo9M/1gwIc0jo/iMN29H6SHYbPszw/tQZnh/ahrB9ltV31Uemf6wey2q76qPTP9YMCHNI6P4jDdvR+kh2Gz7M8P7UGZ4f2oawfZbVd9VHpn+sHstqu+qj0z/WDAhzSOj+Iw3b0fpIdhs+zfF86FnaZbK1voGrumqiicmC5LXa8y+KFmMi/I013zaT1Spg6pnVHe1dM88+Gmc5Uaxqvc7gta1NZzj7s3FJSqt+Z1nmbq9sTzvXbKUmyzL6/0nwM3bNO2emuDXU1I11JSv3nucvHTM/KT3OPf34+Ve32DF+gOglRcallNTtxc/hPk9rFDyPe/wAfIZG2N9qxcaxWvnYtvg7L50wnd8CHf3vLpEvgUmHse7G1LbIUhpY9ROV8juFJK/8AHe/sqvh/9/XN0xI0Qz3PR/fHI/S2v9yO3vdR5JSh56l3u6J7WIzfljY70Cit1JFSQpwY0TF7umkl9u9/bVV3/wD2LrxOSIUwIjccU4pTio1qXjjGOcl1ppLSEtpxJRigcioBQ+wAAAAAAAAAAAAAAAKFQAUwKaidpDkAUqOOWnaT5hlp2k+Y5ArWUswzHHLTtJ8wy07SfMcgKxZhmOOWnaT5hlp2k+Y5AVizDMcctO0nzDLTtJ8xyArFmGY45adpPmGWnaT5jkBWLMMxxy07SfMMtO0nzHICsWYZjjlp2k+YZadpPmOQFYswzHHLTtJ8wy07SfMcgKxZhmOOWnaT5hlp2k+Y5AVizDMcctO0nzDLTtJ8xyArFmGY45adpPmGWnaT5jkBWLMMxxy07SfMMtO0nzHICsWYZjjlp2k+YZadpPmOQFYswzHHLTtJ8wy07SfMcgKxZhmOOWnaT5hlp2k+Y5AVizDMURoKgoXFAVAAAAAAAAAAAAAAAAAAAAAAAAAAKFQAAAAAAAAAAAAAAAAAWTpZsw2mgligrrpb7bPUNY6Gmr62mppZm6+oixsnkhkkxfxe8i4r4cUL2AAAAAAAAAAAAAAAAAAAAAAAAAAAAAAAAAAKYAqAAAAAAAAAAAAAAAAAAAAAAAAAAUKgAHVqqRr2q17Gva7pmvajmr852gVhGrIUjCEcpYNZsIWmRcX26kx7bIWR/wACIdb7gNm974PNUyKUwPWmemUwqg6uH+4r2RPBGQllfUp5OBj37gFm97qfzXfaPuAWb3up/Nd9pkLAYF2qEzuy+Vc7RqfLbijk0dhj37gFm97qfzXfaPuAWb3up/Nd9pkLAYDVCZ3ZfKudo1PltxRyaOwx79wCze91P5rvtH3ALN73U/mu+0yFgWXpZsv2mgligrrpb7bPUNa6Gmr62mppZW6+oixsnkhfJi/i+Ci7/hxQaoTW7L5VztGp8ruKOTR2HR+4BZve6n8132j7gFm97qfzXfaZCwGA1Qmd2XyrnaNT5bcUcmjsMe/cAs3vdT+a77R9wCze91P5rvtMhYDAaoTO7L5VztGp8tuKOTR2GPfuAWb3up/Nd9o+4BZve6n8132mQsBgNUJndl8q52jU+W3FHJo7DHv3ALN73U/mu+0fcAs3vdT+a77TIWAwGqEzuy+Vc7RqfLbijk0dhj37gFm97qfzXfaPuAWb3up/Nd9pkLAYDVCZ3ZfKudo1PltxRyaOwx79wCze91P5rvtH3ALN73U/mu+0yFgMBqhM7svlXO0any24o5NHYY9+4BZve6n8132j7gFm97qfzXfaZCwGA1Qmd2XyrnaNT5bcUcmjsMe/cAs3vdT+a77R9wCze91P5rvtMhYDAaoTO7L5VztGp8tuKOTR2GPfuAWb3up/Nd9o+4BZve6n8132mQsC2LHsiW6pqJ6Smr6Krq6L8Koqaqglqadek4+CORZYt/uyJv8AyDVCa3ZfKudo1PldxRyaOw8T7gFm97qfzXfaPuAWb3up/Nd9pkLAYDVCZ3ZfKudo1PltxRyaOwx79wCze91P5rvtH3ALN73U/mu+0yFgNUaoTO7L5VztGp8ruKOTR2GPG7AdnTBed9Pvdtpcti0PpKZMKamp6Xt5ELI8fMRP2nuoFQ+Dk085Cpx1S99UY9Zc3Jy7ca22ko3m4QOaIVKFT4HuAAAAAAAAAAAAAAAAAAAAAAAAAAAAAAAAABb+m1e6Gjq5Y11ZIKaqlY7DWweyF7273gLgLb2R+t1f8SrfqJADT5sHbaHZW0k3VzmreeK2/c26vvbRumy90ZmSq7rp6fXzciTDKx6TsbxmXYT5pNfbZdorJpxRJSrK6GJbkkG5aiBz8WNqKiOP71qKaWTDGWhSHK41UzsMpPM5hl/9qf8A8N//ALufPm31DT62jsiaqVTkvEblbhrOpWbkexH8vSyPfleUl8OAG1R8iIiqq4InKqlhWvZ7sU1RuSG9WmoqldlpRQXKjkqVk/EyWSrLr9jDA13c0z2bq+m0Y0WtkcskC323snujmLqumZT0tGmQ/txyy1D5ZU7cUeOO+eps58zYsNBoTPW00UjbvbLdBcJro6eZ26JY2Mkqo30skq00ccsavSPIhiliVsXGS8akwGz8x7pZs8WOglWnrr1abbOiYupq640dPKje3qSywyJ8xr72JtuNcm7F10uC1EjrnZ6jnJS1z1V0+pO+jyZ9dceMgp6uREkXuEa7/KdHmeu0OsV+sDrve4JrnVXKprWxPdVVMOQyN+XmcRLBmVE0mvKslRnJhl73LiBJvmi+yRPBobWV1qr5KeTPtiQ3G01T43aj6yKOTLnp5E5UxjXCXt8h6fM5dNKms0OtlXX1dRXTyPuyz1twqHzyubHcKuNmZNO9ZMIo2ImKrvIzsYGLNvpsQ0dh2OKm129rmU1JUW7UzXa0qukubJnve/e13rI9f/SEDqbbWTv0WsehlsnZbUq31Md7udRJkxff1zqJI6XOVeLpIqeVk1XKib6YxciTJKBux0J2ZrPcnvit11tl1liYkksVtr6aqcxnSa72QSzajFXexXBP2nLTTZms9te2O43W22t8jdZkdyrqake9nbYyeWHHxoYQ0I2IKLQDRK4yUMbZ6qht1dcKqtkRMyvuMFNJJGsu9xcCPTJhhTeiiXsySzOl1M7BOydonJLca3TSlvOkVfcJFdFJRStbG3Xw155HpcbTK+oWRcMtVlhSLDe5cAN/NmvUNTEyenmjq4ZW60c9NIyWKRnbY9irG9PEp4dp2UrbPUVNLBcaGpqqBHrW0cFVTyT0qRu1H58LJFlgwXexnRMF8Rqy5lJsssi0oulpt0lWtjuEFdV0VJcXMz4XQTRrBI9kck0SVC0z3wzbnVc1UjX3JDHc2xhWXzZG0islNXSWuC8193huk8XTSWyGfdckOpi3MWWSCPBOz2eKzUUDcvobskW64pK6gr6O5pTuyp3W+qhqWxTdzkWCSbLk8C4KYr28WyVXWfRW7XK3TbkraJlC6nqMuGbUWStpoJOBPHPG/i5HpxsXZ+bs7VralW7RGlqaW3TVlSytmZUTSXCSGR+YxiRo1mRT0yIzBORWquPZ5cbT5ph/Ye/eTt3+Z0YBBnYm2YNmK+0TLhaqnd1HK+aJlRk6LwIr436kiZdRFTy8Fd7FYiYGk9FpPJoG2O8Xun0U0jesiVd4r6qkoIGf9oSZEL623/e9PnUeRGktBxuO9gr81CBu1O21WnNpssNHYtG+fVuZNVSMruc94rdaZ70fIzPo6iCLipFVMMMUxJbbeLS2vr9jLdl0pud9wq+cstZQ5M1NkTLWx4x5FQ+aWPk5J1x7fYAL5gr7hRbG1dLJf2X64Udpu700ktNbJUosrHT6iwXBipLLJR70O6Fwlxj38FTet3mR+yNcLnYLhNca6sussV3nhZPcamarkZAlFRvSNj55JpNTXe9dT8vHsqWPsCf9zNZ/uvSr+drTHu0I2S5bPscaVXKBUSejr6xadXb+pVSUVvggkw7OVI9kuH5ABso0u2crJb5cmvvNrtkyt1kp7hcKOmk1O3qTywyYfIXfb6+OZjZInsmjfvslie1zHJ+Q9i4L40NA2wFp9oSkFbLpdR32+3OtnmeyoopG5UUb2Y56vW5UEslZNKskkq1GfEuEW91bGVfMdtlSVbperLBLUS2rImudvhrNTNh1KqODHUYqxxyTxTsWZIOKWWPwoAbXAAAAAAAAAAAAAAAAAAAAAAAAAAAAAAAAAAAAAAAAAACBfNm/7J0v++7f/J3AnoQL5s3/AGTpf992/wDk7gARY2FuZTVlzstDfLffm0tXXUzKymo5KN8LY3rjxe7oqyaRmGHVUou1vJiZm5nZtsr029VOh2kUstTVU61sdFU1L0lqYqui11qKOSfFd0RLHG+aGZc1Uy1TGWOWLJlrtDZETQ3R9VXBEt0OKr8N5ry2GLnHedl+Wut2E1JFW3SpdUxcKNaaC3yUjqjtZdRUaiJJivV4wDYdtkNuVYtFkY251D31M7FkittCzOrHwoq8ZqLJBHHEqsy2yVE0SSLjhjlSYWXsE80r0Zv1VHQwSVVtqqhyMpoLvFDBuiReRkckFRWxZki7zIppY5JFTBNbFMYa6KULLpsyVDLkxtU2nrLhkwT8Jv3jQSJSIjN9FyMuOZN7lZmFxc2rsVPBPo9XxI2Cvl56RvqIuDLJDBuSSB6yM1ZPvSSR+WvYzF7QBsZ2Z9mu2WCidXXSpbSU7XajN5zpJZsFVsMMbMZJJF1F5E8aonJFrRjmvmi9VVR0raa9ROnkSGKeSjpnxuke/UZg2CtnqONVUw4jHwIRY5q/pNU1dRolFVudFFPaYauXsNbW1UkbKp+p+PExkfix+Q2xW7Y5oIaekpGUlO2mtqwLQwLDG5tO6DDJfBii5ckSsR6SImt4d9QDV1zWv+1+jfxSh/zOcnxtmduHZ9E4qd9zdPNLWOwp6CgbDJVOj39edWSy00bIIcMtZFm31VETWU1/c19ve5dKrBU6mclLQU1RlY6uvk3Cok1Pl1P2lpbWDSGK66fpPpvHPHcqrUltlFcI8qlhrXsjnoaSSCffjjSnkxpInKnHZWvmyS4qBtUpNnmkbZ0vtxZUaPUOU2pe29MZHUxQSYZeZBTy12Eky6mXC1VmVXpHlJJwSM9NzYnRF1QkKsu8ceOru59HDufD8dWMrHVOH/k8cewWNzbG8TMtNmgYrkp6i4VUs+r0qzQQIkCO9PMvjQxnQaLbIdw0Wp7FT6I6Py2Wrt9JuSqimokndHJCx8NyY999y92S4pVZy0/VX4qm+qAGx3TzbC22gscukKvfcLbDBDUtltupI6WF8kcbFhzJKeNcXyJ1WWLDBU8Bg7SbmpWi9Lb6C4OdWzOu0Uk8NrpoYJK6KFk8lO99SzdKUsHGQyIiLWKq4Y4cqmBabYivFj2KNILdeqdaKeCd8lNTrPT1GrQyVVvkTh08lRFv1GeuGOKYp2z7cym2rtirrFNdbhbqS7VVRXVVO3nlAyqiipoWRasccE+dEj8x8kiyauaqKiY4IAbI9H7w2oghnajmsqYoZ2Nemq5rJGI9NdPx8F307Bqe5t71xsPxK4fXRm2+GBrURrURrWpgjWpqta01Ic29642H4lcProwDYRtnttXb9E6SnrbjBW1MVZUbkjbbo4ZJGzakknDSoqaFMvBipvL/AImFNO+a36J0VRkRrcLrgjdaptVPDJC134mvUVNCsmGPLBmpy7+8WFzbLrDaf97p/JVB7F12OaOLYhym08aNfo/S3R3AZv3B8cVXupfzmZ7pygF56bc1V0Qo4KaeOpqro6uiz9zWynY6eBmusepVtqJaGOCTMR/FLMsuCJIiLHLDLLl3a3bbKz6VQSzWuWTXpFjbV0VZGkdTT5mOXrsjfPGscuo9EkgmlixYuO/ihFfmNOglL7HrnVvhifPXXOpo5pJI2uc6ihpKRWU78fc8yedcpcUXMMU8yZt7YNLtJaeJNSGCmrY440XgtZHc4o40+SMAmBtg+aOaO6N1slvrEuNXW02TnU1BR9TSaPMY/MrJaCKTi9Tfp5peqIm/qzZXr7W7b5aP6USrTUE1RT1rWSSpbrlC2CaSFi4PezLkqKeXV6rlwzrKkeLsN6XCLekG3/ul10hqqTQzRiguldS68DrvXxo+aaipZpIcx8kclBuej15uKz67eWTfRFmykwHsWXC7fdWopLxR0tlustZC6toLbqbmjWe04YMy6mvRVrKd7JZVSolxlnlxwXFADZPtktvZo/otI2nuEtRU1b2Ml5326Js07YXuwSSTMkpoY0XBVRJpkkXlRFxxMJ0fNldGZHtZHbtIZJJHMYyOOjoHOe968BjGpdl4aqqJvIuK+NCP+2ruS6KbJlPpHdKVbhbat7aynSLLdLlx29lA/UZI/USooqjUmiSZYkXUhwli5YmxdVVGmeyLSaR2a21VttdFJTT1dfURtj12U8b2P3RIxZolqKzBaTKgmlXK5epS4AbD9mbbYWbR+hp6+6TyUyXCNstJQJHmVs6IyN72RwsVUxhR7M2SWZIo1VEzcVai4g2I+ap6LXerjo0dXWmSoeyKB93ghjgkmfyMz6epro49/BMajKTh8pC/miVbX1WyLQ00NNBcpqdlihtdtuKsbR1T3vz2U82bLTxrHPVPfDKmfFm9TxQuLbNbCeyTpXDSxXDRS0Urre/Wgq7ZU2+GdsKs1Fpcye9VP3tiqS5SInGsRd5N4A28AsvYioaqK1WyOvRW10Vvt8dcjnMc7drKZjKjhx8W/jEeuMO92U5S9AAAAAAAAAAAAAAAAAAAAAAAAAAAAAAAAAAAAAAAACBfNm/7J0v++7f/ACdwIsbC3Mpqy52WhvlvvzaWrrqZlZTUclG+Fsb1x4vd0VZNIzDDqqUXa3kxJT82b/snS/77t/8AJ3AzptDZETQ3R9VXBEt0OKr8N4BErmdm2yvTb1U6HaRSy1NVTrWx0VTUvSWpiq6LXWoo5J8V3REscb5oZlzVTLVMZY5YsmW22Q25Vi0WRjbnUPfUzsWSK20LM6sfCirxmoskEccSqzLbJUTRJIuOGOVJhrx2GLnHedl+Wut2E1JFW3SpdUxcKNaaC3yUjqjtZdRUaiJJivV4z0NFKFl02ZKhlyY2qbT1lwyYJ+E37xoJEpERm+i5GXHMm9yszACZWwTzSvRm/VUdDBJVW2qqHIymgu8UMG6JF5GRyQVFbFmSLvMimljkkVME1sUxzjsz7NdssFE6uulS2kp2u1GbznSSzYKrYYY2YySSLqLyJ41ROTXNzauxU8E+j1fEjYK+XnpG+oi4MskMG5JIHrIzVk+9JJH5a9jMXtFmc1f0mqauo0Siq3OiintMNXL2GtraqSNlU/U/HiYyPxY/IASn0Y5r5ovVVUdK2mvUTp5Ehinko6Z8bpHv1GYNgrZ6jjVVMOIx8CEdea1/2v0b+KUP+Zzm0W3bHNBDT0lIykp201tWBaGBYY3Np3QYZL4MUXLkiViPSRE1vDvqasea+3vculVgqdTOSloKaoysdXXybhUSany6n7QDYDtmduHZ9E4qd9zdPNLWOwp6CgbDJVOj39edWSy00bIIcMtZFm31VETWUuak2eaRtnS+3FlRo9Q5Tal7b0xkdTFBJhl5kFPLXYSTLqZcLVWZVekeUknBNVe1g0hiuun6T6bxzx3Kq1JbZRXCPKpYa17I56Gkkgn3440p5MaSJypx2Vr5skuKyD5tjeJmWmzQMVyU9RcKqWfV6VZoIESBHenmXxoAXzTc2J0RdUJCrLvHHjq7ufRw7nw/HVjKx1Th/wCTxx7BJjTzbC22gscukKvfcLbDBDUtltupI6WF8kcbFhzJKeNcXyJ1WWLDBU8BrioNFtkO4aLU9ip9EdH5bLV2+k3JVRTUSTujkhY+G5Me++5e7JcUqs5afqr8VTfVC8qbYivFj2KNILdeqdaKeCd8lNTrPT1GrQyVVvkTh08lRFv1GeuGOKYp2wDPWk3NStF6W30Fwc6tmddopJ4bXTQwSV0ULJ5Kd76lm6UpYOMhkREWsVVwxw5VJX6P3htRBDO1HNZUxQzsa9NVzWSMR6a6fj4Lvp2DW5zKbau2KusU11uFupLtVVFdVU7eeUDKqKKmhZFqxxwT50SPzHySLJq5qoqJjghsxhga1Ea1Ea1qYI1qarWtANfvNR9uDcLMlHY7NM+nuF3iWeoqoPwmGie/IgipcEXUlq5WTpm700SRoke/LrQ4bsvMfr1UQMr6rSFtNeJUgnyJIZ58ufgrqSXJKnNzIcOWKCVMWIiLySHkc08xotPbHcKnfpEgsVRrqms1kFLcJ1nj+TDN/WIbdaCvZKxkkTmyRysY9ksbtdr2PTFj2vTeexUXHxAGINg2yTaN6N0sd/ue6ZrZBNLcbrWVEksbcZHyIzPqMJHxQRvZDHim/lonZRDAldzYbRJlQsCMu9RE12rzwho4dzOZ3TUkqYKrU/8AJ63JvHm82Zvk0Wi9JFGqpFV3iliqdX20bKWsnZG/9bGyXxxl97W3YutjtjmkpXQQ7luNkmqa3WYx2vUzwySVE71ROqRSdSlVVliy4t9MoAkRoVsvW+529t0t1Syvo5I5JWTwIvtE4bHMlSCSOROzFOkUnbRCLlv5rhom+gfWuW4QOinyGWyWngdXTYR5mfGyOqniSn9yzZ54uNTDDsmAOY3X6d1t0qpXK51NCyhqIm+0bUzwV0c3pY4IPRoeDzFDRCnlr75WSRtknoKe2xUsr01nRMqn1efqb/AfLkMTxY9sAnBtbdv1o/pRO+koXVdHWRsdK2gucLIpZoWdPJAsEtTFIkeO+zOzcMVy8EVUijt8eaLPpbvRWyyVlTTss1dJ7IJ4ItRZXxzRxvoIc3VzMlGTpKuCRSyPiy5d5VLO0jtEdHs1RJTNSnbLWUcqxwt1U16uzMz1wTlzpJJJZe3mSHpc1V/tpor5G3f5tIATf2rW3RtelyV622nuFNzo3EtRzyhgart1LUZeSlPU12vhuaTHk9phiYe0s5sFopTTuhZFd65I1c1aijo4GRq/XcxU1KysoKlFTVxXGBOmTs7ySv2YtlCnstrrbrVI5YLbA6eRke9I9eSOFmO8kk0j2RJjgmLzXVsa7bTTC/R1j9FdCbG21ySVLKttSxiRTzyPWWaOaZ9bYqWolclRmTJkyKrpZJF6qoBPjYG2xFp0kpHVdqqd0sjflTQuZJFPBNhjlzQv30xRcUkTGOTfwVcFIh7TObQ/2a3xtmgv0d3Rl33Ut0dRc7oo2XCBlWlLkSLVcbULGsaVmauUnuWOC4g5iHVO3dpBGjl1H0tre5vbeyaoRi/Ikj/PPnzOT/vK0k8lpP8A5vSAEy9MOaLaOW673GzV7qqgns0TpZqyeKFaWZ+pBIkFLl1E1TJPIk6YR7jRV1Je1itp7GnNXdFLjXRUH/aFudUSJDBW3KmgjpZJ3v1GJrwVNTLHnKu9JUQRRJv5iwkSb5onT12zM6mqo2VEDrgyV0UrUcxz6eypUR67Pb8ZCxe1vF4c280fha7R2pbG1k8rbvA+VrU1nwx7hfHG9cPcVkflpj7pKAbJtlPZWoLLRTXC51LKGlp04c0mLsXr0kbI2JmSSy9iKJFVd/wqRMsvNgtEpalKd7LrSsV+pzwqaOFaZGayJmruepqKrUw4z8Ex5cUQj5zYTSiodbtEYHOesNRT1tXKrvdqxkFAxkj/AM5FHPJ6dTnpzoFsj3fR+KxLofo/HbMil3HLQT0UcsDWZcjJ6WSS/TRxyS7+ZJkcakkuOOaqgGx3ZP2eKC12aa/vc+vt9PBDUpJbMmZ00E74445IcyWCKTFZGKnHJvftwNpNzUnRelt9BcHOrZnXaJ88NrpoYJK6KFk8lO99SzdKUsHGQyIiLWKq4Y4cqmIL9sbXWz7Edxt15hWkrKNj2tgWaCfUpn3aCSPjKeSaL26rgkq4Hlcym2rtirrFNdbhbqS7VVRXVVO3nlAyqiipoWRasccE+dEj8x8kiyauaqKiY4IAbI9H7w2oghnajmsqYoZ2Nemq5rJGI9NdPx8F307B6p8IYGtRGtRGtamCNamq1rT7gAAAAAAAAAAAAAAAAAAAAAAAAAAAAAAAAAAtzT+BXUNY1qK976WsaxjExc56wvRGM8KrvInbLjABou2rGkmnuiG7udmidfUrdtxZ6XOxXmTV3JunLWPc60OGO6pMxZc3kjwwwXHM+gG0z0t0yvdPd9M2voaKlyPvWdsUcktMx+YlBBSRrjTxyqq5stRhIiPk6rJybagAQy5pFtPqjSe20kltax1xskkzqele9kTamkmZGk9Ix8ipEyTGCCWJZsIuBIm9m4pHTTzZs09vFg9iq6G3CGsqIILfWXuZk0cE0MGXmPbn01PRRSVGphJKtdLFg+RY0TFqxbWAAQe2P9oO+HQCs0XmliZcLrmV9ROzF0DLuklPPAxH4JIscO5KallkRFxRJFRFxRCP+1s2VtNdCaOWxT6FXK+xwzzT0tTQsqXRw5juGzPo6K6Q1EayMWZERYpUzF38Fiw2wgAgjtsKTSC+bHcu7LRNHequohfNZLbBNUSxQx3bGBGRx7qleu4mQzSr4ZOo9STEuxrzPVl22PqeCS2utGkkU1yrI5a2B9JVyVMdVPHHS1e6I0k3PPTMgjj5Io+Kl7sk20gAECNo1erxdLDXaK6T2u8UKx0VRQ09yr6GshjqbXOx0C061UsSRLUUSPwi47jYcvDHJlVcG7BlBprscVFwoE0cqdLbbWzJNDLac1zVmY3U3VG+mprhJBnxoxssVdAnU48FTll20gAjNtWNnXSW91NVJdtHn6L26OFi0TKxJt2SVWdIx7ZN0NppNRI2IqfeMPbxVJYiKm192IrvDsp3W4TWq4wUEtTpC6K5z0VTHRyMkR+W9lU+PJfne5YT7/YNogABG/mg2i1VXaH3mlo6eor6mdtvyqSjhfPO9I7hSSSZcMWMkipGySXBMd5CSAAIk8zF0MrKDROmpq+kqbdUMq7i51LXU81NM1r5sWPWOeOGRMU7OGGHyHZ5pdobV1+iNdTUNLUXGplntjmUtFBLUTuaysje9WRRxzSbyJiu9hgnaTBZWgAgBsJ7Gtxh2KKq3S0FZDcXW7SSNLZNSTtrFklqquSONKV8ear5o3MysIceG0t/me21uq59C9ILJdqOtszrxW1rGJcaWamlaySgo446tkNRHCsjIqiPFOwqx4bxsfABqg2vd/022PWVdol0UrNKaGWpfU0stnz5GNnVkTJJGT01HcOImjZGuTUU8EqSpIvLnITU2qezJpFelr573YV0XpWbh5001Rmbql1917qzs3Ik4piUqJjRQb75OXfSGRYAAAAAAAAAAAAAAAAAAAAAAAAAAAAAAAAAAAAAAAAAAABGLb+7Wyv0qskNtt8tLTzQ3CmrXSXCSaOLJjgqo3sTIp62TMXPZhxWC9vsEnQAalrbzMPTx1Oy21GlEEdrRjoVoILreZ6dsGq/i20L6anpljXky0w3nqTT2oW0kt2iEMq07319fWoxlXdKhqRudHGu9TwQo+bc9P7qsaTSrK5EzJFSKDKksACEu2u5n/PdrtDpHo/cW2K+wZKukla7IqJoGakE75GZ0kUiR5cEvETRTQxpjF02dYVs5nRpBe7rS3HTi+Ut5ZbnMSOgtsa5U0DH5mQ/72tMVPHNJvTZFFLLMmCZqbyxbFwARf2620tp9MKOnbn87a62rOtDWLFmx6kmXmQTx4w4xzZbN9FxhcmKY4yxTYY0E2rWyW3cNFX6W0TLVRSUuu2jdNJWSUkL04h062631MqSx8WudXr8uCGwcAEFdu/tHLtpLfbTc6Cot8EFrhpYZmV81SyVzo6ySoVY2QUdQxUy34b80S49rlLg2+20VdpUylrLbJT2+829zY2VlS6aOKaj11flSSQR1EsckEvHQyNhXDXlT3RFimUACL2k+1grNI9FobLpVNTuuVMjFZdrTJNP99QM1IK9UqKeh42aJ74qqFEy5deXLlhWVuRgDQ/agbJlppktdq0ttkdrgxZBuiN7qmOB6cNI821V8sGWqvyooK7BN7BYscE2QAAivprtZbvV6D1Gjk9zbd7tUxyNku9ydM2KWZ9z3dg933/NlwxruWLBOSOLi4d5IvY2im14rdF7Clrr5aWeoSrq6rXt75pIdSfL1E1p6emkzE1Fx4rBN7lJIAAEFOaJ7Rq7aXVdsnttRbqZlup6qGVLjNUxvc6R8b25eRR1vIjFxxwJ1gAibzQnarXHS22UNFbpqOmlpK7dcjrjJNFEsWRPHgzIpq5VkxkRelTex8Bct32vVbJoOmjLZaVteljprTnufNuPdMcMcb35m587KXUVeoY/mk5CRoAIxbQLa2V+itkmttwlpaiaa4VNa2S3yTSRZMkFLGxi59PRSZiZD8eKwTt9gxxtLdpLddHNILzdq2ooJ6a7xVcdNHRS1Mk7c6tjqGLMySmgjTi2YcVNLv8Azk5AAa04OZz6VWS91lx0Sv1Bbaa4uma7d7HunhpZ5s99OsDqG4U1RkKnFSqsMi/msVx9rQrmcN3otLLTpC+7xXnIcyqvNVcHSx1k9w1KiOTcsMdPPFufLdBHFn1ESojJN5OKNiQANQuyTSXLTTTqqqNEJFtFZozDJST3m4VeXGuS+elzIIY6aomjSbXnhROOSVOMfkY4Hy2atkjZG0Emt9ZdL7SXmGulkYlI2RKiGVkGW+SGSOeiopo8U1OOocFi1sMxM3B0kdkzmYMc11qLxYtILjojVV755ahaFj3tV06682Q+nqrdLFHNJhKsSzSpii4YbyRfbY+5l3SNr4blpDerjpjVUrmOjW4K9sLlZgsedm1FfUvZDq9SWtSJcORUVYwC49t7tIIdMEoLnT1L7Jd6OGHIq1Y9zXwa6Tshmy1hljkp5ZJJYpod9FfJvLiixY2btYtlOqY2kr9MqGlo1TUfPa2P3Xq6ur1SO22iokXV39+uRVXxb2w4AAAAAAAAAAAAAAAAAAAAAAAAAAAAAAAAAAAAAAAAAAAEYtv7tbK/SqyQ223y0tPNDcKatdJcJJo4smOCqjexMinrZMxc9mHFYL2+wQztvMw9PHU7LbUaUQR2tGOhWggut5np2war+LbQvpqemWNeTLTDeeptpABGnahbSS3aIQyrTvfX19ajGVd0qGpG50ca71PBCj5tz0/uqxpNKsrkTMkVIoMrHe2u5n/PdrtDpHo/cW2K+wZKukla7IqJoGakE75GZ0kUiR5cEvETRTQxpjF02dNoAGui2czo0gvd1pbjpxfKW8stzmJHQW2NcqaBj8zIf97WmKnjmk3psiillmTBM1N5Ys77dbaW0+mFHTtz+dtdbVnWhrFizY9STLzIJ48YcY5stm+i4wuTFMcZYppQAA18aCbVrZLbuGir9LaJlqopKXXbRumkrJKSF6cQ6dbdb6mVJY+LXOr1+XBD3du/tHLtpLfbTc6Cot8EFrhpYZmV81SyVzo6ySoVY2QUdQxUy34b80S49rlJ1AAhrt9toq7SplLWW2Snt95t7mxsrKl00cU1Hrq/KkkgjqJY5IJeOhkbCuGvKnuiLFdOk+1grNI9FobLpVNTuuVMjFZdrTJNP99QM1IK9UqKeh42aJ74qqFEy5deXLlhWVuRKEAGt/Q/agbJlppktdq0ttkdrgxZBuiN7qmOB6cNI821V8sGWqvyooK7BN7BYscEzxprtZbvV6D1Gjk9zbd7tUxyNku9ydM2KWZ9z3dg933/ADZcMa7liwTkji4uHeSKVAAI37RTa8Vui9hS118tLPUJV1dVr2980kOpPl6ia09PTSZiai48Vgm9ykkAACPe3C2oNDpdRR09S91HV0bnvt9yiZmOgfJvSRyRrgklPNqRrJGjolxjjwlTAhLZ+Zm6e0zEoabSyOlteKx5FPdbzE1IX7z13DHTpTY8vFZ+C90NrwAIz2/aa082h8OitzqX1yRxPxuULMuVtbul9UyqjSR8y68Uj8MXOXNjzUXelVEjFQ7QPT+koZdH6LSqgTR+bOhdHIyaOp3JPvzxsYlDUSRRyq5+NLBdMlcyTf42XHZqACPG1k2o9NovZZ7ZSSrV1FbnSVlxmYkefUviy2YRpn5cESYJHGqzImMi7+auOKOZ0bSm7aIPu7rlPb6lLoy2JCttmqJNXcu69fMSemouXPZhgipvLyE3gAQY0r2kN2n2Q4tLWz29ttjmopXU7palK3Ugt8dI/i9xrT4rIzH8M6l4d49nb77Rep0qkoK621sNvuVqa+Ji1eY2GWBZMxnHQRzyxyQSa6phDKi5i8mG/M4AEPdA9rPpPcLTe7XplfKa6Nu9LS0tEtrhja2iyHyybo/A7Ukkqy5C8bCq8R1VMTCew5tAtOrVDNaINKaK22KsmkfUc7o5JK5zZFZG98OfRQPpJJY2YLue54Jh7rv47LgAQm2jO0XrNEbnep5KmlqqC4pHDbsmSZ1W2mjnkkj3VHJTwRsky3sx3PNKmZj2DytqltHLvYtLbtfquot0tHdWXdsMVJPUuqmbrr4KuNZWSUdPFvRx6smrMu+vZTfJ3AAgnR7Ry7N2RV0u3Rb+dufJNubOqd3Zb7Y+hwy9x7nxzVxw3X1Ls47x7PNGNpndNL2WhltnoKZbU65un55S1EaO3VuTUy9z01cu9kPx1kRN9PDhNMAEcdsZtP6XSax0tqrJVpKq3xQvo7hA1JciqZCkT1Vj0p8+nl5JIsYVVEjwysEI7aLbVLZQoKeO2Uel1sit0GpTxOex0lVFSYYLqOktM8zFiZhlRJXoib2EkWKYbFwARs2T9rpca7QqbRxa9lwuc9HS077tc3zNbPUx1Mc8kk7/AL/m39R6e6ryHPaKbXit0XsKWuvlpZ6hKurqte3vmkh1J8vUTWnp6aTMTUXHisE3uUkgAAAAAAAAAAAAAAAAAAAAAAAAAAAAAAAAAAAAAAAAAAAAAAAAAAAAAAAAAAAAAAAAAAAAAAAAAAAAAAAAAAAAAAAAAAAAAAAAAAAAAAAAAAAAAAAAAAAAAAAAAAAAAAAAAAAAAAAAAAAAAAAAAAAAAAAAAAAAAAAAAAAAAAAAAAAAAAAAAAAAAAAAAAAAAAAAAAAAAAAAAAAAAAAAAAAAAAAAAAAAAAAAAAAAAAAAAAAAAAAAAAAAAAAAAAAAAAAAAAAAAAAAAAAAAAAAAAAAAAAAAAAAAAAAAAAAAAAAAAAAAAAAAAAAAAAAAAAAAAAAAAAAAAAAAAAAAAAAAAAAAAAAAAAAAAAAAAAAAAAAAAAAAAAAAAAAAAAAAAAAAAAAAAAAAAAAAAAAAAAAAAAAAAAAAAAAAAAAAAAAAAAAAAAAAAAAAAAAAAAAAAAAAAAAAAAAAAAAAAAAAAAAAAAAAAAAAAAAAAAAAAAAAAAAAAAAAAAAAAAAAAAAAAAAAAAAAAAAAAAAAAAAAAAAAAAAAAAAAAAAAAAAAAAAAAAAAAAAAAAAAAAAAAAAAAAAAAAAAAAAAAAAAAAAAAAAAAAAAAAAAAAAAAAAAAAAAAAAAAAAAAAAAAAAAAAAAAAAAAAAAAAAAAAAAAAAAAAAAAAAAAAAAAAAAAAAAAAAAAAAAAAAAAAAAAAAAAAAAAAAAAAAAAAAAAAAAAAAAAAAAAAAAAAAAAAAAAAAAAAAAAAAAAAAAAAAAAAAAAAAAAAAAAAAAAAAAAAAAAAAAAAAAAAAAAAAAAAAAAAAAAAAAAAAAAAAAAAAAAAAAAAAAAAAAAAAAAAAAAAAAAAAAAAAAAAAAAAAAAAAAAAAAAAAAAAAAAAAAAAAAAAAAAAAAAAAAAAAAAAAAAAAAAAAAAAAAAAAAAAAAAAAAAAAAAAAAAAAAAAAAAAAAAAAAAAAAAAAAAAAAAAAAAAAAAAAAD//2Q==;clipPath=inset(0% 35.33% 0% 0% round 5%);" vertex="1" parent="1">
          <mxGeometry x="649.6666717529297" y="760.5333213806152" width="238.89" height="115.75" as="geometry" />
        </mxCell>
        <mxCell id="e_KA3uBAL_2bLxz84az9-41" style="edgeStyle=orthogonalEdgeStyle;rounded=0;orthogonalLoop=1;jettySize=auto;html=1;entryX=0.5;entryY=0;entryDx=0;entryDy=0;entryPerimeter=0;" edge="1" parent="1" source="e_KA3uBAL_2bLxz84az9-38" target="e_KA3uBAL_2bLxz84az9-29">
          <mxGeometry relative="1" as="geometry" />
        </mxCell>
        <mxCell id="e_KA3uBAL_2bLxz84az9-42" value="" style="rounded=0;whiteSpace=wrap;html=1;strokeWidth=8;" vertex="1" parent="1">
          <mxGeometry x="1959.1666717529297" y="230.53332138061523" width="680" height="410" as="geometry" />
        </mxCell>
        <mxCell id="e_KA3uBAL_2bLxz84az9-43" value="Amazon ECR" style="sketch=0;outlineConnect=0;fontColor=#232F3E;gradientColor=none;strokeColor=#ffffff;fillColor=#232F3E;dashed=0;verticalLabelPosition=middle;verticalAlign=bottom;align=center;html=1;whiteSpace=wrap;fontSize=10;fontStyle=1;spacing=3;shape=mxgraph.aws4.productIcon;prIcon=mxgraph.aws4.ecr;" vertex="1" parent="1">
          <mxGeometry x="529.6666717529297" y="762.5333213806152" width="70" height="94" as="geometry" />
        </mxCell>
        <mxCell id="e_KA3uBAL_2bLxz84az9-44" value="Code" style="text;strokeColor=none;fillColor=none;html=1;fontSize=24;fontStyle=1;verticalAlign=middle;align=center;" vertex="1" parent="1">
          <mxGeometry x="619.6666717529297" y="560.5333213806152" width="100" height="40" as="geometry" />
        </mxCell>
        <mxCell id="e_KA3uBAL_2bLxz84az9-45" value="Image" style="text;strokeColor=none;fillColor=none;html=1;fontSize=24;fontStyle=1;verticalAlign=middle;align=center;" vertex="1" parent="1">
          <mxGeometry x="589.6666717529297" y="856.5333213806152" width="100" height="40" as="geometry" />
        </mxCell>
        <mxCell id="e_KA3uBAL_2bLxz84az9-46" value="" style="shape=image;verticalLabelPosition=bottom;labelBackgroundColor=default;verticalAlign=top;aspect=fixed;imageAspect=0;image=data:image/png,/9j/4AAQSkZJRgABAQAAAQABAAD/2wCEAAMCAggICAgICAgIBggGCAYHBwYGCAgICAgGCAgICAgHCAgICAYICAgHCAgIBwoIBgcICQkJCAgLDQoIDQgICQgBAwQEBgUGCAYGCBAICAgKCAgICAgICAgICAgICAgICAgICAgICAgICAgICAgICAgICAgICAgICAgICAgICAgICP/AABEIAY0E9QMBIgACEQEDEQH/xAAeAAEAAQQDAQEAAAAAAAAAAAAACAEGBwkCBAUDCv/EAGgQAAEDAgICBxALDQUFBgMJAAABAgMEBRETBhIHCBQhIiMxCRUYMjM1QVFTVGFxc5KT0xZCQ1VydIGRlLPRFyQ0UmJjgoOhpLK01DajsbXDGXWiwcIlN2SE8PEmROFGdoalxMXS1eL/xAAcAQEAAQUBAQAAAAAAAAAAAAAABwECBQYIBAP/xABSEQABAgIDBw0MCAQFBQEAAAAAAgMBBAUREgYTFiExUVQVIjNBU3FykZOho7HRFCMyNVJhc4HB0uHwQkNjsrPT4uM0gpKiJDZig8MlVWTC8fP/2gAMAwEAAhEDEQA/ANqYAAAAAAAAAAAAAAAAAAAAAAAAAAAAAAAAAAAAAAAAAAAAAAAAAAAAAAAAAAAAAAAAAAAAAAAAAAAAAAAAAAAAAAAAAAAAAAAAAAAAAAAAAAAAAAAAAAAAAAAAAAAAAAAAAAAAAAAAAAAAAAAAAAAAAAAAAAAAAAAAAAAAAAAAAAAAAAAAAAAAAAAAAAAAAAAAAAAAAAAAAAAAAAAAAAAAAAAAAAAAAAAAAAAAAAAAAAAAAAAAAAAAAAAAAAAAAAAAAAAAAAAAAAAAAAAAAAAAAAAAAAAAAAAAAAAAAAAAAAAAAAAAAAAAAAAAAAAAAAAAAAAAAAAAAAAAAAAAAAAAAAAAAAAAAAAAAAAAAAAAAAAAAAAAAAAAAAAAAAAAAAAAAAAAAAAAAAAAAAAAAAAAAAAAAAAAAAAAAAAAAAAAAAAAAAAAAAAAAAAAAAAAAAAAAAAAAAAAAAAAAAAAAAAAAAAAAAAAAAAAAAAAAAAAAAAAAAAAAAAAAAAAAAAAAAAAAAAAAAAAAAAAAAAAAAAAAAAAAAAAAAAAAAAAAAAAAAAAAAAAAAAAAAAAAAAAAAAAAAAAAAAAAAAAAAAAAAAAAAAAAAAAAAAAAAAAAAAAAAAAAAAAAAAAAAAAAAAAAAAAAAAAAAAAAAAAAAAAAAAAAAAAAAAAAAAAAAAAAAAAAAAAAAAAAAAAAAAAAAAAAAAAAAAAAAAAAAAAAAAAAAAAAAAAAAAAAAAKAAqAAAAAAAAAAAAAAAAAAAAAAAAAAAAAAAAAAAAAAAAAAAAAAAAAAAAAAAAAAAAAAAAAAAAAAAAAAAAAACgAKgAAAAAAAAAAAAAAAAAAAAAAAAAAAAAAAAAAAAAAAAAAAAAAAAAAAAAAAAAAAAAAAAAAAAAAAAAAAAAAFACoKDEAqAAAAAAAAAAAAAAAAAAAAAAAAAAAAAAAAAAAAAAAAAAAAAAAAAAAAAAAAAAAAAAAAAAAUxAKgFACzr3sqWumkWGpuNDSzN1daCpq6eORPbb7HyI/fTtp4jqQbNlmc5Gtu1te566rWtrqZzld2kRJVNcGyrCxb5eVfGyRVvFVHjI3W4GvIWRe2RrBIuVCxcmCTWjYxrteSbLJCl7lEvS6X794aK6quY0R66WLcwpm9fWXv4m5JCp0bQ5VhiVVxVY48VX4Cf8AM7uJH0YVRqN6gVAKFCpUAAAAAAAAAAAAAAAAAAAAAAAAAAAAAAAAAAAAAAAAAAAAAAAAAAAAAAAAAAAAAAAAAAApiAVKDEYgGP8AZd2WqWyUa1tWkr2ZkUTIaZrHSSzSbyMjSSSCPHBHScdM1MGuXHkMOpt/7X73Xr6LTf1o5oIv/YtN2+elF9VUEKqlkvDw1/8A53V6f9Wb9QNAMT7CnHoxhUurFE0enKbekXUobs4zY9sK7Yiivy1TKWKqpn0GQssVdGyJ+rPmZb2akk+KLlv7KfZljAhPtAUXd16x5ci0Y/vBNbW/YavS0oiUm3GW46xGQ2OjJlUzLNvL8JcD6AoijExJlSoAAAAAAAAAAAAAAAAAAAAAAAAAAAAAAAAAAAAAAAAAAAAAAAAAAAAAAAAAAAAAAAAAAAAAPGrNK6aNysfUQRvTpmSTMa5vyKuJ8/ZxR990vp4fWF1mObmKVwPaVxFjTfbvNpa6soobZLV875n00k7qiKHWmZ0+ozUnVWI/e1lXw4dgkWum1H33S+nh/wD5msLZDkbJebu5jmubz4qpMWu4Ks15OGbPc9RrU5MKbfTrLFe3DH6jXKepByTlr4z4fGSWm5oDlprTWaZkTV4ckdZDI5re2keWiv8AkUl7DMjmo5ORUxQ09X6jVtPIrlTqEEfTe3zjb1Z+pRL2o4v4EPXdJRUvIRavKbFu3ljGOTfieW5+kXpxDino+BiyHplSiDE0s24qAUAKgAAAAAAAAAAAAAAAAAAAAAAAAAAAAAAAAAAAAAAAAAAAAAAAAAAAAAAAAHFRiWFsj7MVttLYn3GqbRpUK5sKOZJI6RY8NfVZEyWRUTFmL0TDhM7aY3JSpUakwr3spYpaU41F8uXA1vu25ekdQr546qkoonrO9lMtMx+pBH23yR5i/KSwft1NGMOujfold/TGtqw18KwIx8rYnZdVDquTu7//APBvVzVGodW73UzihCFV9hGEK8ddVfqNOp+kHGW09zrz13uNcTN9ftutKI1Ym76V6vljg4NHDwZH/qz79FjpNy88aTDhr+Bw+5vy3+5mEbxe4FdGrZWv+/IJnavtWRsy/wDoOw+vp1ard0M4STt5H+6TZhv2okhXsSTSdWaQsp16uTOUtxrZ6qsnllgWaoqXyzyOZwXVT+M4DI+pnS0hZPkPxkp1bqMc5sTNV2prn2o73AsszllaxM9kjXO9syNh173Xw5D2tma9zoYImtanc35hlIIbaaihGbEY+DjjkwhSk6+tv6s3D2bqMPk4/wCBDumBLbt0dGWxxtdc2orWRoqblrfxPixfGxzs62m7LIy31jKt8LUdJErJo5GtXkflzxwSOZj2URU+c56clnU1qUhUIVxxxhGrjyE5IfbVCFlR8dlHZ1ttmfTMuE6061z3thwY+TVZGnDmky9bLiRVZHjy4yJvYJKsd9265RysZLE9sscrGPjljdrtex++x7XouD2Ki44pypvmt7Z10iW46QXSV+L46KTnXBG/hZcdLwJ08UtRryp4HmSNpPskvpa51kle59LWsnqbej3a2TUx8ZPAz83LHmTJ2svHlllNnmLnlN0eidSqvbchiNcZp5tyfVJxJ1goilTTzawAAAAAAAAAAAAAAAAAAAAAAAAAAAAAAAAAAAAAAAAAAAAAAAAAAAAAAAAAAAAAdStr2RsfI9yNZGx73uXsMYmL1+QA7BEHb66TVUS2elgqaijirX3F1QlLIsTpMllPqI97Oxw3+A5LzQ+lXFYrVcZoseBNxTUc3t4YmB9srti2Xqe1vZQVVHzvW4Ytly3Olz2QdT8lk75t9EUTMJm2VPM97rrjXVkqj7ajV6TpFlUs6ll3XlgMusqo1d33PhJSu/DH+7vy4zq2q8VKq9H3C447onhZq1b+kjZmHXZXoiIiUtXwWwN6TuD8yM8+yXXfkVaeoerameRuWnS5jMvLeS13LL2k6xPJkXpmpmyrvquUO1pPM+WJEfVVtQjX0smXUzvlbxn5HdD7Ps8aa3HVfAz/AHbufVDz73csI0RKeoZv0rdaZODxfUz0H3JF1saWr4efrcDunVD7tNto1qUHwdcdWlKlLJS8z1o0jrL01HPemTa3a0rtZ3/zBN/E1k7W/bDsstVcXyUFVVbsjoo0ji1GujyMzp/SGe/9obTN332i4MY3p5MYeC350Ijpui5p6cecbatIz4iVKJn2G5Vptx3XkqNIL/FSwTVM7kihpY5Z5pHcjYY2K97/AJEQj3sHbcykutQlJUwOtdRUSSLQZr9aOph11y2a/Iyp1MOKd1XljXjEiTpbdLTxs2jVM6mXWgv9TbGNkVNV25ZmPrmP8C8Qz9pD+62pHxo1irG+LhQSRu1XRvj6nIw+tC0CmflnnFR18MTe/DKeWmae7gmGW/oL2Q2zawME7Cu2VoKq00NTcLhQ0VXLCrKiKrrKeGVZ4Hvgkk1JJIlZnLHnJvJgkmHYMv2DSWmqo8ymqIKuPHVzaWVkzNbta8aqn7TS3GlNqilUMkYwjizG4IdStNpMT2QCh8j6lQUABUFAAVBQAFQUABUFAAVBQAFQUABUFAAVBQAFQUABUFAAVAKAFQAAAAAAAAAAAAAAAAAAAAAAAccDg4j9tmNstNZJaOmpqRlbUVrJ5XLPLlRRwR9ntvXp13sMNRE90Qw10d1496qH6RIZqVoWbmkXxlq2jOYeZpWVl13t1ywvMRSttHFJGs0zFnllStnfLI9+s58b/b+ecrxo9Ajo0ZHqffUEDt9/CZIzMGjefko1KdkrW58es6XV4Ej+MOd+qajGFVgYxXVMDm6smtrT6nFk5oaQlpGs5iIlrcVML1+6fWfrOb7VSo1XbnTgpO7p3+5zZZ8aPR6nSSVro9dM9kLW67+CyRh6fH4Ybliw1Xt6v3R+ZJ/eHn22pqFknXIY9c5jnNdJq6r9Q+thMFJqR0Z5ErcilVa+k/18M694tUGS9zIkjc2NkzXa73dUflm4ezN4qLycf8CGn3SF8yQPxp2RN1GNdI2TW1Wa5Kak2894axjUtdFwWsbwqh/4ho901GzE6prudNuxWbjc9SDMohzuh3w47pfCdpFbbJ7aWotdfT0Ntigq54WbpuDahMG5D96OkY9kiLHLL1XFU72wzUWZE9Ta3baee81s1BV0cdHNDSrWslp5s2J0GcyHLVvKkmL8eXDe5CKGyFc31F7vk0q6z+edTTIv5mkfkQR+jYw1ehKEvs9GXmk1WERjGBsVMUxeJLuiXV4eQn3sM7NNJfKRtTTOdG+N2VVUknVaefucnJixd9Y5UTCVO0qSRpkdE+U1s7A2yjHZLzHPUTbnobhDNBXq5JnNbJGzMgn1I8deTM4nHI90lJbWvbnaMyvbGy6MRz11UWanrIW/LJLTwxs+VyGOpah3JSYW22hS0bUbMY4vnmPdRdKNzsuh1UbCtuETOoPMs17hqI2zQSx1MMqazJ4JGSxPTtsfGqo9PEelrGv1GergVBTEYlBWVBTEYgVlQUxGIFZUFMRiBWVBTEYgVlQUxGIFZUFMRiBWVBTEYgVlQUxGIFZUFMRiBWVBTEYgVlQU1hiCpUFCoAAAAAAAAAAAAAAABwUglt+W43a17yLq0Fa5N78szptxNkusttrhdQyJTzV1fS0O6sNZ0MT2TyPexO6cTlJ2tcgffLdVVUjJam411XJEmDJamd8zo2fiMzOpm+XL0W668mbT4DccfEaTdHSjDDSpZXhryHSh1lVqK1MFWDW4DPdGcYeVZ8Ug4DU6S4u6TW4cb+LPV9jD++qj5z5U2hjmJqsqZ2J+K1SXbCiKUutWfDOvfocXRI5qYNrYGt3vaakf+ofZ8z9RV1d/Uqvc2e5zZcf92cqnQxX6uvUzrqO1m6y9K8+vsYf31UfOLKvJEXWrKU2zpUEOE0+q1PwljXcD2mode/ay08ms1OowO6TV4ecehDoYrVc5tTOivXWc5q9MKnQ9z2qx9TO9ruma5wvarNmwXQfatpVb3M7LGLro3VTUzmN6RnSblzPrDNm0RVef8quTVc6wvc/g6vD3bSGEGaKvRMN1VHnHCHQ9Uesm6qlr3Jlukjk1XOZ3PyZjaTkFzcutmHe7fmPdR1INScwl1S7dgyLs1aOLQaQXSnfjq1s77pTyOTVzGVXGSankZNeH9WW02NzZIpo5ZaaanV7op6aZ8EjMxmXJqPj43qZ5ln0YhgVVjZwndNI7hOPPqdIZ3TSR08bJGwajXySO1dV56pWXvEohh/vn1WTFxGPnH+6JxczL97Lyi0sro9ZzLlc4VdwnvZcqxvn8YS72m2nd2uNHVVdxqFq6d8+VbXyRQxSuZBrsneqxRQRyM19SJJERcZYpuQghNo9UTrhUytSNq9QptfhfDfIXbTVb2Naxj3MaxNVrWrqtaww9KUCifRZaQlj7W94+uBmKOp9ciq04pT/+53s2oZidtBmJ20NWnPWXusnnvHPWXusnnvNWwHXpHRfuGwYdJ0fpf0G0vMTtoMxO2hq056y91k89456y91k894wHXpHRfuDDpOj9J+g2l5idtBmJ20NWnPWXusnnvHPWXusnnvGA69I6L9wYdJ0fpP0G0vMTtoMxO2hq056y91k89456y91k894wHXpHRfuDDpOj9J+g2l5idtBmJ20NWnPWXusnnvHPWXusnnvGA69I6L9wYdJ0fpP0G0vMTtoMxO2hq056y91k89456y91k894wHXpHRfuDDpOj9J+g2l5idtBmJ20NWnPWXusnnvHPWXusnnvGA69I6L9wYdJ0fpP0G0vMTtoMxO2hq056y91k89456y91k894wHXpHRfuDDpOj9J+g2l5idtBmJ20NWnPWXusnnvHPWXusnnvGA69I6L9wYdJ0fpP0G0vMTtoMxO2hq056y91k89456y91k894wHXpHRfuDDpOj9J+g2l5idtBmJ20NWnPWXusnnvHPWXusnnvGA69I6L9wYdJ0fpP0G0vMTtoMxO2hq056y91k894ZeJkVFSWRFbwtZr3jAdekdF+4MOk6P0n6DaVrBVNcGjezbdaVUyq2ZUTey5350eHga/PVPkJFbF229hnc2G4MSjkXBqVTF+9nO3+nx4yBeRMVzY+yrouQ16kLlZyVTahC+Izt1xjxZeIz1H3WSk2q9r7yvM52kmQfGKVHIjmqiou+ip2T7GoZDdYRryAAAqAAAAAAAAAAAAACgBxLd2Ql+8K74pWfUvLhVTVlsqRbuu93kq3OqnwXO4UkeY56alNBNIyGBmG9lxR7/AIzOUPRSqRfvaVWLGPHjMJS1Jpo9m+KTb2iyNHoXrTR6jt7J1eXV4eedisxSem116aeqc3f9pqHb9hFL3JPnePYRS9yT53k/waXBMIZiC1TTSlLVrvrPq90/nKQ00qIzFy4tZRNdw/bxv4/+7PP0eY5VkVi7zayqc/VX2mpxf95lno+wil7knzvHsIpe5J87xelnzhMtQSpPl/Z/rPMvbJEiTMd2aJvCXW4cfVD0pqaVdfBy8LdWrw+6dTK+wil7knzvHsIpe5J87yt6UO6WrP7f6zzqbWWepRq8L/s7s9z6odi8QvSGVXLwcq4a3C7o/iP7s7PsIpe5J87x7CKXuSfO8tiys+kJpqCkK12L7P8A0WPLM67KGy9Za3RGgod3sbcbbR2WaCnWOpx3ZT0zI3skSOnVMFjfNEi70WasXGIYcttZmxsfgqa6a2q469Ho3TxriyJjV/GcmsdfS28OijRGdVleyOJv5chjqMoyFHIXZXWiMb7jq4sUIHupSktVFtJsVLgcvYlTIqrktXW/G4R9dDKtlNc6VKSpfapc5jqm4UyzOyKWN/GI+NmeknkqiDJm91PN9jdQ5cJKx6s9s2KNkbvPPWtVkjgarY26ut0zumc7yh6n5SE02ttSLCI7dUKzxMTy5ZVtLttebvl7NhvRSWLv791q/UDopLF39+61fqCAQNRwKk90Xxt+4bFhpOeQj+/3yfvRSWLv791q/UDopLF39+61fqCAQGBUlui+Nv8ALK4aznkI/v8AfJ+9FJYu/v3Wr9QOiksXf37rV+oIBAYFSW6L42/yxhrOeQj+/wB8n70Uli7+/dav1A6KSxd/futX6ggEBgVJbovjb/LGGs55CP7/AHyfvRSWLv791q/UDopLF39+61fqCAQGBUlui+Nv8sYaznkI/v8AfJ+9FJYu/v3Wr9QOiksXf37rV+oIBAYFSW6L42/yxhrOeQj+/wB8n70Uli7+/dav1A6KSxd/futX6ggEBgVJbovjb/LGGs55CP7/AHyfvRSWLv791q/UDopLF39+61fqCAQGBUlui+Nv8sYaznkI/v8AfJ+9FJYu/v3Wr9QOiksXf37rV+oIBAYFSW6L42/yxhrOeQj+/wB8n70Uli7+/dav1A6KSxd/futX6ggEBgVJbovjb/LGGs55CP7/AHyfvRSWLv791q/UDopLF39+61fqCAQGBUlui+Nv8sYaznkI/v8AfJ+9FJYu/v3Wr9QOiksXf37rV+oIBAYFSW6L42/yxhrOeQj+/wB82E2nbHWWZcG18TV5MJ2ywJ/fshQyBb7lHM1HxvbKx3Svjcjmr+kmKGrY9zRHTmsoX5lJO+nd7ZrF4Mnw2dSk/XngmriU2a5Z6vzO9sIew98pduu1/iGuT+Js5UYmBNg7bNx3BW0tWjaasXgsc3qM/k1XpJO3Eq4+Mz2ikbTkk7JuRaeTYX59vzwzwJMkp1mcbvrKraeo5gA8RkAAAAAAAAAAAAAAUABxKYkZtvvdJGWiliZI6NlbdKOmqUY7VzaV8NU/Levc1kjjVfgHplpdUw6hlP04whx4jzTD6WW1OK+hjMR7eu6RS3W25cscmFFWsXUex2q/X+UwBDTKitVVbg1YOyz3NkmYfX2GUvcW/O8ewyl7i353nQFGUaqSl0s27dj2kD0pSbM5MKe1yPnhni2aHXg4Kt6ncY+m9vI+PLPvfsEfGqubw62CRvC9pqRxnp+wyl7i353j2GUvcW/O8yF7VZsni7rZt2td8/znSfQO1Vbi3FzKpvTs90mzIz5UGDpp8HN4NSx3L7TUPS9hlL3FvzvHsMpe4t+d5fe1FvdLNlXhcn+s8K/Uytp5MVb1CCPl9vnntMh4xH6zdXOzOX2m5cv6w5+wyl7i353j2GUvcW/O8XpRRUyypNnXcn+s6eiOmM1vrWPiqlon8744Hysmy/bx8Xr/AKB87PpAstbVrruqd1SPnfO7Xdx7+n13/npNc9Nmh9Ki45LT0qamYxNVjUYn4rU1TztysEu33bz7dRc9OpW3Y13/ABiama7DWai6vS6yHVus0MbFdKjdRv4ydMZG2C9r3UaQpWVLa91spKWeOlhcyBk+e9jNebezIFjytdmG9yvw9yJFaNbQ2zRqj6p1ZdZMOmq6hWxtf+RHTpT/AN/nGvT11EnLuKbqvi0YshsMjcvOPJQ5Fd7RmrIa7FGl9dRxzOpqiehiq5c5tNBI9re0smp3TDe/QiL8+7LdvfGr9M4mF0KNk72f9In9YOhRsne0n0if1hhI3S0VHGqX6JrtMm5c7S0VVpeTyjhD77tF298av07x92i7e+NX6d5MHoULJ3s/6RP6wdChZe9n/SJ/WF+ElE6L0TRZg3S+kdK4Q++7RdvfGr9O8fdou3vjV+neTB6FCy97P+kT+sHQoWXvZ/0if1gwkonReiaGDdL6T0rhD77tF298av07x92i7e+NX6d5MHoULL3s/wCkT+sHQoWXvZ/0if1gwkonReiaGDdL6T0rhD77tF298av07x92i7e+NX6d5MHoULL3s/6RP6wdChZe9n/SJ/WDCSidF6JoYN0vpPSuEPvu0Xb3xq/TvH3aLt741fp3kwehQsvez/pE/rB0KFl72f8ASJ/WDCSidF6JoYN0vpPSuEPvu0Xb3xq/TvH3aLt741fp3kwehQsvez/pE/rB0KFl72f9In9YMJKJ0Xomhg3S+k9K4Q++7RdvfGr9O8fdou3vjV+neTB6FCy97P8ApE/rB0KFl72f9In9YMJKJ0Xomhg3S+k9K4Q++7RdvfGr9O8fdou3vjV+neTB6FCy97P+kT+sHQoWXvZ/0if1gwkonReiaGDdL6T0rhD77tF298av07x92i7e+NX6d5MHoULL3s/6RP6wdChZe9n/AEif1gwkonReiaGDdL6T0rhD77tF298av07x92i7e+NX6d5MHoULL3s/6RP6wdChZe9n/SJ/WDCSidF6JoYN0vpPSuEPvu0Xb3xq/TvH3aLt741fp3kwehQsvez/AKRP6wdChZO9n/SJ/WDCSidF6JoYN0vpPSuEPmbNV3TBUuFV+lK9xdmjm2uvEC8OaOsantKiNn8ceRJ86KSPl2plkcmCQSs8KTzf9aqWBpdtJ2KiuoatzHYb0NYiua5e1nRpxfoZfEVTTFBzGsWzY87jUP8AjxliqGpuW1zb1v0bn5hdexrtsqGsVsVV/wBnTLwWrKutA5297smCM7PVsE/LUzzG9F30XeNY+mOg1Xb5Vhq4XQP9q5eE2Rn47H+6GVtgLbFy0DmUtW5ZqJy6rVdvupfy2L3L816P89j6UuWbU13TRy75DLFrLi+zjt7xkqLuocQ53NSCL3Had/MJzg6tLVNe1rmORzXpi1zV1muadojSMKsUSToRrxwAAKFQAAAAAAAACMe3+tr3Wanlaiq2hulBUyr2o9SeBF9JOwiGbENn3QPnnZrjRo1XyT0z3QMaurrVUOE1O3Hy8bDW/o9cs2GN/ZcnC+H7oS9cTMQUw6z5C4R4/wD4RFdrLKttPHoAAkojEAyvscWzCnppKe2QXx89XNT3OKd+rJS0mozIkZmdQjlke+aWpyfaLF2sMfaZUcMdXUspnZkEU8zYX462tDr8Dh+6GJl6SS++thKNj296NW/DzV5YY4bdWVmaPizLtTCl+HtHkgAyxigAcHvREVVXBGgrUefpDeEghe9eVvBY38Z58tFbOsMKNd1R65kvw5DzKPGrnSVUXc9KvFfnJ+6f+vXF1nmTrlWj2vd5bvUPD+sAAPSY8AAAAAAAAAAAAAAAAAAAAAAAAAAAAAAAAAAAAAAAkJtZtnl9NIy31b1fTzKyOmleqcTN3Pk6hLyp3Lk7O9M9qpy9s1WGwDa7afrX22J8jtaanVaeZy+2ezpX/rY3Md8pD111EJZjCbayObLCEMis/r6yYLkaXU7XKPZUbHHzGWAARwSaAAAAAAAAAAAAAAAfNzTWNsp2Xc1+vdOqoqur31vB/Ermbr/6zZ1iQZ28Oha01zormxMIblCtBUua3pa2DjIJHv8Ax5o+JTwU6G4XKzMGJ5EFZHIXvjNRunllPyK7P0O+cRhAAE8EBg+tTQPj1ddjo9dus3MTV1mHraD3aGnrKaadmbDDPC+SPV18WMfy5ZeWnGlyvoFpqi4x32d1a+opalsM0UlNSv19dkj597MlR7E3LBxUOX5ExMxNutTKGks3xDmV3Hi5owxeeMPNWZViTZdl3XlO2Fo+qMZAAyxiQAAVBa9B981LpumipeLi/Kn90kOWkNydI7csK6sj042TuMHrD26CgbGxsbEwaxuq082yKPdsDdr6a/wztgA9JjgAAAAAAAAAAAAAAUAABUAAAAAAAAAAAAAAAAAAAAAMeqKjmqrVaus1zfak59rTsxLcqbJndjV0SMbI5fdYV6SblThr7om/guHdEIMF8bCemi0NzpZ8cGPkZBN5GfgP9CvHfqzV7oqLTPSq1fWN42s8c8PWbRc/SipGZR5DmJ02QA4sXeORz+dCQAABUAAAAAAAAAFFKlFAOGBHDb52HMsOfjq87K6grF/KxfuXD95/YSQLT2TNDGXG31lC/VRKymngRz26zWSPYuXJh2cqTUl/QPVJv3l5DnkLhHnPLNNXxpbflwjA1rcoPMsmujFimasc9G99NURSdNHPBxckbz0zpplaXUQWk5mmGlNurbV9AHYpqB8mtqMdJqN1nZaa2qw65k/QjTBY6ekZT3JLJLR1s1RVa8M0kddSyMYxjOAybMkh4XFS8Vw83tYeGkJtyXbtNIvkcm3i4oRjzHqkJZuYdsOO3tBjAHsaY3OKerqZYWZUU08z449XUwa9/AX5Txz2sritEFqhVHNm8x4XU2F2UgAH1LAfGShnqHw0dKxZKq4SMpqeNv47/dH9zjhj46WX3E419eyNqyPdqtaSz2oOwE+mRbzcItStq2YUVK9OHR0T/bvx3mVE6cuKZsMPFYtWWaI1mnaVTIS8Y/TXsRtVz9Eqnn4RV4CNkM97E+x9DarfS0EO+yjiRjn4YZky4vmmXwzSvfKvheXhgECqc/qUpSoqjljj4yfkpgiFmGSBXAqUKlpcChUAFAVABQFQAUBUAFAVABQFQAUBUAFAVABQFQAUBUAFAVKAAqCmIBa+negdNcYHU9SxJWOxwd7dj/x2PwxY9O2hr62T9jma11bqaXht6pDPhwZYfaOXl30XeXwmyrHEwdtrtAEqrctQ1vHW7GdF/GhTqzPFhxvjjQ3G5ql1ScwlpUe8uRhCMM0Y4oR7eM0i6eh0zcup5EO+ohXCOeBZ+1A2Ulka+2Tu1nQok1I53cU6eD9V08fbTMT3ElCimszY50rdQ11JVIuqlPMxz/yoOpvZ6PXNl8M2OC9tMS+6yj0y01fEeA/WqHD+l1wj6y25OkFTEpeV+Gzi/k2jsAA0s3kAAAAAAAFACmBri2zmxi6x3KWoRjudl4lknikYnBgrXrrzUvFomXjw5osEwyscMcmZTY4qlt6b6C01xppqOsibUQVDdV7HJ49V7FxVWPj3lR6dlPkMtRVIuSD9+R64Z4GKpOQbn2FMuGsCmr3SLqxU9XUP7nFSTOd9WZL0F2uF9uKt+9Vs1OvTVVzbqy6n5uk6rmeXyYiQVHbNItHm5dO32WWuFUyonvSG60sGK4R5iplVccXJjhm4rgkcUaJh7Fu251o1kir0rLHUYJjS3akmieidvi2TIieWWPHtG7zN1E69D/DITD0ffI8nHHCO/A0+WuXkmY2nbX+4RD010Nmt9TJSzphJGvBk1eDKz2k7O0yXkVOweITR2SNLNGL1AjJbvbY3x8KGo3XTRyxv3+6SJrsVeWNcUX9qRF07s1PRPwbcbdXxL0ktFW00nnwRyZjPGmKG2ULTiZpF7fhe3/PCMK97FzGj0zQTkq5aYjfGc1eQ8gFvVmnNKxN+VHL+K1NY+HskqJFVsFM5n56p4trf1fun6g2q/INcTKu/STY9IXFU1jGNV73Ixremc4td8z65dVmMNK13Ck9tN8D82dmHRJXuSSqfulzelh1dWJv6v3QuJjERME3kPnZU54XgH0vjbPga9ZwpqZrGoxiIjWJqta0+wB6TwgAAsPrQUb5HsjY1XvleyNkbemc+TqcZMbY62otDHAi3Bi1lQ9MXo2WaOOPk4DMuSHWw5MxyYr4CNOwfT613t6f+Khd6PjCT+3F0klgt8LInujSqn1JctdVzo2MWTLx8OBHl0UzMrmpeQl13u39ZCMYR44Y6oVbWUkK52Wlkyr89MIvlj6su9m1usbUwShZh4Zp3f4yqfTocrH3jH6Sb1hr4e/FcVBbgxO/9wV0v5h9MJpP/ALeno/yzYP0OVj7xj9JL6w60u1ksT99aFE+DUVLf4J0IAnKGpc1cWuVi/jNXVKYNTv8A3BXS/mlMJpH6VHp6P8smrprtSLdNA9KJjqKoRFdE/OmkjV34j2PfNxfgiw+2GV3tEkEskEzVjlhe9j2L7V7CQ21X2bXxTJbquRXxVC/e0sr0dqTdx+BL2PzvlkL52ye1/fXubV0TWuqkTLmhVWR57MOA/XemXmQ9t3LH5NqHnkKQmKKnIydIO2217G67GMas0a414o5I48UfNjPtO0fL0rKQm6PbsOI2RpurHxeyBDYGUuhfvveC/SaT+oHQvX3vBfpNJ/UG76sSOko5Vs0zUie0dfJuGLQZS6F6+94L9JpP6gdC9fe8F+k0n9QNWJHSUcq2NSJ7R18m4YtBlLoXr73gv0mk/qB0L197wX6TSf1A1YkdJRyrY1IntHXybhi0GUuhevveC/SaT+oHQvX3vBfpNJ/UDViR0lHKtjUid0dfJuGLQZS6F6+94L9JpP6g+Mu1ovjeWgd8k1M76uQrClpGOSYRyrZ89SJ3R1cm4YzB6ekmi1TRyZVTDJTvw1mpImrrM/I7oeYZJtxDiLaI1wzwxmOWhSFWVwqAAPoWAAAAAAoCTe0huypNXwKvTx00zU+A6Rkn8cZGQkPtJ+uFV8U/1mGsXTJtUa7HNV+IbRc2pSaRY9ZNBCpQqc/HQwAAAAAAAAAAAAAABwLA2Zdi+C82+ehm4CTprQzo3WfBUsxy52Y9pd5U3s2JZI1VElUyAhVS5K4oVBSdrIfNaILTZVtmrC27H143dLaXUkctfSp0j6uGmz2d3g3RufdEfu3EGTbFtPtIahUzdxWpntnPlWplb8CONMr+/JebLGwpQXiNjaqNySwKr6Wupn5VXTSb668EyY4eTlRYlx30XBDHsOjOl1sRW01XQ6T08beAy5I+kuC/kJMzGF6/naiXE3rCidcbspWltWTJGEfU5X11Gn4NSTbltTVv58gsfSXaVMpaBz6SeeuuDF15ZJ3arZ2JyxwwdSiw9y7CdsjVU0zmucx7VY5i6rmuTVc15K/SXbmzW6VlPdrBXUU0kccyNop6avajHvkZr68erGnSP5TFWyps6aPXRVmW3XujqsPwiCjpna6fnmJW8NPAuVN4UM9QVKTzWKaQp1tzI7DvtXFXXDex75rNP0TKPRtyy0tuIytbHWYjBb9TpaqvVsVLVPTHedLDka3w+rxR+nPi+sr5MUbFDTflSv1vqyRb+n6JHXcjifCso/3C45pmtRXOVERvTOcWvU6QvnVY6RFwx1X1bk4LfJ/nD6s0M13a9TK+qVq8GPpYvMLghha1Ea1EY1qarWtTgtGvV/oL7TTPg69fRnSslhZA1WtxVzuE+R3TSPPTAPslKU61J4FKUpVpQABeWgAAAAAAAzJsWbWCtuCNlm+8KZeEj5Wca9n5EHb/ADk+/wCWPDOT7Emi+PLsJzbcd6GWJ75ORem13tlFtXMYbPfsGgFdVYLT0lRUNd7pFC9zPSdSJy6E7XW10KIsdOlTKifhFYqTPx8GKJGz9RE0yeyJE5N4jubu2hCNmWaxZ3Y+yHaSFKXEKVrph2x5mjX/AEu1dvjkx3Gkaflz06f4SKdh+1TvaYruVi/kpUResJ+AwuGc95KOJz8wzuBcl5Suj/LNcd42BbxAirJb6hUTuCMm/l88sappnscrHsdG5vTRyJquabUsv/0pb2keglHVpq1NNFUonJmsa5W/Ad07PGiop7pe7Z2Ee/tQjDO3ijxRr64GNmbiG6v8O7VH7TGazASz2R9ppE5HSWyVYXdNuWpXWjVe0ybqrPHNnkYNJtE6mjldBVQvppWe1enTflsf7pH+dgJBo+mpWfT3pdS9yjsnx9RH1IUNNSCu/I1m6/VnlgAzphAAAAAAAAAAAAAAAAAC1WSO9EuTlhvwNoWjdYskEL15ZIoXu8b2Ip6h42iP4JTeQpv4GHsnLjvhr349Z1GzsaN6HUcgAWHoAAAAAAAAAAAABQqUAIL7cfYQlo55b9QxpLDUanPOka3qcqbzK5mX7nKvVu1KqSb+bMsWP9E9ge/10cctPSUiwTJrMq1uFNJE5n/l8+RfkNkD4kVFa5NZHJgqL2TAV62sstJM+q0cr3WGSRz5Jba5mdbJ3rjvZH/y/axhSVIk6lFFv47fI3STLDPc6V2bGSMYVwqzRq6+POanO3PS0w9flotmOtC9olK9Wuu9ejme2obU18bHL+XVSca6PwNhhMbbNOw9LaahWo1z6SVfvao/I7g/8uLlReyhlrSPbY3i0VLqK62mmrJGMjkdVWirfHGrH/iR1EayKqeHK5D3bbtoae7U8sbtHrzWxdTmjgpoKhiP7SqtTD+wy8pSdKSzkJt5N8YXvVVR20ecw87RdGzSO5ZdSUPozZd5wiIDImmexnO+TWttmv6NevUK+ihiaz4EzKn6+FfKnXtu1v0kmVqNtSUzXe61dZTNa34bI5KiX+4N/bp6RUi2p29+aOXeI9Xc7PwcspaLDOjU3VGvZExr6molVkcVJTNzJ5Hv6nGxkZ5eynHJaaqeC6TKsdCrG1UdqXU18yOPgQzyRTy+3ZywGfNrrtjbDQOYynsy0e6WKi3PdUNRUv3o9d9RJU7i1GakazSx082GYzi4HLIfGkqXdZYU6wzfO93yvvdUG9pzdOKES+Qothx1Lc07Y75e9jXskPq7diwXxtdtqS9XxXO9sTNY5ktHaMFcyD8Seq7pUfm/ck6pj1KGYSEd27dazrq/hKa2pg17aZm9I7gY69SmpizjlztXJ3opcmWSKF3kzbfe0MXBKa5PRMMJEhptVzEw4eD6xJETe5JkSTwEKKem6WeVGEIuLzQhHFvQJnSuSotpKYLS2jfgSfxGJGBnNBbQvJSXNf1NN/WFP9oPaMcNyXP0NN/WHo1Cn9HX/TEs1fo/SE8ZKDEYkYH80FtCctJc0/U039YP9oLaMMdyXP0NN/WDUKf0df8ATEav0fpCeMk/iMSL7OaC2hVwSkuePkab+sD+aC2hOWkufoab+sGoU/o6/wCmI1fo/SE8ZKDEYkYv9oFae9Ln6Gm/rDgzmgtoXkpLmv6mm/rBqFP6Ov8ApiNX6P0hPGSgxGJF/wD2gto5NyXP0NN/WFX80CtCctLck/U0/wDVDUKf0df9MSmr9H6QnjJP4jEjB/tA7ThjuS5YeRp/6oM5oHaVXBKW5Y+Rp/6oahT+jr/piW4QUfpCST+IxIvP5oJaE5aW5ehpv6o5f7QO0963L0NP/VDUKf0df9MRhBR+kJJP4jEjAzmgdpXkpbkv6mn/AKof7Qa0d63P0NP/AFg1Cn9HX/TEYQUfpCST+IxIwv5oLaE5aW5J+ppv6sf7QK0KmO5Ln6Gm/rBqFP6Ov+mIwgo/SE8ZJ7EYkYU5oLaFXDctyx8jTf1gfzQW0Jy0tyT9TTf1Y1Cn9HX/AExGEFH6QnjJPYjEjF/tArThjuS5ehpv6wozmgdoXkpbmv6mm/qxqFP6Ov8ApiMIKP0hPGSexGJGH/aCWjvW5eipv6wP5oHaE5aW5ehpv6wahT+jr/piMIKP0hPGSeKOUjEnNAbSqYpSXLDyNN/Vn2tW3ptEz1asNdDqsfIr5mUrWcm9H+F8ZJI7FESFF5dbqaSyJ53aInWEKcWyuCU5dbE+rVNyDy7CH02t8ku1SjiPtXtzLMzpln5Z8dTc7tVkbOG9dSpXFNdcmPKxlnXfiSWPjTE915pVFFqq+1KiSSMjZjWa2Ln+TpJj4yUhMTtq8txjZy197/EsH1mqWlZazfXfDyXuEXPw7ZNtEPI0rt7Zaaoid0ssEzHfBex7TFW142xfP9atNyLRLQ7mXq+dmZ+f+ag1MEh7OOOv2DMF1TipPJyfwKWuS7stMXp5NhaIwrhixZI7XmPu3MtTcvF1pVtC4RqNW5s20FqVfRUb3dNJS0znfDdExf8AE1kmzLY5630PxSj+pYSTdtsctvOewja4rZZn+T2lzAAioloAAAAAAAAAAAA4OLL2ZIUdabmioiotBX4oqf8AhpC9HFn7MHWq5fEa7+XkPtL7K3w4dZ45vYneBHqNY7NG6ZOSngT9WwP0ep15YIfRsPTB04lpNUMRzMqYcrjrzr0dAyNNVkbY0/FjTVOwAfU+Sl2gACpYAAAAAChfuwH15t/l2/Vkhdu5+A0Xxp/1EhHrYD682/y7fqyQ+3ZZ94Ua9qrw/uJCOaW8dyu975I1E+JJz58gh2ACRa6iOoQrAAKWoZ+cusxzcwY9UVFRcFb7ZpI3QnbjzQQNiq6fdj40wSoZNqOkbvYa7Mvefvb703l+fGOQMVP0bKz0IQmE26skYRqjD1wxmVkqQmZCNcuqxXlxewln0csXvdJ9IZ6sdHNF73SfSGerImAw2C1G7n0znaZrCilN06JBLPo5ove6T6Qz1Y6OaL3uk+kM9WRMAwWo3c+mc7RhRSm6dEgln0c0XvdJ9IZ6sdHNF73SfSGerImAYLUbufTOdowopTdOiQS5h28NOvTUMzV/JlY7/oQ+3RvUveU/pIyIALMFaN3PpXO0rhVSW6dEgl/0btL3lP6SMRbd6kVUxoqhqdlzXwu/5kQAWxuWo2rwelX2n0hdVSVfhdEgn7sy6OU90s0kyIj8KZ9bSTI1NZvFZrFTtZjOLXwKpAI2B6KQK/RyFi7yutLY+T/wyMNfhjrj1qTCYZt6xC8UOOGLiPfdchKoy71jXrbxgAEjEdAAAAAAAkNtJ+uFV8U/1WEeSQ20n64VXxT/AFWGuXSeLX/V1mx3PeMWOHHqJooVKIVOejooxbtiNn6j0atkl1r46mangkgidHQMhkn1536jMGTy08eCLyrm/IRTh5tFosqom4b81FXDWWlt+q35rl/yLy5rb/Yur+O2v68gZsG7aPQah0Zhtl00Y57XiOK4MmuHO62cbJPU1EkH/aL6hK6PJp3wxZiQa0WXvYpgAbbNgnbFWjSOmWrtVW2rjjflzRKx8U8EnKjJoZMJGb2CpJhlyb+CqY/2MdvLabtpDWaNU9NcY662SXOKeepjpm0ivoZ8ifLkjrZ5VRZOpYwIqp3IixzGHYoqoILrdpHRpT3DcVJTxxTMkVz4MySR8jI5Fy8pJGR5c6JLjm7ydmwtph/3taR/HtNP8xeAbI9sVtgaPRm2PulfFVT08UsEDo6BkMk+vO/UZg2eWnjwTs4y/IdDY/2ylBctHHaTQQ1cdvbS3St3POyJtXk259QyduXHUTxZirSyZSJPgqKzFYt/DCHNdP7G1Hx62fXFu7VH/ugk/wByaa/zV3AM/wC1d229u0tp6qptsFbTsoJmQStuUcEb3SPZrpqbnqa5NTDlxVDwdgzbyWnSC8V1koqa4w1VqjrJppqyGmZTKylqoaSTLfHWVEjuNnYqIsMfF48mCEbOYi9ab3/vGl/lkMX8zB/7wtJviWkP+d28A27EItkfms+jtruFdbaiivUs9rqqqinfT09C6J01PI+N7o3SXGCRWYsXfWFu92OTGbpp02vWhNHcNlW/01fR0txp3V2lb3U1fTw1MOuyqfqPy545o9dOwuG9v+IAm1sJc0t0Wvc8dLFUz2ypqH6kNNeYmU+a9VRkcbJo5aimzJlXCKJZ82RcEROwSxNXvNTdpvZaO0JfLXQwWiekqaWCqht8TIKaelm4rfgjwijkhly1SSCJFckkqSZuESwy12gGylPeNE7TV1TnS1DI56OeV6q50i0kz6eOR7135JJYo45ZZV31lWQAkaUKgAhFt0eu0PxCD+YqjAhnvbo9dofiEH8xVGBDoa53xfL8CP3onOd0Ef8AHv8ADh1QAANiNeAAAAAAAAAAAAB9aCgfI9kcbHSSSuy2MjTWc5/c2HyJlbWTYKSkjbX1TPvuZNaGN7cVpoX9jsYPl5V5ctN7exlxwNM0q3RzNtWNyOxQ+drOZ6iKLcpGYsJ8D60psF7WOOk1KqvY2eq3nshXhR0yr2sd58idtUwjx3sVTMWRbW+DA5YnFSAp2eenHIuvLrjHm80M0PmJPklIMyTcGmU1H0BQHiMmVAKAFQCmIBwwLT2QdjikuUKw1UaPT2j03pI3/jsfyoqeD9pdqoURC9txTaoLbVYXDJGEcZ8HWkOpvbibaY7UTXRsv7DVRaZtWTjaeVfveqRvBf8Am39zk/NpvKWEbNtMNE4a6nkpqhiSRTN1XJ7Zq7+q5i4Lg9O3/wCl157J+x5Na6t9NLvonCgnVODLD7R6+FF3l8JNlzt0Hdybw/syMn2sO0g+6SgO4VX5nYV9EWqADeTSQAAAAAAAAAAAAAC1WSO9EuTlhvwNnmiX4JTeQpvq2HtHi6JfglN5Cm+rYe0cvO7Ivfj1nUjOxo3odRyMW7YjZ+o9GrZJda+Opmp4JIInR0DIZJ9ed+ozBk8tPHgi8q5vyGUiGfNbf7F1fx21/XnyPuWhbubM6Kve1rqS+wNcuDpZqSic1ifjvSK5TyYeRiVd8l/sS7L1uvlFHX2upbX0siuZmM12uZMzffDLHIiSRyJi3GObB2DkXDBUx1MbF2y7sfQ6DNorrSUlZpDue7sc2ntb23DdUlVVvoZOeu54Y+JifTr+G8XFhHlrl5RIDmLWiNbBabtVzNfHRXCrpUotbFEkkgZIyqnYmHScOCLNRcFWORPclAJJ7Am3ktOkV2rrPRU9xgqbXHVSzy10VNHCscFQylky3x1lRKvGyMwRYY97f3uQurbO7Zqg0UoIrjcIauohqKyKgjZbo4ZJEnfBUTo97J6iiZl6lM/Fc1VRdTeXlTXtzLH+3Wk3xS7/AOb0hm/m1H9lrf8A7/ov8vugBKFu2YoV0b9lCRVXO/cXPDI1Id17n/E1N0ZWZ4N0YeExztaOaDWLSmtkoKGOvo6mKB9Uxt0ipY0mYxyMkSDIrK1Xvj19bLVE4vFUxRFwxhTf9zq//dt//M1xaK6DV9ktOj+m9sVzVp7hVUtU7hObHWQTSZOum9971tM99HImOHFqnuwBur2zu2aoNFKCK43CGrqIaisioI2W6OGSRJ3wVE6PeyeoomZepTPxXNVUXU3l5Uv3Y801judvobjC2SOG60lJXQR1CMbK2CqhZPGyRkck0aSZb2qqNmkRFx317OvHmneyvS3zQKx3ajXGC4Xi3yozFHOilS3Xdk1O9U90gla+GTHssUnBtTf7LaNf7g0e/wAvpwDK4AABRSpRQCCG2768v8hTfwqZT2j/AOC1vl4vqzFm2768v8hTfwqZT2j/AOC1vl4vqyWaR/y+3wGeuBEFG+P3uG71EnMAVKETEvmrvbbWtF0iuqaztVZKNHMwY5vDoKR8nTsVPbmENILWuo3huVVkZ02oZ82239pLp8O3/wCX0hhG/wDSt8pH/idJUSmuRlox222vwzmaknVJpJ5P27v3zwudrW6uKIq462sfeK04IjlwXWWZ3nvPpXP5PGdrX4DTJwTCCsUOY80Xl2Tz6a26ytwwRrGyph8N7PtOE9Em+1ETFY3pid+0v31+C869Q/fTxF4vqq94VFrRqLiiLvHGnteOs5cFRVZ/Ad25v3vkKUj+AoLb4qo851vRzka1ETCRin3qKRrcMETFq9McqZ/D+U53R+/8oFtXgnyt1mRsbdZEU+FFbEc/Hew1cD02P4tvwj52Z++viBffFVxUebdaBHJqtREx5TuS0KNTkTFE6Y4VL+EniO3cuRfECy2qpKToWizojXudguK4nzmtWvK3DBEZqcE9OhfwFPhTv4z9JgL74q1FRxu9Emq5GoiYqw5W+2oyJmKIqo7pj63N+/8AKfVj+Lb8IuPlbVZs+c8iz2pFkc52CouucbzbddWI3BERH7x6No5V/TPlUv4SeIsSfW+qvlo53GiRGORqIirHhrHXsVqRrH6yIqrqHfruT5Bbn8BxUsvqrNk8nnZrTo5VTDWYdq/0SKmq1ETh4n1ifxnysPrdH7/ygrfVVoOFDQoyNmCJimvwjo2C1ojlVyIu9getH1NvjOva37/ngpfVVLPOult13t5METV1T0bvQtVmDURMUPlVP4SHcruT5AL6qyg6dioGtjXeTW6bWOrT2lM7FyI7f1j1LY/gO8R14X8Z8rClQvqrS4nT0mtyLjhgiN9qXHHZkRETWfg3pdZG+rPHvT+Cpc6PLoNwzHmmXl3tHr9hNTmetgZHSXKdFe589TDC7W1dXLghR8eHyzvJX3XqUvk5P4VIy8z/AOt9d8dX6mIk1depS+Tk/hU56p/xm96SHVA6CoDxUx6OPtNWxsy2N+t9D8Uo/qmGs02ZbG/W+h+KUf1TDc7tthlf5/YadcVs8zwW/aXKhUohUiglwAAAAAAAAAAAA4lm7L3Wm5fEK76iQvIs3Ze603L4hXfUSH3l9lb4aOs8U1sLnAX1GtsAHUEMkDmCOWIABUoAAAAAAAAAX7sB9ebf5dv1ZIvbtdb6T42n1EhHTYD682/y7fqyRe3a630nxtPqJCN6W8dSW9DrWSRRPiSc+fIInaI6NPrKmCljXVfUyMiRzva90kJ16MbFFptULVdHTorcGPq6zK13vw/Hk6XHf4uLBPARm2o1hzru2RU3qSCpm/TeuT/hMpkLbv3zg0FMi7zn1NQ9vhZlsYv948+VPLenaSao9td7R9ZVnqjHHVmhCFW+X0EhmSo52kHEXxf1dfznM1TaRWNiYumtjE5NZ0lK3/FUPl7L7B3zavS0n2mu8H0wN/8AJVxfE+eGX/jJNh/sxsHfNq9LSfaPZjYO+bV6Wk+014AYHQ0lXF8RhkrRkfPqNh/sxsHfNq9LSfaPZjYO+bV6Wk+014AYHQ0lXF8RhkrRkfPqNh/sxsHfNq9LSfaPZjYO+bV6Wk+014AYHQ0lXF8RhkrRkfPqNh/sxsHfNq9LSfaPZjYO+bV6Wk+014AYHQ0lXF8RhkrRkfPqNh/sxsHfNq9LSfaPZjYO+bV6Wk+014AYHQ0lXF8RhkrRkfPqNicOn1ibjq1lrZjy6s9K3/rOx90ay9+236RTesNcgGBadJVxfEphorRk/PqNkSbLVpwwS5UGH4u66f1hYuyhsAUFzpnTUkcMFQrMynqaXVbHLvYsZJqcW+OXk11TkwILmwXa/wBv3PY6JHrgmQ+dVd2GTOfP+xkhr9J0Sug72+w8qK4uVVVVZMefHvecz9GUsmm4rYfl02IN15//AIa+poVRVa5FRWrqua72oPvda/MlkkVNVZXvk9I/MPgTK3GtEIxzEOuQqXGCQAD6FgAAAJDbSfrhVfFP9VhHkkNtJ+uFV8U/1WGuXSeLX/V1mx3PeMWOHHqJooVKIVOejoohnzW3+xdX8dtf15FDas7NOxtS6KUlLf6W21N2ZFdW1rHWSaeukzKyrfBGy4souqLSvhSKRK9Mni0zYVi3toWy1sO26+0T7fdKfdtHK+GV8GdNDrSRP12cZTyQSby9qXAwX/su9BfeL/8AMrz/AP2IBDTmMMdQt6vj4GyR2rcTNdrnazW1b6pi0LHr2ZNz7r38ewpa9Dsgt0J2T7rW3iKZlJX1d5nWaFiuc2ius0lXBVxsx++I4pNSGTIXe1Jd5ZIcldumx/sbUFqp20lupILbTMV7209JG2Juu7DXkdh08i9mRcVXeTsHh7Le1/s1+jSK726nuTWa6RPlRWzxI7ffkzxrDURY/mJkx3u0gBrk5pDt9rDe7Ky02WokuclTVU1RPUbmqaaKCGBHrqffcdNI+WSRWJgkKx5WvvopJXYi2Pai1bFstFVNdDPHo5pJPLE9NR0a1rK+uy3s9pJCydGqi8iopkzY42iOiVonbVUNlp4qiN7JIp6mWqrXRPZvsfCtZPU5T/DDguKGZtKtGoaymqKWoZm09bBPS1EOs9uZTTsWOSPXjwkbrRvcnFKi7/KgBr15iL1pvf8AvGl/lkI5bS7Z3tWj2m+kVbeKvnfTTRX2jjlyaioxqZLvSSMj1KWKok6nBIuOGCanKmKG2LYR2uVm0cings1HuCKrkbNPHumqqNeVjEYj03XUVKsVETDgr/yMX3jma+hVRNLUTWbNmqZJJppOeV2brzSPV8j9WOuRN9644IiAF1bEO3Y0Yv1WlBabnu6rWKSfc+4rhDxUeGu/MqKWnj3tdPdeya0dijZmtth2T7/cLrU7hpEr9KInT5M8/HSVT9RmXTxTy7/bSL/kbLtiHaT6MWGrSvtNs3DVpFJBujdtwm4qTDXZl1FVUR7+onuXYLf0t5ndodX1dTXVdnz6qunmqamfnhdI8ypneskkmpHWwxMxkXkgaieAAg9zQ7b22/SWkgsGjraq5brqYJKiqbTTR57mKuRSU1PJHuqWSaXUkxWGLBY4kTN1nZWwjaY7DUlg0ZtVsnREqYIZJqtG7+rVVU0lRJH4clZsnHtRnd2JtqXo5YnI+1WilopmoqNq1SSeraxyvV7G1U756nBdfBUSbDDLTfSKJG5jAAAAIRbdHrtD8Qg/mKowIZ726PXaH4hB/MVRgQ6Gud8Xy/Aj96JzldB/Hv8ADh1QAANiNfAAAAAAAAAAAAgZj2sOxclwrs6VuNNQakr0XpXze4Q+JOq/oJ3Ynlj+wxZtdtB0obXA1W6slSm6pvhzb7GfqY8uH9EylrHPV0FJKnZtca9YjvbW9Dty8R0Lc9RyZKUR5bnfHN+JzRTgoxwMeXzZ5tNO9Y31sKPbvObHrSKno2yp85gGmXHcTaYr3oRj1QiZ96YbZhW4uxvxMhuU8y9X+GmifNUSMhiibrPkevBanbUsNdspZe/o/Ml9WRT2f9m991mWOJVjooHcWx3BdK/u7+0ncTYKMoCam3oIWhTaNuMUxhi81cIVx6jXqTuglpVmKm1pcXtQhGvqJOdFfZO+X/R5/VlOixsnfMn0af1ZAsEjYFyflr5vcI7w1nfIT8/zmxbQXZtttwkdFSz5sjE1st7HxuVnbakiJrp4UL8f+w1b2m7S08sc8L3QyQrrsexeEjyaegG2tt81Kx1ZKlHUpwZIlZK5qvT27NRkvFr2F7BptN3MOSkUrloKcbj5q3IR88IbRt9C3TtzdpuZiltcPP3vjiZ4RAqmMU2yVk7/AI/Ry+rLzsOlNPVsSSlmiqY19vE9HJ/zNQdlH2U2nGlIhni3GHXA3FmcYejZbdSvechE9tDEO2P2LUuVC5Y241NGkk1Pq9M5cOHAnbzkT0iRr2DL+JRwlZhcs6h5uNS0RhGHz5+orOSqJplbLmNK4VGqoGR9sNoSlDdahjW6sdR99Q73tZuqf3mvF4jHB0nKTCZphD6frIHNM1LKln1sq+rAAPYeUAAAAAAAAAAAtVkjvRLk5Yb8DZ5ol+CU3kKb6th7R4uiX4JTeQpvq2HtHLzuyL349Z1IzsaN6HUciGfNbf7F1fx21/XkzCxtlrYdt19on2+6U+7aOV8Mr4M6aHWkifrs4ynkgk3l7UuB8j7mpvRnaHUl32OaK+W2nVL9Elzq51bLO/d1LS3CsgfTpDJIsUckVNC10W54UWWWPL383WSa/M2ttJFpDZI6STKiudhZBSVUMbWxpNTIzLp6+NjMERJUYscuVvJOyRdWJk0KEldjLYvobLQQWy2QbkoqTPyKfNlmy86aSd/DnknlfjLJJJxkq4Y+LCwdj3ag6O2m5SXe3W3cFfOtUks9PWVyRvZUSK+Zi0i1W5VjWTCRIsjKiVkeWiZUWAGsba/7KsOgun17bfWTU0FWt0o31LIpJcuOorY6ylr8tmMr6eaJjeo50vGcnKhdPNNduvZNJLdQWixyy3NzbhHXS1Laapga17IKiCOCOOoiglkkmWqfyQqnA5d9DZZsv7WuxX9rW3e2U1xWNNSOeRHxVMbOn1GVUEkFTHHjiuW2ZEVeUtvYq2kmi1lqG1Nus1NT1MTtaKpnfU1ksT/x4X1ktTkP8MGqoBiTT3QSe17Fc9BUorKik0ca2oidyxzvYkj4PHDI/K/QLN5njsW0162OpLVWN1qe5T3eF7kTF0b85FjnZ2MyGRGSx+GNCb+nmg1LcqOooK6LdNJXxvp6mDMkjzIX8rMyKSGVnJhxMqL855OxLsNW2xUbbfaqfcNGx80zYM6abjJFTXfmVEk8u/ve6gGgjZSulzslJc9DLgzFlFeILhFrJ1Ophgnp8+BFRVyLjTTwzYr3ONUwzZje3tTf7LaNf7g0e/y+nPA2YNpdozf6ttbdrW2tqmRNgSdKqtpnOhY96sR6UlTTsk6d2EkuMmGCY72CZW0T0UhoaWmoqWPJprfBBSUsWu9+XSwMbHDHryLNI9Yo2NbjKqqvbUAuAAAAopUooBBDbd9eX+Qpv4VMp7R/8FrfLxfVmLNt315f5Cm/hUyntH/wWt8vF9WSzSP+X0cBnrgRBRvj97hu9RJ0opUopExL5rG23H9o7p8O3/5fSGD9IH8BvlGGcNtx/aS6fCt/8hSGDdIHcBvlGHSdE+L5f0bX4cDmGkfGkx6dz7551c/k8Z3dfgNOlcX8njO0vU2mVPjFOtPlZX7/AMh8Kl++niPpZH7516x/CTxBJdZ1x6N05PkOFD0jhdOl+Q4W3pHAts60+VM/jP0j63V+/wDKdeF/GfKfW78vysBfZ1x22P4tvjPhZn76n0hfxbfGfCyLvqBZPjUv4SeI7tx5P0Tz6x/CTxHduT+D8gPnZ8ErQv4CnXifxnysPrbX8Bx14X8Z5gPpZynZuj/8WH3Y/i2+M6t3f/iw+8L+Lb4wWWdafC0P31PjWP4SHOyP4SnxrOmQJL7OuPQrn8H5Djbn8F3iFf0n6JwtT+C7xAss60+UT+M+Vh9rq/8AxYdZj+M/SYfa7v8A8WA+ln2HahfxafCOraX8Lzz7wv4tPGdW0P4fngtSkrVu4SHcrn8H5DoVz+Eh3K/pE8QLbJxtj+C7xHwY/jPMPpa38F3iOux/G+YC+zlOV5fwV+EXRrlq3x+8vwi5UefZGU8Mz4CPX7CePM/Ot1d8dX6mIk3depS+Tk/hUjHzPzrdXfHV+pjJOXXqUvk5P4VOdaf8aPek9kDoSgPFTHoomrY2ZbG/W+h+KUf1TDWabMtjfrfQ/FKP6phud22wyv8AP7DTritnmeC37S5UKlEKkUEuAAAAAAAAAAAAHEs3Ze603L4hXfUSF5Fm7L3Wm5fEK76iQ+8vsrfDR1nimthc4C+o1tgA6ghkgcwRyxAAKlAAAAAAAAAC/dgPrzb/AC7fqyRe3a630nxtPqJCOmwH15t/l2/Vki9u1+AUnxtPqJCN6W8dSW9DrWSRRPiSc+fIPD2j9lwbX1CpvOWmgYvk8x7/AKxhjvbcXvNvDo8d6kgpof038cn7JkJBbUqypDZo34YLVTVM7vGj8n/CFCHuyted0XKumxxR9VNqO/Ijfls/u2MLaLrmabmno5G62/XibhzIiVpT/DULKs7p3z/kLXABJRGoAAKgAAAAAAAAAAAAAAHKGFXKjWprK5dVrTYXsgytobHUI3g7moHQRq3sOysqP9uoQh2H7Nn3SgiwxRamGRW/kRvzH/3cZLLbfXjKs6x99VFNFh+Szj1+oI0uljf5+SlP9eP1qh2RJIuch3PITk1/o9hB4AElQxEbxjWAAVAAAAJDbSfrhVfFP9VhHkkNtJ+uFV8U/wBVhrl0ni1/1dZsdz3jFjhx6iaKFSiFTno6KAI/7Klp03fXSOstXo7Bb3JFkxXamr5Kpr0YmZrvp1ysFk1lTtJgWl7HNk33x0P+iXMAlaCKXsc2TffHQ/6Jcx7HNk33x0P+iXMAlaCKXsc2TffHQ/6Jcx7HNk33x0P+iXMAlaCKXsc2TffHQ/6Jcx7HNk33x0P+iXMAlaCKXsc2TffHQ/6Jcx7HNk33x0P+iXMA9PS7b52W1Xuosd5Weyzw5D6evnZmUFTSzMR8cjJo8ZY/dIZVngSGKWORM5cMSQlh0ggqoWVFNPFWQyt1mVNJKyaJ7e2ySPGN/wAimkrmolPemXC2sv8AU2Srr0o5lYthiqYnsolm4tKpKjlRZUnysPzvbLK2mmgWnMlQk2iqV9JG5/G1quybU5UXBc/dGNJU5XLlJDPL+a7AB+gAFgbEFDemUETb7UUNVcG45stogmhgww5OPk4x/wCcSGCPtRIX+AQi26PXaH4hB/MVRgQz3t0eu0PxCD+YqjAh0Nc74vl+BH70TnK6D+Pf4cOqAABsRr4AAAAAAAAAPc0DsG6q6kp1TeqKiGKT4D38Z/dnhmUtrFQZl7ot7WRm6Xrj2mUz9X/j1DHUi9eZV5yH0G3T30czfpppvy3GzYDGzBMETePoAc0HTsIVGFNtZpfLSWp2S5WPrJ46VZG8rGPZI9/zsjWL9MgmTO26/Wym+Pxfy1UQxJruNaRCRiurHfOqECELsXVKnoJjkQ2DlTUz5HNjY10r3rqsjjbrOc/ubDiSn2rOgMNNSS3qqRqarZnQvemtlU0KLnT9tJJcHxrgnJHimOaqGzUrSCaPYvse+Rjiah9rE1qi5BU+/eoayGV2P2Ra+hm07rp2NkqpY6DHhJErc6ZfA9iPhjZ+jKpctx2kHBXJuGs7sJLTpqr43MkRTGOyltiq64SvSKWSipWuwjhgfquc3srM9irr+LHJ8ZYtj09raZ6SQVU8Tk4WLJH8Lykfun6811MtTUwm+qmEtrywZvcOKuoz6pihmFXqEupxGS+3w9HZB2LKy1yIyqjwa5cI52LrQSr+Q/8AqOOLSJn7F+yFBpJQz0NdG3dDGtzNVMNdi9JVQ9mN8UnjwVEXkkwSI+l+jL6OqqKWTp6WR8Wt+N3OT9dHxxkaHpNx9a5WbTYfay5nPtPn4GPpajW2EomZVVtlzo/szyDK+1i0rlprvTxscuVWOyZoseC7gSaj/wBVJveJTFBfuwJ14t/l2/VmTpZpLkm9BUPq3I8WOBjqKdU3ONRTujZsaQqUQqc2HS5Fjbu6PosVDVom/HJNTPXt5jFkj+ren6ZE4nTtu6JH2aRy+4T0sifK9Gf9ZBYnK5F6+SCU7m451V+0ge65m9z6leW22AAbsaUAAAAAAAAAAAWqyR3olycsN+Bs80S/BKbyFN9Ww9o8XRL8EpvIU31bD2jl53ZF78es6kZ2NG9DqOQMK7NVt0tkqIl0eqrJS0yQ4Tx3uCrkldVa7+HGtPvZeXqJwuziY89jmyb746H/AES5nyPuStBFL2ObJvvjof8ARLmPY5sm++Oh/wBEuYBK0EUvY5sm++Oh/wBEuY9jmyb746H/AES5gErQRS9jmyb746H/AES5j2ObJvvjof8ARLmAStBFL2ObJvvjof8ARLmPY5sm++Oh/wBEuYBcezdtzbXo1dKagvMdTQ09xgz6S9Rx59I5zH5c8E7I+OZJDxarkwzcXLHisRmPQbZDoblAlVb6umuNO7pZ6OZk7OROCqxquo/82uCp2jVBzUKl0kjt1sZpHVaPVTn1k7qCOzQVkVYmpDhVP16ji9z8OnzcPdVh7W9E7awaH6V1FYj9F47k2oarGSVVue+GBicupVVCrDSpGvc62VEXtLvgH6NyimG9rVatJ4qDV0nqrfV1nARjrbE9j0Z/4mTiKZ8vY+8aKGJMOWXlMyKAQQ23fXl/kKb+FTKe0f8AwWt8vF9WYs23fXl/kKb+FTKe0f8AwWt8vF9WSzSP+X0cBnrgRBRvj97hu9RJ0opUopExL5rC23Tv/iS6fDt3+X0hg3SDpG+UZ/iZw23X9pLr8O3/AOWUhgvSHpW+UYdLUT4vlvRtfhwOZqRh/wBUf9O5986F1fyeM7bH8W06N27HjO2zqbTKlqk60+Vlfwj4Vj99PEVsj+EfKt6ZviCSlnXHoXJ/B+Q4W1/AcLr0vyHC2dI4CzrT5wv4z5T63h+/8p1YX8Z+kw+94fv/AClCtnXHbhfxbfhHXsr+Ep9YX8W3xnVsr+EoCUnCsfwm+I9C5P4PyHmVvTN8R3bk/g/IVKWfBK2t/AcdeJ/G+YfW1P4DjqxP439JhQrZynbuz/8AFh94X8W3xnVu/wDzYfeF/Ft8YLLOtPhaH8JThXP4SCyP4Snxr38JCqS6zrj065/BTxHytb+C7xFK/pE8R87T0rvEUK2cRwa/jPlYfW7v/wAWHVa/jflYfe8f82AWfAO3C/i08Z1bQ/hn0pn8WnjOraHcMBKTnXP4SHdrn8FPEebcn8JDv1z+CniBZZ1sDja38F3iPg1/GeYVtD+C7xHw1+N8wF9nXRPre37ylzlqXl/BX4RdJ9EZTwzSdYjfj1QJ6cz663V3x1fqYyTt16lL5OT+FSL/ADPfrdXfHV+pjJQXXqUvk5P4VOdqf8Zvekh1QJ+oDxUx6OJq2NmWxv1vofilH9Uw1mmzLY3630PxSj+qYbldtsMr/P7DTritnmeC37S5UKlEKkUEuAAAAAAAAAAAAHEs3Ze603L4hXfUSF5Fm7L3Wm5fEK76iQ+8vsrfDR1nimthc4C+o1tgA6ghkgcwRyxAAKlAAAAAAAAAC/tgHrzb/Ls/gJE7dtfvCk+Np9TKR22AuvNv8uz+AlFtpbLuiO1QYb090pYnfAeyRi/4kYU6uCKXllqyQTXH1RWSZQaFO0RMoTtuVfhl52FvO6xxq7eWht+Y/wCHHDrv/wCNFNdj3qq4qusrifm2dvmRZapEXVdPkQN8KSPYj/7vX+YgGeu41ClNzEwr6blXF/8Aoee7BaUuS8un6Dfz9wAAkQjsAAAAAAAAAAAAAAAAAAzXtP7NmXdsipvUtPUyov5x+XD/AITSF9beG98Kgp0XpUqZ3t9Gxn+offaPWPg19QqbzlpoGfoJI9/1jDHG21vObeZWcqUkFNB/wZ/+uRqmuZuh9Ajqh2uEkfw1z/p1/P3DDQAJKI3AAAAAABIbaT9cKr4p/qsI8khtpP1wqvin+qw1y6Txa/6us2O57xixw49RNFCpRCpz0dFAAAAAAAAAAAAAAAGA7ttMLDV3ipvdxpFvVfUrBlrdHZ9LTQwRsjZBBSb1NlojEVc+GWXOWWTW4xTOVLStY1GMajGsRGsYxqNa1mG81uGHa7H7DtAAAAAhFt0eu0PxCD+YqjAhnvbo9dofiEH8xVGBDoa53xfL8CP3onOV0H8e/wAOHVAAA2I18AAAAAAAAAGWtqo5EvdKi8qtq0b9HeYlL52CrvkXigkVcE3SyJy+X4j/AKzF0s3fJKYSnc3TK0U5e5uXUrdG/wAQ2Pgoig5rOmCPG3Z62U3x+L+WqiF5NDbs9bKb4/F/LVRC8m+4/wDgYelc6oEE3X/x6vRtgmDpeqpoZHlci01Br4fi5sWvh+niQ+JYbWDTGCut81lqlTWayZsTHLqulopt+TV/Like9N5MU4vueKfa6VCkoZmEptoYcbcdh8Pmo89zK0qW8wpVhb7bjbRE8GQtlPYSrLXK/WjdNTY8XVsTi1Z+c7nIWVaLLNUSJHBE+eRelZEx7nGzMT7Dzd/bcqRvmvPyL7Ll5Wite8ZX2pD5EvMaMx1VgqUlw/E1U/1NQ6W2ojTn3V4YY6tNrYfj7mZh+wztsJbGbLBR1FxuDmxzvjTMbjrZEO8uSi+3fK/Vx7fFp44nadaVvrqypq3pgtTI9+C+1Z7mz9THqRGpUe4mdpZ6aZ2Ftu9Xzacc+earObXSDapKimpV7ZnHL7e9zbPDL+2AuvNv8uz+AsEv7YC682/y7P4DaaS/hXvRufhmsUZ/FM+ka/ENjKAIVOaDpswvtsZESy1GK4a0lJh4eOjIHkz9ujd0ZboIUXhVFU1dXtsYx+t8z3R/OQwJtuNbsyMVeW45VxQINuxctT9nyG2+sAA3s0QAAAAAAAAAAAtVkjvRLk5Yb8DZ5ol+CU3kKb6th7R4uiX4JTeQpvq2HtHLzuyL349Z1IzsaN6HUcgAfI+4AAAAAAAAAAABg3ZR2olmvdzhul2hkur6OBlNSW+qk+8YUR8j3yLTxo3Nkle/CVahZYlSOLi+LxMvWOxQU0UcFNDFSwwt1IqemjZFFGxPaMjYjY2J4ETA9QAAopUooBBDbd9eX+Qpv4VMp7R/8FrfLxfVmLNt315f5Cm/hUyntH/wWt8vF9WSzSP+X0cBnrgRBRvj97hu9RJ0AETEvmrzbe/2luvw6D/LaQwXpA/gN8pGZx23zv8A4luvw6D/AC2kMGaQO4DfKRnS1E+L5b0bX4ZzVSEP+pvend+/E826v5PGdtj+Lb4zz7q/k8Z2oX8W0yoUnEfKyP4R8qx/CTxCyP4R8ax/Cb4gkus649O5P4PyHC1P4Ljjcn8H5Dhan8FwLLOtPnC7jPlOxdn7/wArDowv4z5TsXd+/wDKULrJ3Yn8W34R1bM/hH1p38W34R1LK/hKCiU5RXv4SHoXJ/B+Q8mvfwm+I71xfwfkKiziScrU/guPg1/G/pMOVqfwXHwY/jfMKCzronau7/8AFh2KZ/Ft8Z0ru/8AxYfemfxbfGBZ1p8rO/hHyr38JBZ38I+Ne/hIVSXWdcenXv4CeI42p/Bd4jhXv4CeI4Wp/Bd4gWWdafJr+M+Vh2Lu/wDxYdLX4z5WHYu795fGwoVs+Ad2mfxaeM6todwzlTP4tPGdW0P4YFnKc65++n6Z365/BTxHmXJ/CQ7tY/gp4gLOtK2h/Bd4jq6/GJ+gcrQ/gu8R19fjE/QAs66J2Ly/gqXWjyzry/eX4Rd2ufRGUx82nWI349UCenM9Ot1b8dX6mIlFdupS+Tf/AAqRb5nj1urvjq/UxkpLt1KXyb/4VOdqf8aPekh1QJ7oDxW16OPtNWxsy2N+t9D8Uo/qmGs02ZbG/W+h+KUf1TDcrtthlf5/YabcVs8zwW/aXKhUohUiglwAAAAAAAAAAAA4lm7L3Wm5fEK76iQvIs3Ze603L4hXfUSH3l9lb4aOs8U1sLnAX1GtsAHUEMkDmCOWIABUoAAAAAAAAAX9sBdebf5dn8BOHTWyZ1Va97FtPVTTu/QpZ2M/vJGEHtgPrzb/AC7P4DYmjEVccN9OQhu7JcUTjSoblVxxXAmO4xEFybqVbp7EEbNu7e9Wlo6fsyzvmw8ELNT/AFyIJnzbmXnXucUKLvU1KxXN/Fke971/u0YYDN7uYYvNHNV/WRi7z4uao0a6Z+/Ui79n3oAA2k1UAAAAAAAAAAAAAAAAApHFAQhXiJ0bUm0JFZmSYYLVTVM6+BdbJ/whQh5spXjdFxrpUXWSSqqUY78jXy2f3eoTq0fbzuscau3lobdmvxT3WOHXf878TXg9+K4qRtcxC/zs7N/68XrVGPVCBJF0se55OSlf9HsgAASURuAAAAAACQ20n64VXxT/AFWEeSQ20n64VXxT/VYa5dJ4tf8AV1mx3PeMWOHHqJooVKIVOejooAAAAAAAAAAAAAAAAAAAAAhFt0eu0PxCD+YqjAhnvbo9dofiEH8xVGBDoa53xfL8CP3onOV0H8e/w4dUAADYjXwAAAAAAAAAcqaZzHNe1VRzF1mub7V5xBSMK4RhnKwjVGEcxsy0D0mbW0lPVNwwqYWPc1N/Vfhw48fzT9aPxoXFgn7CLO012RtZkttkdvx61RTI78RV45nySLm+FZJO0SmREObKVklScytmO1HF50RyR4uc6TomdTOSqHYZqo8OGUj1t1U/7Mp+2ldF825qohgbJtkfQSK5UktLLi1JUxZK1OFHKzpHp4UXtkQbntR7wx6oyOGoYnSyslY3H9B+QSDcnS0rLy0WXl3tSYxjC+ZI11c5Hl1VEzT8zfmUW0Kbq73lMLn3t1xkhkZLE90MsS67HsXVc15lboUb33tH9Ii9YOhRvne0f0iL1hvC6Xo9cKozCKo5e+NmkIoekEY4S6q4fZrL20I250sbWsr6dKhWphuinVGOXwvh6THxrEngLkqdunRsb970EyuX2sixQp87Fn/wMS9ClfO9o/pEXrCnQpXvvaP6RF6w1NyQoBSrUHUwhtwg9VDihHqNqbnadQmze1b8Wi3dlDZnrbq5M9yRwsXWZSwrqxt/LkVeqSJ2ixTLvQpXvvaP6RF6wdCle+9o/pEXrDZZakaMlm7008hCPSNmuv0bScy5fHmlrX6NwxEX9sA9ebf5df4JD3+hRvne0f0iH1hmjYA2tklvnStrHMdPGj2wwRLrNiR6aj3uf7aRWayb29v8p4KWpySTKvQQ6lxbiKoQaz+rIe6iqCnYzTUVNKbQ25X3wkigxKYlu6aaVx0VNPUyrqx07HPXD2y8jWJ+XI9UjTwqnIQUlMVqsp28XGTw4uDaYqVtER9uLpak9xjpmri2gh4XgmmTXeno8hflMCHfv98fUzzVEu++okfK9Py3vOgdI0VJ9ySjLO2jHHfjjjznNVJzfdU0695fsAAMqYsAAFQAAAAAAAC1WSO9EuTlhvwNnmiX4JTeQpvq2HtHi6JfglN5Cm+rYe0cvO7Ivfj1nUjOxo3odRyAB8j7gAAAAAAAAAAAAAAAopUooBBDbd9eX+Qpv4VMp7R/8FrfLxfVmLNt315f5Cm/hUyntH/wWt8vF9WSzSP+X0cBnrgRBRvj97hu9RJ0opUopExL5q424P8AaW6/CoP8tpDBGkbuA3yjDOm3E/tLdfhUH+W0hgnSPpG+UYdLUR4vlvRNfhnN0/4zd9O5988u6P5PGdpj+Laefcn8njOwx/FtMuXKTrTjZX8JT5Vj+E3xFLO/hHyrH8JPEVQXWdcencn8H5DhbX8FxwuT+D8hwtr+C4oW2dafOF/GfKdi7v3/AJTosfxnynYuj/8AFgL7J3ad/Fp8I6tlfwlOUL+LT4R17O/hFqiiUivfwkPQr38H5Dyqx/CQ7te/g/IXFlnEk52p/BcfBj+M8wpbX8Fx8mP4zzAX2dcdu7v/AMWH3pn8WnjOldH73ysPrC/i2+MFtnWnGzv4Snyrn8JClnfwj5V7+EhVJdZ1x6Ve/gJ4jjan8F3iOFe/gJ4j5Wt/Bd4ihZZ1px1+M/SYfe7v3vlYdLX4xPGw7F4fveYC+z4B2qZ/Fp4zr2p/DOdM/i08Z1bW/hgrZPrXv4SHdq38FPEeVXv30O7Vv4KeIFlnWi1v4LvEfLX4xP0Ba38F3iOvr8Yn6ALrOuOxeH7yl3IpZd2fvKXiXpMbNp1iN+PVAn1zPHrdXfHl+piJSXbqUvk3/wAJFjmd3W6u+Or9TGSnu3UpfJv/AITnSn/Gj3pIdUCd6B8Vtejj7TVsbMtjfrfQ/FKP6phrNNmWxv1vofilH9Uw3K7bYZX+f2Gl3FbPM8Fv2lyoVKIVIoJcAAAAAAAAAAAAOJZuy91puXxCu+okLyLN2XutNy+IV31Eh95fZW+GjrPFNbC5wF9RrbAB1BDJA5gjliAAVKAAAAAAAAAF/bAfXm3+XZ/AbFnLymunYD682/y7P4DYZca1scb3u4LY2Pe5fyWIqqQ3dpjm2ofZw/EiTLcXGqTej9pH7kDXls93rdF4r38qMnyE8cLMhf2sLCOxcq90skkr+mne+R3w5H5h1yWJNi8MNt7m3DqImm3r8+455bkQAD2HjAAAAAAAAAAAAAABQHr6HWbdFXTQd81NLE79N8bDyDKu1fsmfeqVVTWbTpNO79Bkmp80kjDG0g/eZZ5zyG3OMyFHM36YZb8txslRtnL5k2WrwXVdNkwN8UkjNf8Au9cgES+27l51aWip+7TyTqnghZqf6yEQTWbj2b3IRXujn7ZtN2D18noI3Nur/wBwADeDRwAAAAAASG2k/XCq+Kf6rCPJIbaT9cKr4p/qsNcuk8Wv+rrNjue8YscOPUTRQqUQqc9HRQAAAAAAAAAAAAAAAAAAAABCLbo9dofiEH8xVGBDPe3R67Q/EIP5iqMCHQ1zvi+X4EfvROcroP49/hw6oAAGxGvgAAAAAAAAAAAHo6NaRS0lRDUwLqy079djv9PyfuJsX2M9kKG50kVTCu8/gyRe2ilTp43+FF/9drWuX1sQ7Lk9pqM1nGQS6iVFOq8F7e2nLly+M0y6OhNUGr41szfPDc+z4m53OU1qe7Yc2Fz5vhsbQKhbmhem1PXwsqKeRJY34fCY7ssez2j05FRU/wCRceJBi0KbjZViVtwJ1adS4m0nGk5gAtPqAAAAAAChUoqgHFSFW2q2ZN1zbgp3401I/GZ7V4MtT2lXsxwb/wCt/VKt7bY3bHpG19voJMZ14FVVsXgws9vDHJ2JcN5ZU6j5TqUSSUrlqCVBXdkwjF9VCP4kYeba48xE11VPpUnuOXX6WP8AxgAErEVgAAAAAAAAAAAAAFqskd6JcnLDfgbPNEvwSm8hTfVsPaPF0S/BKbyFN9Ww9o5ed2Re/HrOpGdjRvQ6jkAD5H3AAAAAAAAAAAAAAABRSpRQCCG2768v8hTfwqZT2j/4LW+Xi+rMWbbvry/yFN/CplPaP/gtb5eL6slmkf8AL6OAz1wIgo3x+9w3eok6ACJiXzVptw3f/E11+HQf5bSGB9JXcBPKMM67cf8AtNdfh0H+W0hgXSXpU8ow6WofxfLeia/Dgc6z/jJ30jn34niV795DtsfwGnm1z/8AE7WvwGmaPpZ1os7+Ep16x++niOVqfwl8R8Kl++hakus649K4v3vkOFA/guPlXv3v0ThRv4KlxZZ1pWF/D/SPtcX/AOJ1IXcYnjPrcX/4lhdZO7C/i2/CPhaHcJSkL+Lb8I+Vqfwl8ReUsirfvodqufvfIebUP30O1XP5fEBZPtbn8FT4NfxifoHGgfwVPnC/hoBZ10TtXR/L42H1hfxbfGdS5P5fGfZj+Lb4wLOtOFqfwlONY/fQ4W1+DlPlUv30LUl1nXHpVb+D8hxtzuC4+NW/e+Q425/BcXFtnEVR3DTxsPvc38v6B0mP4aeNh9bi/l8YK2TtRP4tPhHwtz+EcoX8WnjOvbncJSwpZOdc/fQ7tW/gp4jyqt++h3ax+8niLxZ1pztz+C4+GvxifoFba/guPhr8NPhMAs44n3ur95S9EeWLc37yl7BOUxk6nWI34+wn7zOzrdXfHl+pjJT3bqUvk3/wkVuZ19bq746v1MZKm7dSl8m/+E50p/xo96SHVAnGgfFbXo4+01bGzLY3630PxSj+qYazTZlsb9b6H4pR/VMNyu22GV/n9hpdxWzzPBb9pcqFSiFSKCXAAAAAAAAAAUUqUUA4/wD0LO2XutNy+IV/1EheP/0LO2XetVyT/wABX/USH2l9lb4cDxzewucBfUa2wAdQwyQOX45YgAFSgAAAAAAAABf2wH15t/l2fwE19nm9ZFnuEiLgq074kVO3NhCnzK8hLsEORLxb1VcE3QxpK7bY008lpWOCKSfXqIM1sTXOc2FmvJr73akZH85FV0baXKVlUqyd7r3r5jJUudWpFFTUU5e+fhkFgd2ayTtVUdDIi/iujefLnPL3KTzHkn31vPDjIwvDmaPFE64Oxznl7lJ5jxznl7lJ5jxfW88OMpel5uY64Oxznl7lJ5jxznl7lJ5jxfW88OMXpebmOuDsc55e5SeY8c55e5SeY8X1vPDjF6Xm5jrg7HOeXuUnmPHOeXuUnmPF9bzw4xel5uY64Oxznl7lJ5jxznl7lJ5jxfW88OMXpebmOuDsc55e5SeY8c55e5SeY8X1vPDjF6Xm5jrkltpJZcamtqFTqUMMLV8Ez9dfqWEdobDO5cGwzPX8Vsb3Ez9qLodLTW+R80b4ZKmoe/VlbquyWsjjZinyPNQuqmkokFISuuLkYQ56480DcLlpVS55K4oqg3nMQbc2869yhhRd6mpmK7wSPc9yp5iMX5TARfuz5fN0Xivei4o2bITxwsyF/awsIzVBs3mRZRnbr9ccZhqZev07ML+0qAAM2YQAAAAAAEhtpP1wqvin+qwjySG2k/XCq+Kf6rDXLpPFr/q6zY7nvGLHDj1E0UKlEKnPR0UAAAAAAAAAAAAAAAAAAAAAQi26PXaH4hB/MVRgQz3t0eu0PxCD+YqjAh0Nc74vl+BH70TnK6D+Pf4cOqAABsRr4AAAAAAAAAAAAAABdGx9slVdsmzqWTBHdVgfwo5Wdt7OVF8Kb5MvYs2yNBcWtY96UdUvBWnmXBHP/Mv3kk/ZJ4CBgNYpW56WpHXR725usNvfhtmz0TdBM0frYd8RuRtSa/HwnNqmu3QnZ/ulDg2OoWeNvJDVJnRr4G4caxPBDOqGadHtu2zeSronsXsvpZGPxXwMkyMPSqRfN3KTzEa0JviM6c29HqxkoSl1sk9skb2rNHtJUgwhQbb2zPRNZ9RT/kywL/p5x25dtlZUTFKiRfyW08/qzCajzujr5OPYZvVqQ0hPKQMyopxVSPF526NvYipDBV1DvaqrWRtd+ksiyf3JivS3bj3KZFbTMioGu9smE0rf03okXzwGQlrmp9+NV6sedzFDt5jGzN09Hsw2W36PGS70s02paKNZaqdlOxuO+9V1neBjUxe9fBEiqRJ2ZNtXPWI+noEfSU68F87l1Z5Wf/p417PuvgQwbeb/AD1L1lqJpKiVeV8r9Zx0yRaKuTYlVQcmO+LhjhD6qHbH5qI7pa6x+aTe2O8o6QAA33IaHHHjAAAAAAAAAAAAAAAAALVZI70S5OWHqNnmiX4JTeQpvq2HtHi6JfglN5Cm+rYe0cvO7Ivfj1nUjOxo3odRyAB8j7gAAAAAAAAAAAAAAAAAED9t315f5Cn/AIVMpbSH8FrfLxfVoYs23XXl/wAXp/4VMp7SN33tXJ2c+Le7XFks0j/l9HAZ64EP0d/mBzhu9RJ1AoQqRMTAar9uR/aa6/CoP8spDAOky8WmPdGGetuNXv5/XZYmxPmR8CNbNqaq6lLTs4eP5vtmIK5GSRo2RjFXgK5sf450nRLkISUs1Xkaa/DOdJ+MUzzrtWK/uwxZfD6sZYM8iL85987FrUQutlhiw6kobYYk5IlMxfU5+cpGZ+zVxFnW6ZEcviPlUOwXfL25wx9xOTrHHhgsIvsM8OOBf3XDyI8RaVW/HHxHGlmTVcicuJd7LDGnuRX2PRpvpCL6nPzwLO6fs1cRZMcuD0x7Zyrn8q9jEvR1hj7MJy5xx8mTvC+wzw44DuuHkR4iz4psY24b++fK3TJrKnZwLzZo7EnJFgPY1Fjjk74vqc/OO6k7mriLGqJcFTHeO3Vvx8WBd0thjVN+HE5MsbETDJ/4i6+ozw4x3XCz4EeIsygmRWuw3z5tnRHoi8perNGok5IcPlEmjcS76w7/AGy2+pz85XupNexqLLuMuGKryYn1il4tuG+Xk6wxrvLDinwg2wxpvJDh+kL6jPDjHdULPgR4iybbUorlRF38HnyrJkRUx3i+GaNwouKQ4L4zm/RuJeWHHVF9Tn5yndSbWxq4izat/wA2BxopUVrsC9ksbFTDJ3vhHGOwxp7hh+kL6jPDjHdcPIjxFjMm4aJ2cWH1uMyIq4l5+x6PHHJTHtlV0djXlhx/SF9hnhxwK91o8iPEWc1/ARewfK3TYuUvj2PswwyN74Rwi0ejTkhRBfW8/PAd1p8iPEWLUT76J2TuV02GGPaLu9jsa76w75zfo+xUwWD/AIhfW88OOA7rR5EeIsmhk4Lj5MmxenjYX23R9ibyQYHBujsfKkP/ABC+ozw44DutPkR4iyLnLyl9JIcZNH415YUVPC4+9xr3ojclkUi67Ufr6jcIvbvKLfglNqs8Uw5F+whKMePLihtbZPnmc/W6u+O/6MZKq69Sl8nJ/CpDvmdFxVzbtHimpGtskaxOlbJJuvXenj1GJ+gTBu70SGVVXBEjkxVfgnPt0CaqVd28bfOhESbLn410U3GOZ376zVybMtjfrfQ/FKP6phrNNmWxv1vofilH9Uw2+7bYZX+f2Gn3FbPM8Fv2lyoVKIVIoJcAAAAAAAAAAAAOJ5GlFrzqeoi7vDNF57FYeycXIXJVZVBWao+biLSYpzwNVL2Kiq1UwVvBc13tQZT2yWgDqG5zKiYQ1zn1ELvh9XZ+qk11/WxGLDpaRmkzLDbyfpwgcyTssqXfWy59AAAyB4QAAAAAAAAD60FY6N7JGOVj4nskZI3pmvj6nITD2Ott5RSQtSvV1JOxMHubG98MnJw2Zee9uPc3b6eHsQ3BgaVoeXpKCIO4oo24ZfaZui6Yfo5SotY4L2o5CfnRR2Lv391q/UDoo7F37+61fqCAYNbwLk90Xxo9w2XDOb3NHEv3yfnRR2Lv391q/UDoo7F37+61fqCAYGBcnui+NHuDDOb3NHEv3yfnRR2Lv391q/UDoo7F37+61fqCAYGBcnui+NHuDDOb3NHEv3yfnRR2Lv391q/UDoo7F37+61fqCAYGBcnui+NHuDDOb3NHEv3yfnRR2Lv391q/UDoo7F37+61fqCAYGBcnui+NHuDDOb3NHEv3yfnRR2Lv391q/UDoo7F37+61fqCAYGBcnui+NHuDDOb3NHEv3yfnRR2Lv391q/UDoo7F37+61fqCAYGBcnui+NHuDDOb3NHEv3yfnRRWHv392q/UFkbJW28o2QubbnOq53t1WSOjeyKLl4S5mRI96dybvr4N/GHQPszcdJtuQVFS3IZo1VeupuB8n7r5xxuymCG/nhiaZVVXOVVc52s5zvbPABvcIVYjRIxrxgAFQAAAAACgJN7SG0YzV06pvMjpoWr8N0j5P4IyMhsA2u2x86322KORurNOq1E6L7WR+Gqz9VG1jfkNHuvnEsyUWfpuRhxQxx6qvWbvcjKKenUu/QbrMsAoVIPJ3AAAAAAAAAAAAAAAAAAAAAIlbdzR5daiq0TewmppHfi72ZH+zOX9Ai4bHNmDQJtyoJ6beR7kR8L19rOxdZi9jBMeAq9pymuq40D4pHxSMWOSJ743sd0zXs6eMmu4+eS9KRYj4bMYxhvR+aiDrr5FTM3f/oPdZ8AAb6aGAAAAAAAAAAAAAAAAAAAAAAAAAACgAAKgAAAAAAAAAAAAAAAAAoD0dF7G6pqYKduKLUzQxIqdp79Q84kftQNi5Zah1ylbxVLrxU2t7aof1R/6pmCL+dkXuSGGpeeTJSi3Y5Y4ob8chl6JklTk0hpO1HH6MmHTwo1qIiYIiYIh9iiFTnA6WhCqFQAAKgAAAAAAAAAAAAAAAAAENNuvo8raykqUTg1ED4P04H66fPnf3Z8NphpY2KtnpHLglbDG9mt2ZoFfwPRvf6MzxtjdjxbhbZGRt16ilXdNOjemc9nTx8nusavROTjMtewQNsd8kppop4V1ZKeRj2L+Wwl6iLNJ0QuU+sb73z3xuPHiIbpi1RlLomvoL75/6OG0lFBZexbsjw3OkZURKiL0ssOPCimTp43+FFLzIkdbU04ptyFSkYowiS4w+h5tLjca0rxwPOqLBA9Vc6GJ7l5XPjY5y/Lgc6WywxqqsijjVd7GNjG/4YHojEXxWSvnL72jNzQKZadpPmGWnaT5jkC2svswzHHLTtJ8wy07SfMcgKxZhmOOWnaT5hlp2k+Y5AVizDMcMtO0nzFctO0nzHICsWYZjjlp2k+YZadpPmOQFYswzHDLTtJ8wy07SfMcwKxZhmOOWnaT5hlp2k+Y5AVizDMcctO0nzFMtO0nzHMCsWYZjjlp2k+YZadpPmOQFYswzHDLTtJ8wy07SfMcwKxZhmOGUnaT5hlJ2k+Y5gVizDMcMpO0nzDKTtJ8xzArFmGY4ZSdpPmGUnaT5jmBWLMMxwyk7SfMMpO0nzHMCsWYZjhlJ2k+Y8uTRqnVVVYIVVd9XLGz7D1lU4qpVK1QyR4olIoTHa5jpUdrjjxy42R48uW1rdb5sP2lh7POlraO01cmKI+WN9PF2FWWZNTe8WLpPExTIznIiYrvIhBXbN7L6XGpSngdrUtE5+D2u4E03t39rU9xiXs8b2JUNgoKjVz82jyEd8dj5oduT/4a1T1IpkJRe0tfe2oeeJiG0Wt00sULExfUSMiY38t78ths/t1E1kbGN3kjYxifBYmCELNqTsdLU127JG8Rb0VzVXpXVL+kj/U9V9ETd5MDPXZTiXZlMujI1DHvrqjzQ6zB3HSSm2FzCsrn/ofUFCpH5IgAAAAAAAAAAAAAABjnZh2KYrrSOgdgyVmMlPPh0k3Y5ExVknJIicqL2d4gDpRovNRTyU9QxYpIVwVF+sj7pGbQMd8sjZL2J6O6RIypZw2dSqY+DNEv5D8MU+ByG4UBdCqjo3pzXsx2tzjnh7Yevf0in7nk0hC+s6x6HSeaJriBm3TfalXKnVzqZG3CH2ronZcyfDifvehzV8Bim6aFVkK4TUtTAv52B7f9MmOVpSUmU2mnkr80cUeKOMhuZoyalVWXWlJ88McDyAdrnVL3KTzHjnVL3KTzHmQvreeHGeG9Lzcx1QdrnVL3KTzHjnVL3KTzHi+N5+cXpebmOqDtc6pe5SeY8c6pe5SeY8XxvPzi9Lzcx1QdrnVL3KTzHjnVL3KTzHi+N5+cXpebmOqDtc6pe5SeY8c6pe5SeY8XxvPzi9Lzcx1QdrnVL3KTzHjnVL3KTzHi+N5+cXpebmOqDtc6pe5SeY8c6pe5SeY8XxvPzi9Lzcx1QdrnVL3KTzHjnVL3KTzHi+N5+cXpebmOqDtc6pe5SeY8c6pe5SeY8XxvPzi9Lzcx1QdrnVL3KTzHjnVL3KTzHi+N5+cXpebmOqDtc6pe5SeY8c6pe5SeY8XxvPzi9Lzcx1QdrnVL3KTzHjnVL3KTzHi+t5+cXpebmOqDtc6pe5SeY8c6pe5SeY8XxvPzi9Lzcx1QdrnVL3KTzHjnVL3KTzHi+N5+cXpebmOqDtc6pe5SeY8Mskyrg2KVVd0rWxPF8bzw4xel5uY6oL40Z2DLtVu1YqKZiLyy1LMmPz5MhZP1BIzYq2otPTq2a4uStkRdZtMxMKZuOHTou/Py8jky/AYCkKfk5NONd8XubXtzGeo+5+cnFYkXtG6ulhbWbYFfUSR3CrYraeJWSUsUiJxz+VknL1OHkTuvL4CZiYHyZEjcERMETeREPt2yEaSpJ2kHouueqG1CGbt7CcKKotqjmb23l+sjnic0KlEKmJM2AAAAAAAAAAAAAAAAAAAAAccCPW2M2vC1+NZRtalW1EzYulbUMZ2F/OJyIq/+8hcDie2SnXZJ5LzMalQ4o+aPmMfPSTU6ypl6GtjzGrCsoHxvdHIx0cjF1XxyJqua/wDLYfI2K7IWwlb7m374hwlw1W1UK5czd5Pb7+v4pkkTwEf9JtpPUIqrR1cUzewyqR8bk8cjM9ZPkSImGRuulHk1P94Xnywj64e2ohufuSm2Vd478jnI1AzW7ah3nfTUp1/KSZU/5HDoRLz3OD0zfsM7q3IaQnlDAaiT+jq5MwuDNHQiXnucHpm/YOhEvPc4PTN+wrq3IaQjlBqJP6OrkzC4M0dCJee5wemb9g6ES89zg9M37Bq3IaQjlBqJP6OrkzC4M0dCJee5wemb9g6ES89zg9M37Bq3IaQjlBqJP6OrkzC4M0dCJee5wemb9g6ES89zg9M37Bq3IaQjlBqJP6OrkzC4M0dCJee5wemb9g6ES89zg9M37Bq3IaQjlBqJP6OrkzC4M0dCJee5wemb9g6ES89zg9M37Bq3IaQjlBqJP6OrkzC4M0dCJee5wemb9g6ES89zg9M37Bq3IaQjlBqJP6OrkzC4M0dCJee5wemb9g6ES89zg9M37Bq3IaQjlBqJP6OrkzC4M0dCJee5wemb9g6ES89zg9M37Bq3IaQjlBqJP6OrkzC4M0dCJee5wemb9g6ES89zg9M37Bq3IaQjlBqJP6OrkzC4M0dCJee5wemb9g6ES89zg9M37Bq3IaQjlBqJP6OrkzC4M0dCJee5wemb9g6ES89zg9M37Bq3IaQjlBqJP6OrkzC4M0dCJee5wemb9g6ES89zg9M37Bq3IaQjlBqJP6OrkzC4M0dCJee5wemb9g6ES89zg9M37Bq3IaQjlBqJP6OrkzC4M8WzaaXV6pmSUsLezjI9zv8AgjRP2mWNBtqBQ06tfVvfcJE39RWpHD5nCkeqb/LMqcnFoY6auokGE4nL5HM125OcyctcvPvK2K9+lI/bC+wTUXWRr1R0FGxeNqnJ035EP47/AAr1Enno/YYqWGOngYkUULUYxjeRrUOzSUbI2taxrY2MTBrGpqtRqeBP+R92t5d8iKmKaepNytWsQjwW4ZIeePn8/q35coehWaMb1uvcXsjnztH1KlEKmBNkAAAAAAAAAAAAAAAAAABQqAD5KiEM9s9sEuppH3ClYq08y61TFGnUZe6eTl5FX3Jd/soTNwTePjNG1yKipii7yovZMrRlJuUc9B5r/chnh85I7Rg6VotukGYtOZfq45omtfY+2R6q2zpPTPwV3Blidwo5WfiPZ2F8Kb5MbY6201urEa2Z6W+o9tFUKmWr/wAibejw8rlLv8hZGy3tRGSK+e2K2F7uE6heurE7yD/cvJLxPkuUjJpNoVV0TtSqp5qZ2OrxrOC74D+pSfqCUXGaLugTbSu9P7e0564fWfNUSL23qToBVlSL4z0f6DZnTVjXojmua5rt9rmORyKh98w1ZUF1ljxy5Hw634j3tO77LKrvmo9M/wBYYdVxCvozHR/uGbTdxD6Uv0n6DZ/meH9qDM8P7UNYPstqu+qj0z/WD2W1XfVR6Z/rCzAhzSOj+JXDdvR+kh2Gz7M8P7UGZ4f2oawfZbVd9VHpn+sHstqu+qj0z/WDAhzSOj+Iw3b0fpIdhs+zPD+1BmeH9qGsH2W1XfVR6Z/rB7Larvqo9M/1gwIc0jo/iMN29H6SHYbPszw/tQZnh/ahrB9ltV31Uemf6wey2q76qPTP9YMCHNI6P4jDdvR+kh2Gz7M8P7UGZ4f2oawfZbVd9VHpn+sHstqu+qj0z/WDAhzSOj+Iw3b0fpIdhs+zPD+1BmeH9qGsH2W1XfVR6Z/rB7Larvqo9M/1gwIc0jo/iMN29H6SHYbPszw/tQZnh/ahrB9ltV31Uemf6wey2q76qPTP9YMCHNI6P4jDdvR+kh2Gz7M8P7UGZ4f2oawfZbVd9VHpn+sHstqu+qj0z/WDAhzSOj+Iw3b0fpIdhs+zPD+1BmeH9qGsH2W1XfVR6Z/rB7Larvqo9M/1gwIc0jo/iMN29H6SHYbPszw/tQZnh/ahrB9ltV31Uemf6wey2q76qPTP9YMCHNI6P4jDdvR+kh2Gz7M8P7UGZ4f2oawfZbVd9VHpn+sHstqu+qj0z/WDAhzSOj+Iw3b0fpIdhs+zPD+1BmeH9qGsH2W1XfVR6Z/rB7Larvqo9M/1gwIc0jo/iMN29H6SHYbPszw/tQZnh/ahrB9ltV31Uemf6wey2q76qPTP9YMCHNI6P4jDdvR+kh2Gz7M8P7UGZ4f2oawfZbVd9VHpn+sHstqu+qj0z/WDAhzSOj+Iw3b0fpIdhs+zfF86FnaZbK1voGrumqiicmC5LXa8y+KFmMi/I013zaT1Spg6pnVHe1dM88+Gmc5Uaxqvc7gta1NZzj7s3FJSqt+Z1nmbq9sTzvXbKUmyzL6/0nwM3bNO2emuDXU1I11JSv3nucvHTM/KT3OPf34+Ve32DF+gOglRcallNTtxc/hPk9rFDyPe/wAfIZG2N9qxcaxWvnYtvg7L50wnd8CHf3vLpEvgUmHse7G1LbIUhpY9ROV8juFJK/8AHe/sqvh/9/XN0xI0Qz3PR/fHI/S2v9yO3vdR5JSh56l3u6J7WIzfljY70Cit1JFSQpwY0TF7umkl9u9/bVV3/wD2LrxOSIUwIjccU4pTio1qXjjGOcl1ppLSEtpxJRigcioBQ+wAAAAAAAAAAAAAAAKFQAUwKaidpDkAUqOOWnaT5hlp2k+Y5ArWUswzHHLTtJ8wy07SfMcgKxZhmOOWnaT5hlp2k+Y5AVizDMcctO0nzDLTtJ8xyArFmGY45adpPmGWnaT5jkBWLMMxxy07SfMMtO0nzHICsWYZjjlp2k+YZadpPmOQFYswzHHLTtJ8wy07SfMcgKxZhmOOWnaT5hlp2k+Y5AVizDMcctO0nzDLTtJ8xyArFmGY45adpPmGWnaT5jkBWLMMxxy07SfMMtO0nzHICsWYZjjlp2k+YZadpPmOQFYswzHHLTtJ8wy07SfMcgKxZhmOOWnaT5hlp2k+Y5AVizDMURoKgoXFAVAAAAAAAAAAAAAAAAAAAAAAAAAAKFQAAAAAAAAAAAAAAAAAWTpZsw2mgligrrpb7bPUNY6Gmr62mppZm6+oixsnkhkkxfxe8i4r4cUL2AAAAAAAAAAAAAAAAAAAAAAAAAAAAAAAAAAKYAqAAAAAAAAAAAAAAAAAAAAAAAAAAUKgAHVqqRr2q17Gva7pmvajmr852gVhGrIUjCEcpYNZsIWmRcX26kx7bIWR/wACIdb7gNm974PNUyKUwPWmemUwqg6uH+4r2RPBGQllfUp5OBj37gFm97qfzXfaPuAWb3up/Nd9pkLAYF2qEzuy+Vc7RqfLbijk0dhj37gFm97qfzXfaPuAWb3up/Nd9pkLAYDVCZ3ZfKudo1PltxRyaOwx79wCze91P5rvtH3ALN73U/mu+0yFgWXpZsv2mgligrrpb7bPUNa6Gmr62mppZW6+oixsnkhfJi/i+Ci7/hxQaoTW7L5VztGp8ruKOTR2HR+4BZve6n8132j7gFm97qfzXfaZCwGA1Qmd2XyrnaNT5bcUcmjsMe/cAs3vdT+a77R9wCze91P5rvtMhYDAaoTO7L5VztGp8tuKOTR2GPfuAWb3up/Nd9o+4BZve6n8132mQsBgNUJndl8q52jU+W3FHJo7DHv3ALN73U/mu+0fcAs3vdT+a77TIWAwGqEzuy+Vc7RqfLbijk0dhj37gFm97qfzXfaPuAWb3up/Nd9pkLAYDVCZ3ZfKudo1PltxRyaOwx79wCze91P5rvtH3ALN73U/mu+0yFgMBqhM7svlXO0any24o5NHYY9+4BZve6n8132j7gFm97qfzXfaZCwGA1Qmd2XyrnaNT5bcUcmjsMe/cAs3vdT+a77R9wCze91P5rvtMhYDAaoTO7L5VztGp8tuKOTR2GPfuAWb3up/Nd9o+4BZve6n8132mQsC2LHsiW6pqJ6Smr6Krq6L8Koqaqglqadek4+CORZYt/uyJv8AyDVCa3ZfKudo1PldxRyaOw8T7gFm97qfzXfaPuAWb3up/Nd9pkLAYDVCZ3ZfKudo1PltxRyaOwx79wCze91P5rvtH3ALN73U/mu+0yFgNUaoTO7L5VztGp8ruKOTR2GPG7AdnTBed9Pvdtpcti0PpKZMKamp6Xt5ELI8fMRP2nuoFQ+Dk085Cpx1S99UY9Zc3Jy7ca22ko3m4QOaIVKFT4HuAAAAAAAAAAAAAAAAAAAAAAAAAAAAAAAAABb+m1e6Gjq5Y11ZIKaqlY7DWweyF7273gLgLb2R+t1f8SrfqJADT5sHbaHZW0k3VzmreeK2/c26vvbRumy90ZmSq7rp6fXzciTDKx6TsbxmXYT5pNfbZdorJpxRJSrK6GJbkkG5aiBz8WNqKiOP71qKaWTDGWhSHK41UzsMpPM5hl/9qf8A8N//ALufPm31DT62jsiaqVTkvEblbhrOpWbkexH8vSyPfleUl8OAG1R8iIiqq4InKqlhWvZ7sU1RuSG9WmoqldlpRQXKjkqVk/EyWSrLr9jDA13c0z2bq+m0Y0WtkcskC323snujmLqumZT0tGmQ/txyy1D5ZU7cUeOO+eps58zYsNBoTPW00UjbvbLdBcJro6eZ26JY2Mkqo30skq00ccsavSPIhiliVsXGS8akwGz8x7pZs8WOglWnrr1abbOiYupq640dPKje3qSywyJ8xr72JtuNcm7F10uC1EjrnZ6jnJS1z1V0+pO+jyZ9dceMgp6uREkXuEa7/KdHmeu0OsV+sDrve4JrnVXKprWxPdVVMOQyN+XmcRLBmVE0mvKslRnJhl73LiBJvmi+yRPBobWV1qr5KeTPtiQ3G01T43aj6yKOTLnp5E5UxjXCXt8h6fM5dNKms0OtlXX1dRXTyPuyz1twqHzyubHcKuNmZNO9ZMIo2ImKrvIzsYGLNvpsQ0dh2OKm129rmU1JUW7UzXa0qukubJnve/e13rI9f/SEDqbbWTv0WsehlsnZbUq31Md7udRJkxff1zqJI6XOVeLpIqeVk1XKib6YxciTJKBux0J2ZrPcnvit11tl1liYkksVtr6aqcxnSa72QSzajFXexXBP2nLTTZms9te2O43W22t8jdZkdyrqake9nbYyeWHHxoYQ0I2IKLQDRK4yUMbZ6qht1dcKqtkRMyvuMFNJJGsu9xcCPTJhhTeiiXsySzOl1M7BOydonJLca3TSlvOkVfcJFdFJRStbG3Xw155HpcbTK+oWRcMtVlhSLDe5cAN/NmvUNTEyenmjq4ZW60c9NIyWKRnbY9irG9PEp4dp2UrbPUVNLBcaGpqqBHrW0cFVTyT0qRu1H58LJFlgwXexnRMF8Rqy5lJsssi0oulpt0lWtjuEFdV0VJcXMz4XQTRrBI9kck0SVC0z3wzbnVc1UjX3JDHc2xhWXzZG0islNXSWuC8193huk8XTSWyGfdckOpi3MWWSCPBOz2eKzUUDcvobskW64pK6gr6O5pTuyp3W+qhqWxTdzkWCSbLk8C4KYr28WyVXWfRW7XK3TbkraJlC6nqMuGbUWStpoJOBPHPG/i5HpxsXZ+bs7VralW7RGlqaW3TVlSytmZUTSXCSGR+YxiRo1mRT0yIzBORWquPZ5cbT5ph/Ye/eTt3+Z0YBBnYm2YNmK+0TLhaqnd1HK+aJlRk6LwIr436kiZdRFTy8Fd7FYiYGk9FpPJoG2O8Xun0U0jesiVd4r6qkoIGf9oSZEL623/e9PnUeRGktBxuO9gr81CBu1O21WnNpssNHYtG+fVuZNVSMruc94rdaZ70fIzPo6iCLipFVMMMUxJbbeLS2vr9jLdl0pud9wq+cstZQ5M1NkTLWx4x5FQ+aWPk5J1x7fYAL5gr7hRbG1dLJf2X64Udpu700ktNbJUosrHT6iwXBipLLJR70O6Fwlxj38FTet3mR+yNcLnYLhNca6sussV3nhZPcamarkZAlFRvSNj55JpNTXe9dT8vHsqWPsCf9zNZ/uvSr+drTHu0I2S5bPscaVXKBUSejr6xadXb+pVSUVvggkw7OVI9kuH5ABso0u2crJb5cmvvNrtkyt1kp7hcKOmk1O3qTywyYfIXfb6+OZjZInsmjfvslie1zHJ+Q9i4L40NA2wFp9oSkFbLpdR32+3OtnmeyoopG5UUb2Y56vW5UEslZNKskkq1GfEuEW91bGVfMdtlSVbperLBLUS2rImudvhrNTNh1KqODHUYqxxyTxTsWZIOKWWPwoAbXAAAAAAAAAAAAAAAAAAAAAAAAAAAAAAAAAAAAAAAAAACBfNm/7J0v++7f/J3AnoQL5s3/AGTpf992/wDk7gARY2FuZTVlzstDfLffm0tXXUzKymo5KN8LY3rjxe7oqyaRmGHVUou1vJiZm5nZtsr029VOh2kUstTVU61sdFU1L0lqYqui11qKOSfFd0RLHG+aGZc1Uy1TGWOWLJlrtDZETQ3R9VXBEt0OKr8N5ry2GLnHedl+Wut2E1JFW3SpdUxcKNaaC3yUjqjtZdRUaiJJivV4wDYdtkNuVYtFkY251D31M7FkittCzOrHwoq8ZqLJBHHEqsy2yVE0SSLjhjlSYWXsE80r0Zv1VHQwSVVtqqhyMpoLvFDBuiReRkckFRWxZki7zIppY5JFTBNbFMYa6KULLpsyVDLkxtU2nrLhkwT8Jv3jQSJSIjN9FyMuOZN7lZmFxc2rsVPBPo9XxI2Cvl56RvqIuDLJDBuSSB6yM1ZPvSSR+WvYzF7QBsZ2Z9mu2WCidXXSpbSU7XajN5zpJZsFVsMMbMZJJF1F5E8aonJFrRjmvmi9VVR0raa9ROnkSGKeSjpnxuke/UZg2CtnqONVUw4jHwIRY5q/pNU1dRolFVudFFPaYauXsNbW1UkbKp+p+PExkfix+Q2xW7Y5oIaekpGUlO2mtqwLQwLDG5tO6DDJfBii5ckSsR6SImt4d9QDV1zWv+1+jfxSh/zOcnxtmduHZ9E4qd9zdPNLWOwp6CgbDJVOj39edWSy00bIIcMtZFm31VETWU1/c19ve5dKrBU6mclLQU1RlY6uvk3Cok1Pl1P2lpbWDSGK66fpPpvHPHcqrUltlFcI8qlhrXsjnoaSSCffjjSnkxpInKnHZWvmyS4qBtUpNnmkbZ0vtxZUaPUOU2pe29MZHUxQSYZeZBTy12Eky6mXC1VmVXpHlJJwSM9NzYnRF1QkKsu8ceOru59HDufD8dWMrHVOH/k8cewWNzbG8TMtNmgYrkp6i4VUs+r0qzQQIkCO9PMvjQxnQaLbIdw0Wp7FT6I6Py2Wrt9JuSqimokndHJCx8NyY999y92S4pVZy0/VX4qm+qAGx3TzbC22gscukKvfcLbDBDUtltupI6WF8kcbFhzJKeNcXyJ1WWLDBU8Bg7SbmpWi9Lb6C4OdWzOu0Uk8NrpoYJK6KFk8lO99SzdKUsHGQyIiLWKq4Y4cqmBabYivFj2KNILdeqdaKeCd8lNTrPT1GrQyVVvkTh08lRFv1GeuGOKYp2z7cym2rtirrFNdbhbqS7VVRXVVO3nlAyqiipoWRasccE+dEj8x8kiyauaqKiY4IAbI9H7w2oghnajmsqYoZ2Nemq5rJGI9NdPx8F307Bqe5t71xsPxK4fXRm2+GBrURrURrWpgjWpqta01Ic29642H4lcProwDYRtnttXb9E6SnrbjBW1MVZUbkjbbo4ZJGzakknDSoqaFMvBipvL/AImFNO+a36J0VRkRrcLrgjdaptVPDJC134mvUVNCsmGPLBmpy7+8WFzbLrDaf97p/JVB7F12OaOLYhym08aNfo/S3R3AZv3B8cVXupfzmZ7pygF56bc1V0Qo4KaeOpqro6uiz9zWynY6eBmusepVtqJaGOCTMR/FLMsuCJIiLHLDLLl3a3bbKz6VQSzWuWTXpFjbV0VZGkdTT5mOXrsjfPGscuo9EkgmlixYuO/ihFfmNOglL7HrnVvhifPXXOpo5pJI2uc6ihpKRWU78fc8yedcpcUXMMU8yZt7YNLtJaeJNSGCmrY440XgtZHc4o40+SMAmBtg+aOaO6N1slvrEuNXW02TnU1BR9TSaPMY/MrJaCKTi9Tfp5peqIm/qzZXr7W7b5aP6USrTUE1RT1rWSSpbrlC2CaSFi4PezLkqKeXV6rlwzrKkeLsN6XCLekG3/ul10hqqTQzRiguldS68DrvXxo+aaipZpIcx8kclBuej15uKz67eWTfRFmykwHsWXC7fdWopLxR0tlustZC6toLbqbmjWe04YMy6mvRVrKd7JZVSolxlnlxwXFADZPtktvZo/otI2nuEtRU1b2Ml5326Js07YXuwSSTMkpoY0XBVRJpkkXlRFxxMJ0fNldGZHtZHbtIZJJHMYyOOjoHOe968BjGpdl4aqqJvIuK+NCP+2ruS6KbJlPpHdKVbhbat7aynSLLdLlx29lA/UZI/USooqjUmiSZYkXUhwli5YmxdVVGmeyLSaR2a21VttdFJTT1dfURtj12U8b2P3RIxZolqKzBaTKgmlXK5epS4AbD9mbbYWbR+hp6+6TyUyXCNstJQJHmVs6IyN72RwsVUxhR7M2SWZIo1VEzcVai4g2I+ap6LXerjo0dXWmSoeyKB93ghjgkmfyMz6epro49/BMajKTh8pC/miVbX1WyLQ00NNBcpqdlihtdtuKsbR1T3vz2U82bLTxrHPVPfDKmfFm9TxQuLbNbCeyTpXDSxXDRS0Urre/Wgq7ZU2+GdsKs1Fpcye9VP3tiqS5SInGsRd5N4A28AsvYioaqK1WyOvRW10Vvt8dcjnMc7drKZjKjhx8W/jEeuMO92U5S9AAAAAAAAAAAAAAAAAAAAAAAAAAAAAAAAAAAAAAAACBfNm/7J0v++7f/ACdwIsbC3Mpqy52WhvlvvzaWrrqZlZTUclG+Fsb1x4vd0VZNIzDDqqUXa3kxJT82b/snS/77t/8AJ3AzptDZETQ3R9VXBEt0OKr8N4BErmdm2yvTb1U6HaRSy1NVTrWx0VTUvSWpiq6LXWoo5J8V3REscb5oZlzVTLVMZY5YsmW22Q25Vi0WRjbnUPfUzsWSK20LM6sfCirxmoskEccSqzLbJUTRJIuOGOVJhrx2GLnHedl+Wut2E1JFW3SpdUxcKNaaC3yUjqjtZdRUaiJJivV4z0NFKFl02ZKhlyY2qbT1lwyYJ+E37xoJEpERm+i5GXHMm9yszACZWwTzSvRm/VUdDBJVW2qqHIymgu8UMG6JF5GRyQVFbFmSLvMimljkkVME1sUxzjsz7NdssFE6uulS2kp2u1GbznSSzYKrYYY2YySSLqLyJ41ROTXNzauxU8E+j1fEjYK+XnpG+oi4MskMG5JIHrIzVk+9JJH5a9jMXtFmc1f0mqauo0Siq3OiintMNXL2GtraqSNlU/U/HiYyPxY/IASn0Y5r5ovVVUdK2mvUTp5Ehinko6Z8bpHv1GYNgrZ6jjVVMOIx8CEdea1/2v0b+KUP+Zzm0W3bHNBDT0lIykp201tWBaGBYY3Np3QYZL4MUXLkiViPSRE1vDvqasea+3vculVgqdTOSloKaoysdXXybhUSany6n7QDYDtmduHZ9E4qd9zdPNLWOwp6CgbDJVOj39edWSy00bIIcMtZFm31VETWUuak2eaRtnS+3FlRo9Q5Tal7b0xkdTFBJhl5kFPLXYSTLqZcLVWZVekeUknBNVe1g0hiuun6T6bxzx3Kq1JbZRXCPKpYa17I56Gkkgn3440p5MaSJypx2Vr5skuKyD5tjeJmWmzQMVyU9RcKqWfV6VZoIESBHenmXxoAXzTc2J0RdUJCrLvHHjq7ufRw7nw/HVjKx1Th/wCTxx7BJjTzbC22gscukKvfcLbDBDUtltupI6WF8kcbFhzJKeNcXyJ1WWLDBU8BrioNFtkO4aLU9ip9EdH5bLV2+k3JVRTUSTujkhY+G5Me++5e7JcUqs5afqr8VTfVC8qbYivFj2KNILdeqdaKeCd8lNTrPT1GrQyVVvkTh08lRFv1GeuGOKYp2wDPWk3NStF6W30Fwc6tmddopJ4bXTQwSV0ULJ5Kd76lm6UpYOMhkREWsVVwxw5VJX6P3htRBDO1HNZUxQzsa9NVzWSMR6a6fj4Lvp2DW5zKbau2KusU11uFupLtVVFdVU7eeUDKqKKmhZFqxxwT50SPzHySLJq5qoqJjghsxhga1Ea1Ea1qYI1qarWtANfvNR9uDcLMlHY7NM+nuF3iWeoqoPwmGie/IgipcEXUlq5WTpm700SRoke/LrQ4bsvMfr1UQMr6rSFtNeJUgnyJIZ58ufgrqSXJKnNzIcOWKCVMWIiLySHkc08xotPbHcKnfpEgsVRrqms1kFLcJ1nj+TDN/WIbdaCvZKxkkTmyRysY9ksbtdr2PTFj2vTeexUXHxAGINg2yTaN6N0sd/ue6ZrZBNLcbrWVEksbcZHyIzPqMJHxQRvZDHim/lonZRDAldzYbRJlQsCMu9RE12rzwho4dzOZ3TUkqYKrU/8AJ63JvHm82Zvk0Wi9JFGqpFV3iliqdX20bKWsnZG/9bGyXxxl97W3YutjtjmkpXQQ7luNkmqa3WYx2vUzwySVE71ROqRSdSlVVliy4t9MoAkRoVsvW+529t0t1Syvo5I5JWTwIvtE4bHMlSCSOROzFOkUnbRCLlv5rhom+gfWuW4QOinyGWyWngdXTYR5mfGyOqniSn9yzZ54uNTDDsmAOY3X6d1t0qpXK51NCyhqIm+0bUzwV0c3pY4IPRoeDzFDRCnlr75WSRtknoKe2xUsr01nRMqn1efqb/AfLkMTxY9sAnBtbdv1o/pRO+koXVdHWRsdK2gucLIpZoWdPJAsEtTFIkeO+zOzcMVy8EVUijt8eaLPpbvRWyyVlTTss1dJ7IJ4ItRZXxzRxvoIc3VzMlGTpKuCRSyPiy5d5VLO0jtEdHs1RJTNSnbLWUcqxwt1U16uzMz1wTlzpJJJZe3mSHpc1V/tpor5G3f5tIATf2rW3RtelyV622nuFNzo3EtRzyhgart1LUZeSlPU12vhuaTHk9phiYe0s5sFopTTuhZFd65I1c1aijo4GRq/XcxU1KysoKlFTVxXGBOmTs7ySv2YtlCnstrrbrVI5YLbA6eRke9I9eSOFmO8kk0j2RJjgmLzXVsa7bTTC/R1j9FdCbG21ySVLKttSxiRTzyPWWaOaZ9bYqWolclRmTJkyKrpZJF6qoBPjYG2xFp0kpHVdqqd0sjflTQuZJFPBNhjlzQv30xRcUkTGOTfwVcFIh7TObQ/2a3xtmgv0d3Rl33Ut0dRc7oo2XCBlWlLkSLVcbULGsaVmauUnuWOC4g5iHVO3dpBGjl1H0tre5vbeyaoRi/Ikj/PPnzOT/vK0k8lpP8A5vSAEy9MOaLaOW673GzV7qqgns0TpZqyeKFaWZ+pBIkFLl1E1TJPIk6YR7jRV1Je1itp7GnNXdFLjXRUH/aFudUSJDBW3KmgjpZJ3v1GJrwVNTLHnKu9JUQRRJv5iwkSb5onT12zM6mqo2VEDrgyV0UrUcxz6eypUR67Pb8ZCxe1vF4c280fha7R2pbG1k8rbvA+VrU1nwx7hfHG9cPcVkflpj7pKAbJtlPZWoLLRTXC51LKGlp04c0mLsXr0kbI2JmSSy9iKJFVd/wqRMsvNgtEpalKd7LrSsV+pzwqaOFaZGayJmruepqKrUw4z8Ex5cUQj5zYTSiodbtEYHOesNRT1tXKrvdqxkFAxkj/AM5FHPJ6dTnpzoFsj3fR+KxLofo/HbMil3HLQT0UcsDWZcjJ6WSS/TRxyS7+ZJkcakkuOOaqgGx3ZP2eKC12aa/vc+vt9PBDUpJbMmZ00E74445IcyWCKTFZGKnHJvftwNpNzUnRelt9BcHOrZnXaJ88NrpoYJK6KFk8lO99SzdKUsHGQyIiLWKq4Y4cqmIL9sbXWz7Edxt15hWkrKNj2tgWaCfUpn3aCSPjKeSaL26rgkq4Hlcym2rtirrFNdbhbqS7VVRXVVO3nlAyqiipoWRasccE+dEj8x8kiyauaqKiY4IAbI9H7w2oghnajmsqYoZ2Nemq5rJGI9NdPx8F307B6p8IYGtRGtRGtamCNamq1rT7gAAAAAAAAAAAAAAAAAAAAAAAAAAAAAAAAAAtzT+BXUNY1qK976WsaxjExc56wvRGM8KrvInbLjABou2rGkmnuiG7udmidfUrdtxZ6XOxXmTV3JunLWPc60OGO6pMxZc3kjwwwXHM+gG0z0t0yvdPd9M2voaKlyPvWdsUcktMx+YlBBSRrjTxyqq5stRhIiPk6rJybagAQy5pFtPqjSe20kltax1xskkzqele9kTamkmZGk9Ix8ipEyTGCCWJZsIuBIm9m4pHTTzZs09vFg9iq6G3CGsqIILfWXuZk0cE0MGXmPbn01PRRSVGphJKtdLFg+RY0TFqxbWAAQe2P9oO+HQCs0XmliZcLrmV9ROzF0DLuklPPAxH4JIscO5KallkRFxRJFRFxRCP+1s2VtNdCaOWxT6FXK+xwzzT0tTQsqXRw5juGzPo6K6Q1EayMWZERYpUzF38Fiw2wgAgjtsKTSC+bHcu7LRNHequohfNZLbBNUSxQx3bGBGRx7qleu4mQzSr4ZOo9STEuxrzPVl22PqeCS2utGkkU1yrI5a2B9JVyVMdVPHHS1e6I0k3PPTMgjj5Io+Kl7sk20gAECNo1erxdLDXaK6T2u8UKx0VRQ09yr6GshjqbXOx0C061UsSRLUUSPwi47jYcvDHJlVcG7BlBprscVFwoE0cqdLbbWzJNDLac1zVmY3U3VG+mprhJBnxoxssVdAnU48FTll20gAjNtWNnXSW91NVJdtHn6L26OFi0TKxJt2SVWdIx7ZN0NppNRI2IqfeMPbxVJYiKm192IrvDsp3W4TWq4wUEtTpC6K5z0VTHRyMkR+W9lU+PJfne5YT7/YNogABG/mg2i1VXaH3mlo6eor6mdtvyqSjhfPO9I7hSSSZcMWMkipGySXBMd5CSAAIk8zF0MrKDROmpq+kqbdUMq7i51LXU81NM1r5sWPWOeOGRMU7OGGHyHZ5pdobV1+iNdTUNLUXGplntjmUtFBLUTuaysje9WRRxzSbyJiu9hgnaTBZWgAgBsJ7Gtxh2KKq3S0FZDcXW7SSNLZNSTtrFklqquSONKV8ear5o3MysIceG0t/me21uq59C9ILJdqOtszrxW1rGJcaWamlaySgo446tkNRHCsjIqiPFOwqx4bxsfABqg2vd/022PWVdol0UrNKaGWpfU0stnz5GNnVkTJJGT01HcOImjZGuTUU8EqSpIvLnITU2qezJpFelr573YV0XpWbh5001Rmbql1917qzs3Ik4piUqJjRQb75OXfSGRYAAAAAAAAAAAAAAAAAAAAAAAAAAAAAAAAAAAAAAAAAAABGLb+7Wyv0qskNtt8tLTzQ3CmrXSXCSaOLJjgqo3sTIp62TMXPZhxWC9vsEnQAalrbzMPTx1Oy21GlEEdrRjoVoILreZ6dsGq/i20L6anpljXky0w3nqTT2oW0kt2iEMq07319fWoxlXdKhqRudHGu9TwQo+bc9P7qsaTSrK5EzJFSKDKksACEu2u5n/PdrtDpHo/cW2K+wZKukla7IqJoGakE75GZ0kUiR5cEvETRTQxpjF02dYVs5nRpBe7rS3HTi+Ut5ZbnMSOgtsa5U0DH5mQ/72tMVPHNJvTZFFLLMmCZqbyxbFwARf2620tp9MKOnbn87a62rOtDWLFmx6kmXmQTx4w4xzZbN9FxhcmKY4yxTYY0E2rWyW3cNFX6W0TLVRSUuu2jdNJWSUkL04h062631MqSx8WudXr8uCGwcAEFdu/tHLtpLfbTc6Cot8EFrhpYZmV81SyVzo6ySoVY2QUdQxUy34b80S49rlLg2+20VdpUylrLbJT2+829zY2VlS6aOKaj11flSSQR1EsckEvHQyNhXDXlT3RFimUACL2k+1grNI9FobLpVNTuuVMjFZdrTJNP99QM1IK9UqKeh42aJ74qqFEy5deXLlhWVuRgDQ/agbJlppktdq0ttkdrgxZBuiN7qmOB6cNI821V8sGWqvyooK7BN7BYscE2QAAivprtZbvV6D1Gjk9zbd7tUxyNku9ydM2KWZ9z3dg933/NlwxruWLBOSOLi4d5IvY2im14rdF7Clrr5aWeoSrq6rXt75pIdSfL1E1p6emkzE1Fx4rBN7lJIAAEFOaJ7Rq7aXVdsnttRbqZlup6qGVLjNUxvc6R8b25eRR1vIjFxxwJ1gAibzQnarXHS22UNFbpqOmlpK7dcjrjJNFEsWRPHgzIpq5VkxkRelTex8Bct32vVbJoOmjLZaVteljprTnufNuPdMcMcb35m587KXUVeoY/mk5CRoAIxbQLa2V+itkmttwlpaiaa4VNa2S3yTSRZMkFLGxi59PRSZiZD8eKwTt9gxxtLdpLddHNILzdq2ooJ6a7xVcdNHRS1Mk7c6tjqGLMySmgjTi2YcVNLv8Azk5AAa04OZz6VWS91lx0Sv1Bbaa4uma7d7HunhpZ5s99OsDqG4U1RkKnFSqsMi/msVx9rQrmcN3otLLTpC+7xXnIcyqvNVcHSx1k9w1KiOTcsMdPPFufLdBHFn1ESojJN5OKNiQANQuyTSXLTTTqqqNEJFtFZozDJST3m4VeXGuS+elzIIY6aomjSbXnhROOSVOMfkY4Hy2atkjZG0Emt9ZdL7SXmGulkYlI2RKiGVkGW+SGSOeiopo8U1OOocFi1sMxM3B0kdkzmYMc11qLxYtILjojVV755ahaFj3tV06682Q+nqrdLFHNJhKsSzSpii4YbyRfbY+5l3SNr4blpDerjpjVUrmOjW4K9sLlZgsedm1FfUvZDq9SWtSJcORUVYwC49t7tIIdMEoLnT1L7Jd6OGHIq1Y9zXwa6Tshmy1hljkp5ZJJYpod9FfJvLiixY2btYtlOqY2kr9MqGlo1TUfPa2P3Xq6ur1SO22iokXV39+uRVXxb2w4AAAAAAAAAAAAAAAAAAAAAAAAAAAAAAAAAAAAAAAAAAAEYtv7tbK/SqyQ223y0tPNDcKatdJcJJo4smOCqjexMinrZMxc9mHFYL2+wQztvMw9PHU7LbUaUQR2tGOhWggut5np2war+LbQvpqemWNeTLTDeeptpABGnahbSS3aIQyrTvfX19ajGVd0qGpG50ca71PBCj5tz0/uqxpNKsrkTMkVIoMrHe2u5n/PdrtDpHo/cW2K+wZKukla7IqJoGakE75GZ0kUiR5cEvETRTQxpjF02dNoAGui2czo0gvd1pbjpxfKW8stzmJHQW2NcqaBj8zIf97WmKnjmk3psiillmTBM1N5Ys77dbaW0+mFHTtz+dtdbVnWhrFizY9STLzIJ48YcY5stm+i4wuTFMcZYppQAA18aCbVrZLbuGir9LaJlqopKXXbRumkrJKSF6cQ6dbdb6mVJY+LXOr1+XBD3du/tHLtpLfbTc6Cot8EFrhpYZmV81SyVzo6ySoVY2QUdQxUy34b80S49rlJ1AAhrt9toq7SplLWW2Snt95t7mxsrKl00cU1Hrq/KkkgjqJY5IJeOhkbCuGvKnuiLFdOk+1grNI9FobLpVNTuuVMjFZdrTJNP99QM1IK9UqKeh42aJ74qqFEy5deXLlhWVuRKEAGt/Q/agbJlppktdq0ttkdrgxZBuiN7qmOB6cNI821V8sGWqvyooK7BN7BYscEzxprtZbvV6D1Gjk9zbd7tUxyNku9ydM2KWZ9z3dg933/ADZcMa7liwTkji4uHeSKVAAI37RTa8Vui9hS118tLPUJV1dVr2980kOpPl6ia09PTSZiai48Vgm9ykkAACPe3C2oNDpdRR09S91HV0bnvt9yiZmOgfJvSRyRrgklPNqRrJGjolxjjwlTAhLZ+Zm6e0zEoabSyOlteKx5FPdbzE1IX7z13DHTpTY8vFZ+C90NrwAIz2/aa082h8OitzqX1yRxPxuULMuVtbul9UyqjSR8y68Uj8MXOXNjzUXelVEjFQ7QPT+koZdH6LSqgTR+bOhdHIyaOp3JPvzxsYlDUSRRyq5+NLBdMlcyTf42XHZqACPG1k2o9NovZZ7ZSSrV1FbnSVlxmYkefUviy2YRpn5cESYJHGqzImMi7+auOKOZ0bSm7aIPu7rlPb6lLoy2JCttmqJNXcu69fMSemouXPZhgipvLyE3gAQY0r2kN2n2Q4tLWz29ttjmopXU7palK3Ugt8dI/i9xrT4rIzH8M6l4d49nb77Rep0qkoK621sNvuVqa+Ji1eY2GWBZMxnHQRzyxyQSa6phDKi5i8mG/M4AEPdA9rPpPcLTe7XplfKa6Nu9LS0tEtrhja2iyHyybo/A7Ukkqy5C8bCq8R1VMTCew5tAtOrVDNaINKaK22KsmkfUc7o5JK5zZFZG98OfRQPpJJY2YLue54Jh7rv47LgAQm2jO0XrNEbnep5KmlqqC4pHDbsmSZ1W2mjnkkj3VHJTwRsky3sx3PNKmZj2DytqltHLvYtLbtfquot0tHdWXdsMVJPUuqmbrr4KuNZWSUdPFvRx6smrMu+vZTfJ3AAgnR7Ry7N2RV0u3Rb+dufJNubOqd3Zb7Y+hwy9x7nxzVxw3X1Ls47x7PNGNpndNL2WhltnoKZbU65un55S1EaO3VuTUy9z01cu9kPx1kRN9PDhNMAEcdsZtP6XSax0tqrJVpKq3xQvo7hA1JciqZCkT1Vj0p8+nl5JIsYVVEjwysEI7aLbVLZQoKeO2Uel1sit0GpTxOex0lVFSYYLqOktM8zFiZhlRJXoib2EkWKYbFwARs2T9rpca7QqbRxa9lwuc9HS077tc3zNbPUx1Mc8kk7/AL/m39R6e6ryHPaKbXit0XsKWuvlpZ6hKurqte3vmkh1J8vUTWnp6aTMTUXHisE3uUkgAAAAAAAAAAAAAAAAAAAAAAAAAAAAAAAAAAAAAAAAAAAAAAAAAAAAAAAAAAAAAAAAAAAAAAAAAAAAAAAAAAAAAAAAAAAAAAAAAAAAAAAAAAAAAAAAAAAAAAAAAAAAAAAAAAAAAAAAAAAAAAAAAAAAAAAAAAAAAAAAAAAAAAAAAAAAAAAAAAAAAAAAAAAAAAAAAAAAAAAAAAAAAAAAAAAAAAAAAAAAAAAAAAAAAAAAAAAAAAAAAAAAAAAAAAAAAAAAAAAAAAAAAAAAAAAAAAAAAAAAAAAAAAAAAAAAAAAAAAAAAAAAAAAAAAAAAAAAAAAAAAAAAAAAAAAAAAAAAAAAAAAAAAAAAAAAAAAAAAAAAAAAAAAAAAAAAAAAAAAAAAAAAAAAAAAAAAAAAAAAAAAAAAAAAAAAAAAAAAAAAAAAAAAAAAAAAAAAAAAAAAAAAAAAAAAAAAAAAAAAAAAAAAAAAAAAAAAAAAAAAAAAAAAAAAAAAAAAAAAAAAAAAAAAAAAAAAAAAAAAAAAAAAAAAAAAAAAAAAAAAAAAAAAAAAAAAAAAAAAAAAAAAAAAAAAAAAAAAAAAAAAAAAAAAAAAAAAAAAAAAAAAAAAAAAAAAAAAAAAAAAAAAAAAAAAAAAAAAAAAAAAAAAAAAAAAAAAAAAAAAAAAAAAAAAAAAAAAAAAAAAAAAAAAAAAAAAAAAAAAAAAAAAAAAAAAAAAAAAAAAAAAAAAAAAAAAAAAAAAAAAAAAAAAAAAAAAAAAAAAAAAAAAAAAAAAAAAAAAAAAAAAAAAAAAAAAAAAAAAAAAAAAAAAAAAAAAAAAAAAAAAAAAAAAAAAAAAAAAAAAAAAAAAAAAAAAAAAAAAAAAAAAAAAAAAAAAAAAAAAAAAAAAAAAAAAAAAAAAAAAAAAAAAAAAAAAAAAAAAAAAAAAAAAAAAAAAAAAAAAAAAAAAAAAAAAAAAAAAAAAAAAAAAAAAAAAD//2Q==;clipPath=inset(13.83% 0% 14.89% 71.33% round 5%);" vertex="1" parent="1">
          <mxGeometry x="779.6666717529297" y="974.4233213806152" width="136.2" height="106.11" as="geometry" />
        </mxCell>
        <mxCell id="e_KA3uBAL_2bLxz84az9-47" value="Amazon ECS" style="sketch=0;outlineConnect=0;fontColor=#232F3E;gradientColor=none;strokeColor=#ffffff;fillColor=#232F3E;dashed=0;verticalLabelPosition=middle;verticalAlign=bottom;align=center;html=1;whiteSpace=wrap;fontSize=10;fontStyle=1;spacing=3;shape=mxgraph.aws4.productIcon;prIcon=mxgraph.aws4.ecs;" vertex="1" parent="1">
          <mxGeometry x="529.6666717529297" y="1020.0333213806152" width="80" height="100" as="geometry" />
        </mxCell>
        <mxCell id="e_KA3uBAL_2bLxz84az9-48" value="Container" style="text;strokeColor=none;fillColor=none;html=1;fontSize=24;fontStyle=1;verticalAlign=middle;align=center;" vertex="1" parent="1">
          <mxGeometry x="629.6666717529297" y="1060.5333213806152" width="100" height="40" as="geometry" />
        </mxCell>
        <mxCell id="e_KA3uBAL_2bLxz84az9-49" value="" style="shape=actor;whiteSpace=wrap;html=1;" vertex="1" parent="1">
          <mxGeometry x="1979.6666717529297" y="430.53332138061523" width="30" height="40" as="geometry" />
        </mxCell>
        <mxCell id="e_KA3uBAL_2bLxz84az9-50" style="edgeStyle=orthogonalEdgeStyle;rounded=0;orthogonalLoop=1;jettySize=auto;html=1;entryX=0.004;entryY=0.438;entryDx=0;entryDy=0;entryPerimeter=0;" edge="1" parent="1" source="e_KA3uBAL_2bLxz84az9-49">
          <mxGeometry relative="1" as="geometry">
            <mxPoint x="2060.8266717529295" y="449.86832138061527" as="targetPoint" />
          </mxGeometry>
        </mxCell>
        <mxCell id="e_KA3uBAL_2bLxz84az9-51" style="edgeStyle=orthogonalEdgeStyle;rounded=0;orthogonalLoop=1;jettySize=auto;html=1;" edge="1" parent="1" source="e_KA3uBAL_2bLxz84az9-52" target="e_KA3uBAL_2bLxz84az9-56">
          <mxGeometry relative="1" as="geometry" />
        </mxCell>
        <mxCell id="e_KA3uBAL_2bLxz84az9-52" value="" style="rounded=0;whiteSpace=wrap;html=1;" vertex="1" parent="1">
          <mxGeometry x="2061.6666717529297" y="370.03332138061523" width="120" height="161" as="geometry" />
        </mxCell>
        <mxCell id="e_KA3uBAL_2bLxz84az9-53" value="Amazon Cloudfront" style="sketch=0;outlineConnect=0;fontColor=#232F3E;gradientColor=none;strokeColor=#ffffff;fillColor=#232F3E;dashed=0;verticalLabelPosition=middle;verticalAlign=bottom;align=center;html=1;whiteSpace=wrap;fontSize=10;fontStyle=1;spacing=3;shape=mxgraph.aws4.productIcon;prIcon=mxgraph.aws4.cloudfront;" vertex="1" parent="1">
          <mxGeometry x="2099.6666717529297" y="370.53332138061523" width="40" height="79" as="geometry" />
        </mxCell>
        <mxCell id="e_KA3uBAL_2bLxz84az9-54" value="AWS WAF" style="sketch=0;outlineConnect=0;fontColor=#232F3E;gradientColor=none;strokeColor=#ffffff;fillColor=#232F3E;dashed=0;verticalLabelPosition=middle;verticalAlign=bottom;align=center;html=1;whiteSpace=wrap;fontSize=10;fontStyle=1;spacing=3;shape=mxgraph.aws4.productIcon;prIcon=mxgraph.aws4.waf;" vertex="1" parent="1">
          <mxGeometry x="2099.6666717529297" y="459.03332138061523" width="40" height="70" as="geometry" />
        </mxCell>
        <mxCell id="e_KA3uBAL_2bLxz84az9-55" style="edgeStyle=orthogonalEdgeStyle;rounded=0;orthogonalLoop=1;jettySize=auto;html=1;" edge="1" parent="1" source="e_KA3uBAL_2bLxz84az9-56">
          <mxGeometry relative="1" as="geometry">
            <mxPoint x="2409.6666717529297" y="450.53332138061523" as="targetPoint" />
          </mxGeometry>
        </mxCell>
        <mxCell id="e_KA3uBAL_2bLxz84az9-56" value="NAT gateway" style="sketch=0;outlineConnect=0;fontColor=#232F3E;gradientColor=none;strokeColor=#232F3E;fillColor=#ffffff;dashed=0;verticalLabelPosition=bottom;verticalAlign=top;align=center;html=1;fontSize=12;fontStyle=0;aspect=fixed;shape=mxgraph.aws4.resourceIcon;resIcon=mxgraph.aws4.nat_gateway;" vertex="1" parent="1">
          <mxGeometry x="2269.6666717529297" y="420.53332138061523" width="60" height="60" as="geometry" />
        </mxCell>
        <mxCell id="e_KA3uBAL_2bLxz84az9-57" value="" style="outlineConnect=0;dashed=0;verticalLabelPosition=bottom;verticalAlign=top;align=center;html=1;shape=mxgraph.aws3.route_table;fillColor=#F58536;gradientColor=none;" vertex="1" parent="1">
          <mxGeometry x="2261.6666717529297" y="310.53332138061523" width="75" height="69" as="geometry" />
        </mxCell>
        <mxCell id="e_KA3uBAL_2bLxz84az9-58" style="edgeStyle=orthogonalEdgeStyle;rounded=0;orthogonalLoop=1;jettySize=auto;html=1;entryX=0.5;entryY=1;entryDx=0;entryDy=0;entryPerimeter=0;" edge="1" parent="1" source="e_KA3uBAL_2bLxz84az9-56" target="e_KA3uBAL_2bLxz84az9-57">
          <mxGeometry relative="1" as="geometry" />
        </mxCell>
        <mxCell id="e_KA3uBAL_2bLxz84az9-59" style="edgeStyle=orthogonalEdgeStyle;rounded=0;orthogonalLoop=1;jettySize=auto;html=1;" edge="1" parent="1" source="e_KA3uBAL_2bLxz84az9-61" target="e_KA3uBAL_2bLxz84az9-62">
          <mxGeometry relative="1" as="geometry">
            <Array as="points">
              <mxPoint x="2519.6666717529297" y="450.53332138061523" />
              <mxPoint x="2519.6666717529297" y="450.53332138061523" />
            </Array>
          </mxGeometry>
        </mxCell>
        <mxCell id="e_KA3uBAL_2bLxz84az9-60" style="edgeStyle=orthogonalEdgeStyle;rounded=0;orthogonalLoop=1;jettySize=auto;html=1;" edge="1" parent="1">
          <mxGeometry relative="1" as="geometry">
            <mxPoint x="2439.6666717529297" y="700.5333213806152" as="targetPoint" />
            <mxPoint x="2439.66667175293" y="741.533321380615" as="sourcePoint" />
          </mxGeometry>
        </mxCell>
        <mxCell id="e_KA3uBAL_2bLxz84az9-61" value="Application Load Balancer" style="sketch=0;outlineConnect=0;fontColor=#232F3E;gradientColor=none;strokeColor=#ffffff;fillColor=#232F3E;dashed=0;verticalLabelPosition=middle;verticalAlign=bottom;align=center;html=1;whiteSpace=wrap;fontSize=10;fontStyle=1;spacing=3;shape=mxgraph.aws4.productIcon;prIcon=mxgraph.aws4.application_load_balancer;" vertex="1" parent="1">
          <mxGeometry x="2414.6666717529297" y="425.53332138061523" width="50" height="90" as="geometry" />
        </mxCell>
        <mxCell id="e_KA3uBAL_2bLxz84az9-62" value="Amazon ECS" style="sketch=0;outlineConnect=0;fontColor=#232F3E;gradientColor=none;strokeColor=#ffffff;fillColor=#232F3E;dashed=0;verticalLabelPosition=middle;verticalAlign=bottom;align=center;html=1;whiteSpace=wrap;fontSize=10;fontStyle=1;spacing=3;shape=mxgraph.aws4.productIcon;prIcon=mxgraph.aws4.ecs;" vertex="1" parent="1">
          <mxGeometry x="2568.6666717529297" y="426.03332138061523" width="50" height="79" as="geometry" />
        </mxCell>
        <mxCell id="e_KA3uBAL_2bLxz84az9-63" value="&lt;font style=&quot;font-size: 15px;&quot;&gt;USER&lt;/font&gt;" style="text;strokeColor=none;fillColor=none;html=1;fontSize=24;fontStyle=1;verticalAlign=middle;align=center;" vertex="1" parent="1">
          <mxGeometry x="1966.6666717529297" y="480.53332138061523" width="50" height="20" as="geometry" />
        </mxCell>
        <mxCell id="e_KA3uBAL_2bLxz84az9-64" value="&lt;font style=&quot;font-size: 15px; font-weight: normal;&quot;&gt;Route Table&lt;/font&gt;" style="text;strokeColor=none;fillColor=none;html=1;fontSize=24;fontStyle=1;verticalAlign=middle;align=center;" vertex="1" parent="1">
          <mxGeometry x="2269.1666717529297" y="280.53332138061523" width="60" height="30" as="geometry" />
        </mxCell>
        <mxCell id="e_KA3uBAL_2bLxz84az9-65" value="" style="rounded=0;whiteSpace=wrap;html=1;strokeWidth=8;" vertex="1" parent="1">
          <mxGeometry x="1922.9966717529296" y="729.5333213806152" width="880" height="520" as="geometry" />
        </mxCell>
        <mxCell id="e_KA3uBAL_2bLxz84az9-66" value="Availability Zone" style="fillColor=none;strokeColor=#147EBA;dashed=1;verticalAlign=top;fontStyle=0;fontColor=#147EBA;whiteSpace=wrap;html=1;" vertex="1" parent="1">
          <mxGeometry x="2016.6666717529297" y="837.5333213806152" width="138" height="321" as="geometry" />
        </mxCell>
        <mxCell id="e_KA3uBAL_2bLxz84az9-67" value="&lt;b&gt;Availability Zone&lt;/b&gt;" style="fillColor=none;strokeColor=#147EBA;dashed=1;verticalAlign=top;fontStyle=0;fontColor=#147EBA;whiteSpace=wrap;html=1;" vertex="1" parent="1">
          <mxGeometry x="2274.6666717529297" y="837.5333213806152" width="140" height="321" as="geometry" />
        </mxCell>
        <mxCell id="e_KA3uBAL_2bLxz84az9-68" value="Availability Zone" style="fillColor=none;strokeColor=#147EBA;dashed=1;verticalAlign=top;fontStyle=1;fontColor=#147EBA;whiteSpace=wrap;html=1;" vertex="1" parent="1">
          <mxGeometry x="2518.6666717529297" y="837.5333213806152" width="150" height="321" as="geometry" />
        </mxCell>
        <mxCell id="e_KA3uBAL_2bLxz84az9-69" value="Public subnet" style="points=[[0,0],[0.25,0],[0.5,0],[0.75,0],[1,0],[1,0.25],[1,0.5],[1,0.75],[1,1],[0.75,1],[0.5,1],[0.25,1],[0,1],[0,0.75],[0,0.5],[0,0.25]];outlineConnect=0;gradientColor=none;html=1;whiteSpace=wrap;fontSize=12;fontStyle=0;container=1;pointerEvents=0;collapsible=0;recursiveResize=0;shape=mxgraph.aws4.group;grIcon=mxgraph.aws4.group_security_group;grStroke=0;strokeColor=#7AA116;fillColor=#F2F6E8;verticalAlign=top;align=left;spacingLeft=30;fontColor=#248814;dashed=0;" vertex="1" parent="1">
          <mxGeometry x="2023.6666717529297" y="886.5333213806152" width="124" height="74" as="geometry" />
        </mxCell>
        <mxCell id="e_KA3uBAL_2bLxz84az9-70" value="" style="outlineConnect=0;dashed=0;verticalLabelPosition=bottom;verticalAlign=top;align=center;html=1;shape=mxgraph.aws3.vpc_nat_gateway;fillColor=#F58534;gradientColor=none;" vertex="1" parent="e_KA3uBAL_2bLxz84az9-69">
          <mxGeometry x="38" y="31" width="25" height="33" as="geometry" />
        </mxCell>
        <mxCell id="e_KA3uBAL_2bLxz84az9-71" value="&lt;span style=&quot;font-weight: normal;&quot;&gt;&lt;font style=&quot;font-size: 6px;&quot;&gt;Nat Gateway&lt;/font&gt;&lt;/span&gt;" style="text;strokeColor=none;fillColor=none;html=1;fontSize=24;fontStyle=1;verticalAlign=middle;align=left;" vertex="1" parent="e_KA3uBAL_2bLxz84az9-69">
          <mxGeometry x="72" y="42.5" width="38" height="10" as="geometry" />
        </mxCell>
        <mxCell id="e_KA3uBAL_2bLxz84az9-72" value="Public subnet" style="points=[[0,0],[0.25,0],[0.5,0],[0.75,0],[1,0],[1,0.25],[1,0.5],[1,0.75],[1,1],[0.75,1],[0.5,1],[0.25,1],[0,1],[0,0.75],[0,0.5],[0,0.25]];outlineConnect=0;gradientColor=none;html=1;whiteSpace=wrap;fontSize=12;fontStyle=0;container=1;pointerEvents=0;collapsible=0;recursiveResize=0;shape=mxgraph.aws4.group;grIcon=mxgraph.aws4.group_security_group;grStroke=0;strokeColor=#7AA116;fillColor=#F2F6E8;verticalAlign=top;align=left;spacingLeft=30;fontColor=#248814;dashed=0;" vertex="1" parent="1">
          <mxGeometry x="2294.6666717529297" y="884.5333213806152" width="110" height="74" as="geometry" />
        </mxCell>
        <mxCell id="e_KA3uBAL_2bLxz84az9-73" value="&lt;span style=&quot;font-weight: normal;&quot;&gt;&lt;font style=&quot;font-size: 6px;&quot;&gt;Nat Gateway&lt;/font&gt;&lt;/span&gt;" style="text;strokeColor=none;fillColor=none;html=1;fontSize=24;fontStyle=1;verticalAlign=middle;align=left;" vertex="1" parent="e_KA3uBAL_2bLxz84az9-72">
          <mxGeometry x="52" y="42.5" width="38" height="10" as="geometry" />
        </mxCell>
        <mxCell id="e_KA3uBAL_2bLxz84az9-74" value="Public subnet" style="points=[[0,0],[0.25,0],[0.5,0],[0.75,0],[1,0],[1,0.25],[1,0.5],[1,0.75],[1,1],[0.75,1],[0.5,1],[0.25,1],[0,1],[0,0.75],[0,0.5],[0,0.25]];outlineConnect=0;gradientColor=none;html=1;whiteSpace=wrap;fontSize=12;fontStyle=0;container=1;pointerEvents=0;collapsible=0;recursiveResize=0;shape=mxgraph.aws4.group;grIcon=mxgraph.aws4.group_security_group;grStroke=0;strokeColor=#7AA116;fillColor=#F2F6E8;verticalAlign=top;align=left;spacingLeft=30;fontColor=#248814;dashed=0;" vertex="1" parent="1">
          <mxGeometry x="2528.6666717529297" y="887.5333213806152" width="120" height="71" as="geometry" />
        </mxCell>
        <mxCell id="e_KA3uBAL_2bLxz84az9-75" value="&lt;span style=&quot;font-weight: normal;&quot;&gt;&lt;font style=&quot;font-size: 6px;&quot;&gt;Nat Gateway&lt;/font&gt;&lt;/span&gt;" style="text;strokeColor=none;fillColor=none;html=1;fontSize=24;fontStyle=1;verticalAlign=middle;align=left;" vertex="1" parent="e_KA3uBAL_2bLxz84az9-74">
          <mxGeometry x="51" y="42.5" width="38" height="10" as="geometry" />
        </mxCell>
        <mxCell id="e_KA3uBAL_2bLxz84az9-76" value="Private subnet" style="points=[[0,0],[0.25,0],[0.5,0],[0.75,0],[1,0],[1,0.25],[1,0.5],[1,0.75],[1,1],[0.75,1],[0.5,1],[0.25,1],[0,1],[0,0.75],[0,0.5],[0,0.25]];outlineConnect=0;gradientColor=none;html=1;whiteSpace=wrap;fontSize=12;fontStyle=0;container=1;pointerEvents=0;collapsible=0;recursiveResize=0;shape=mxgraph.aws4.group;grIcon=mxgraph.aws4.group_security_group;grStroke=0;strokeColor=#00A4A6;fillColor=#E6F6F7;verticalAlign=top;align=left;spacingLeft=30;fontColor=#147EBA;dashed=0;" vertex="1" parent="1">
          <mxGeometry x="2023.6666717529297" y="1042.5333213806152" width="116" height="108" as="geometry" />
        </mxCell>
        <mxCell id="e_KA3uBAL_2bLxz84az9-77" value="" style="sketch=0;points=[[0,0,0],[0.25,0,0],[0.5,0,0],[0.75,0,0],[1,0,0],[0,1,0],[0.25,1,0],[0.5,1,0],[0.75,1,0],[1,1,0],[0,0.25,0],[0,0.5,0],[0,0.75,0],[1,0.25,0],[1,0.5,0],[1,0.75,0]];outlineConnect=0;fontColor=#232F3E;fillColor=#ED7100;strokeColor=#ffffff;dashed=0;verticalLabelPosition=bottom;verticalAlign=top;align=center;html=1;fontSize=12;fontStyle=0;aspect=fixed;shape=mxgraph.aws4.resourceIcon;resIcon=mxgraph.aws4.ecs;" vertex="1" parent="e_KA3uBAL_2bLxz84az9-76">
          <mxGeometry x="11" y="48" width="33" height="33" as="geometry" />
        </mxCell>
        <mxCell id="e_KA3uBAL_2bLxz84az9-78" value="" style="outlineConnect=0;dashed=0;verticalLabelPosition=bottom;verticalAlign=top;align=center;html=1;shape=mxgraph.aws3.rds;fillColor=#2E73B8;gradientColor=none;" vertex="1" parent="e_KA3uBAL_2bLxz84az9-76">
          <mxGeometry x="66" y="44.5" width="34" height="40" as="geometry" />
        </mxCell>
        <mxCell id="e_KA3uBAL_2bLxz84az9-79" value="&lt;span style=&quot;font-weight: normal;&quot;&gt;&lt;font style=&quot;font-size: 6px;&quot;&gt;ECS&lt;/font&gt;&lt;/span&gt;" style="text;strokeColor=none;fillColor=none;html=1;fontSize=24;fontStyle=1;verticalAlign=middle;align=left;" vertex="1" parent="e_KA3uBAL_2bLxz84az9-76">
          <mxGeometry x="8.5" y="84.5" width="38" height="10" as="geometry" />
        </mxCell>
        <mxCell id="e_KA3uBAL_2bLxz84az9-80" value="&lt;font style=&quot;font-size: 8px;&quot;&gt;RDS&lt;/font&gt;" style="text;html=1;strokeColor=none;fillColor=none;align=center;verticalAlign=middle;whiteSpace=wrap;rounded=0;" vertex="1" parent="e_KA3uBAL_2bLxz84az9-76">
          <mxGeometry x="68" y="84.5" width="30" height="18" as="geometry" />
        </mxCell>
        <mxCell id="e_KA3uBAL_2bLxz84az9-81" value="Private subnet" style="points=[[0,0],[0.25,0],[0.5,0],[0.75,0],[1,0],[1,0.25],[1,0.5],[1,0.75],[1,1],[0.75,1],[0.5,1],[0.25,1],[0,1],[0,0.75],[0,0.5],[0,0.25]];outlineConnect=0;gradientColor=none;html=1;whiteSpace=wrap;fontSize=12;fontStyle=0;container=1;pointerEvents=0;collapsible=0;recursiveResize=0;shape=mxgraph.aws4.group;grIcon=mxgraph.aws4.group_security_group;grStroke=0;strokeColor=#00A4A6;fillColor=#E6F6F7;verticalAlign=top;align=left;spacingLeft=30;fontColor=#147EBA;dashed=0;" vertex="1" parent="1">
          <mxGeometry x="2294.6666717529297" y="1038.5333213806152" width="110" height="110" as="geometry" />
        </mxCell>
        <mxCell id="e_KA3uBAL_2bLxz84az9-82" value="&lt;font style=&quot;font-size: 8px;&quot;&gt;RDS&lt;/font&gt;" style="text;html=1;strokeColor=none;fillColor=none;align=center;verticalAlign=middle;whiteSpace=wrap;rounded=0;" vertex="1" parent="e_KA3uBAL_2bLxz84az9-81">
          <mxGeometry x="62" y="86.5" width="30" height="18" as="geometry" />
        </mxCell>
        <mxCell id="e_KA3uBAL_2bLxz84az9-83" value="Private subnet" style="points=[[0,0],[0.25,0],[0.5,0],[0.75,0],[1,0],[1,0.25],[1,0.5],[1,0.75],[1,1],[0.75,1],[0.5,1],[0.25,1],[0,1],[0,0.75],[0,0.5],[0,0.25]];outlineConnect=0;gradientColor=none;html=1;whiteSpace=wrap;fontSize=12;fontStyle=0;container=1;pointerEvents=0;collapsible=0;recursiveResize=0;shape=mxgraph.aws4.group;grIcon=mxgraph.aws4.group_security_group;grStroke=0;strokeColor=#00A4A6;fillColor=#E6F6F7;verticalAlign=top;align=left;spacingLeft=30;fontColor=#147EBA;dashed=0;" vertex="1" parent="1">
          <mxGeometry x="2528.6666717529297" y="1038.5333213806152" width="120" height="110" as="geometry" />
        </mxCell>
        <mxCell id="e_KA3uBAL_2bLxz84az9-84" style="edgeStyle=orthogonalEdgeStyle;rounded=0;orthogonalLoop=1;jettySize=auto;html=1;" edge="1" parent="1" source="e_KA3uBAL_2bLxz84az9-85" target="e_KA3uBAL_2bLxz84az9-91">
          <mxGeometry relative="1" as="geometry" />
        </mxCell>
        <mxCell id="e_KA3uBAL_2bLxz84az9-85" value="" style="outlineConnect=0;dashed=0;verticalLabelPosition=bottom;verticalAlign=top;align=center;html=1;shape=mxgraph.aws3.vpc_nat_gateway;fillColor=#F58534;gradientColor=none;" vertex="1" parent="1">
          <mxGeometry x="2304.6666717529297" y="918.5333213806152" width="25" height="33" as="geometry" />
        </mxCell>
        <mxCell id="e_KA3uBAL_2bLxz84az9-86" value="" style="outlineConnect=0;dashed=0;verticalLabelPosition=bottom;verticalAlign=top;align=center;html=1;shape=mxgraph.aws3.vpc_nat_gateway;fillColor=#F58534;gradientColor=none;" vertex="1" parent="1">
          <mxGeometry x="2538.6666717529297" y="918.5333213806152" width="25" height="33" as="geometry" />
        </mxCell>
        <mxCell id="e_KA3uBAL_2bLxz84az9-87" style="edgeStyle=orthogonalEdgeStyle;rounded=0;orthogonalLoop=1;jettySize=auto;html=1;entryX=0.5;entryY=0;entryDx=0;entryDy=0;entryPerimeter=0;" edge="1" parent="1" source="e_KA3uBAL_2bLxz84az9-89" target="e_KA3uBAL_2bLxz84az9-70">
          <mxGeometry relative="1" as="geometry" />
        </mxCell>
        <mxCell id="e_KA3uBAL_2bLxz84az9-88" style="edgeStyle=orthogonalEdgeStyle;rounded=0;orthogonalLoop=1;jettySize=auto;html=1;" edge="1" parent="1" source="e_KA3uBAL_2bLxz84az9-89" target="e_KA3uBAL_2bLxz84az9-86">
          <mxGeometry relative="1" as="geometry" />
        </mxCell>
        <mxCell id="e_KA3uBAL_2bLxz84az9-89" value="" style="outlineConnect=0;dashed=0;verticalLabelPosition=bottom;verticalAlign=top;align=center;html=1;shape=mxgraph.aws3.application_load_balancer;fillColor=#F58534;gradientColor=none;" vertex="1" parent="1">
          <mxGeometry x="2310.6666717529297" y="734.5333213806152" width="30" height="36" as="geometry" />
        </mxCell>
        <mxCell id="e_KA3uBAL_2bLxz84az9-90" style="edgeStyle=orthogonalEdgeStyle;rounded=0;orthogonalLoop=1;jettySize=auto;html=1;" edge="1" parent="1" source="e_KA3uBAL_2bLxz84az9-89" target="e_KA3uBAL_2bLxz84az9-85">
          <mxGeometry relative="1" as="geometry" />
        </mxCell>
        <mxCell id="e_KA3uBAL_2bLxz84az9-91" value="" style="sketch=0;points=[[0,0,0],[0.25,0,0],[0.5,0,0],[0.75,0,0],[1,0,0],[0,1,0],[0.25,1,0],[0.5,1,0],[0.75,1,0],[1,1,0],[0,0.25,0],[0,0.5,0],[0,0.75,0],[1,0.25,0],[1,0.5,0],[1,0.75,0]];outlineConnect=0;fontColor=#232F3E;fillColor=#ED7100;strokeColor=#ffffff;dashed=0;verticalLabelPosition=bottom;verticalAlign=top;align=center;html=1;fontSize=12;fontStyle=0;aspect=fixed;shape=mxgraph.aws4.resourceIcon;resIcon=mxgraph.aws4.ecs;" vertex="1" parent="1">
          <mxGeometry x="2300.6666717529297" y="1085.0333213806152" width="33" height="33" as="geometry" />
        </mxCell>
        <mxCell id="e_KA3uBAL_2bLxz84az9-92" value="" style="sketch=0;points=[[0,0,0],[0.25,0,0],[0.5,0,0],[0.75,0,0],[1,0,0],[0,1,0],[0.25,1,0],[0.5,1,0],[0.75,1,0],[1,1,0],[0,0.25,0],[0,0.5,0],[0,0.75,0],[1,0.25,0],[1,0.5,0],[1,0.75,0]];outlineConnect=0;fontColor=#232F3E;fillColor=#ED7100;strokeColor=#ffffff;dashed=0;verticalLabelPosition=bottom;verticalAlign=top;align=center;html=1;fontSize=12;fontStyle=0;aspect=fixed;shape=mxgraph.aws4.resourceIcon;resIcon=mxgraph.aws4.ecs;" vertex="1" parent="1">
          <mxGeometry x="2538.6666717529297" y="1085.0333213806152" width="33" height="33" as="geometry" />
        </mxCell>
        <mxCell id="e_KA3uBAL_2bLxz84az9-93" value="" style="outlineConnect=0;dashed=0;verticalLabelPosition=bottom;verticalAlign=top;align=center;html=1;shape=mxgraph.aws3.rds;fillColor=#2E73B8;gradientColor=none;" vertex="1" parent="1">
          <mxGeometry x="2354.6666717529297" y="1081.5333213806152" width="34" height="40" as="geometry" />
        </mxCell>
        <mxCell id="e_KA3uBAL_2bLxz84az9-94" value="" style="outlineConnect=0;dashed=0;verticalLabelPosition=bottom;verticalAlign=top;align=center;html=1;shape=mxgraph.aws3.rds;fillColor=#2E73B8;gradientColor=none;" vertex="1" parent="1">
          <mxGeometry x="2598.6666717529297" y="1078.0333213806152" width="34" height="40" as="geometry" />
        </mxCell>
        <mxCell id="e_KA3uBAL_2bLxz84az9-95" value="&lt;font style=&quot;font-size: 8px;&quot;&gt;RDS&lt;/font&gt;" style="text;html=1;strokeColor=none;fillColor=none;align=center;verticalAlign=middle;whiteSpace=wrap;rounded=0;" vertex="1" parent="1">
          <mxGeometry x="2608.6666717529297" y="1121.5333213806152" width="30" height="18" as="geometry" />
        </mxCell>
        <mxCell id="e_KA3uBAL_2bLxz84az9-96" value="&lt;font style=&quot;font-size: 8px;&quot;&gt;ECS&lt;/font&gt;" style="text;html=1;strokeColor=none;fillColor=none;align=center;verticalAlign=middle;whiteSpace=wrap;rounded=0;" vertex="1" parent="1">
          <mxGeometry x="2536.1666717529297" y="1121.5333213806152" width="30" height="18" as="geometry" />
        </mxCell>
        <mxCell id="e_KA3uBAL_2bLxz84az9-97" value="&lt;font style=&quot;font-size: 8px;&quot;&gt;ECS&lt;/font&gt;" style="text;html=1;strokeColor=none;fillColor=none;align=center;verticalAlign=middle;whiteSpace=wrap;rounded=0;" vertex="1" parent="1">
          <mxGeometry x="2303.6666717529297" y="1119.5333213806152" width="30" height="18" as="geometry" />
        </mxCell>
        <mxCell id="e_KA3uBAL_2bLxz84az9-98" style="edgeStyle=orthogonalEdgeStyle;rounded=0;orthogonalLoop=1;jettySize=auto;html=1;" edge="1" parent="1" source="e_KA3uBAL_2bLxz84az9-70" target="e_KA3uBAL_2bLxz84az9-77">
          <mxGeometry relative="1" as="geometry" />
        </mxCell>
        <mxCell id="e_KA3uBAL_2bLxz84az9-99" style="edgeStyle=orthogonalEdgeStyle;rounded=0;orthogonalLoop=1;jettySize=auto;html=1;entryX=0.25;entryY=0;entryDx=0;entryDy=0;entryPerimeter=0;" edge="1" parent="1" source="e_KA3uBAL_2bLxz84az9-86" target="e_KA3uBAL_2bLxz84az9-92">
          <mxGeometry relative="1" as="geometry" />
        </mxCell>
        <mxCell id="e_KA3uBAL_2bLxz84az9-100" value="" style="rounded=0;whiteSpace=wrap;html=1;strokeWidth=8;" vertex="1" parent="1">
          <mxGeometry x="2799.6666717529297" y="230.53332138061523" width="740" height="410" as="geometry" />
        </mxCell>
        <mxCell id="e_KA3uBAL_2bLxz84az9-101" value="" style="edgeStyle=orthogonalEdgeStyle;rounded=0;orthogonalLoop=1;jettySize=auto;html=1;" edge="1" parent="1" source="e_KA3uBAL_2bLxz84az9-61" target="e_KA3uBAL_2bLxz84az9-65">
          <mxGeometry relative="1" as="geometry">
            <mxPoint x="2439.6666717529292" y="651.533321380615" as="targetPoint" />
            <mxPoint x="2439.6666717529297" y="515.5333213806152" as="sourcePoint" />
            <Array as="points">
              <mxPoint x="2439.6666717529297" y="607.5333213806152" />
              <mxPoint x="2319.6666717529297" y="607.5333213806152" />
            </Array>
          </mxGeometry>
        </mxCell>
        <mxCell id="e_KA3uBAL_2bLxz84az9-102" value="Application Load Balancer" style="sketch=0;outlineConnect=0;fontColor=#232F3E;gradientColor=none;strokeColor=#ffffff;fillColor=#232F3E;dashed=0;verticalLabelPosition=middle;verticalAlign=bottom;align=center;html=1;whiteSpace=wrap;fontSize=10;fontStyle=1;spacing=3;shape=mxgraph.aws4.productIcon;prIcon=mxgraph.aws4.application_load_balancer;" vertex="1" parent="1">
          <mxGeometry x="2300.6666717529297" y="710.5333213806152" width="50" height="90" as="geometry" />
        </mxCell>
        <mxCell id="e_KA3uBAL_2bLxz84az9-103" value="" style="outlineConnect=0;dashed=0;verticalLabelPosition=bottom;verticalAlign=top;align=center;html=1;shape=mxgraph.aws3.auto_scaling;fillColor=#F58534;gradientColor=none;" vertex="1" parent="1">
          <mxGeometry x="2200.2866717529296" y="1090.5333213806152" width="42.25" height="39" as="geometry" />
        </mxCell>
        <mxCell id="e_KA3uBAL_2bLxz84az9-104" value="" style="outlineConnect=0;dashed=0;verticalLabelPosition=bottom;verticalAlign=top;align=center;html=1;shape=mxgraph.aws3.auto_scaling;fillColor=#F58534;gradientColor=none;" vertex="1" parent="1">
          <mxGeometry x="2444.4166717529297" y="1081.5333213806152" width="50" height="44.25" as="geometry" />
        </mxCell>
        <mxCell id="e_KA3uBAL_2bLxz84az9-105" value="&lt;font style=&quot;font-size: 12px;&quot;&gt;Auto Scaling group&amp;nbsp;&lt;/font&gt;" style="text;strokeColor=none;fillColor=none;html=1;fontSize=24;fontStyle=1;verticalAlign=middle;align=center;" vertex="1" parent="1">
          <mxGeometry x="2171.4166717529297" y="1139.5333213806152" width="100" height="40" as="geometry" />
        </mxCell>
        <mxCell id="e_KA3uBAL_2bLxz84az9-106" value="&lt;font style=&quot;font-size: 12px;&quot;&gt;Auto Scaling group&amp;nbsp;&lt;/font&gt;" style="text;strokeColor=none;fillColor=none;html=1;fontSize=24;fontStyle=1;verticalAlign=middle;align=center;" vertex="1" parent="1">
          <mxGeometry x="2419.4166717529297" y="1148.5333213806152" width="100" height="40" as="geometry" />
        </mxCell>
        <mxCell id="e_KA3uBAL_2bLxz84az9-107" value="&lt;b&gt;Security group&lt;/b&gt;" style="fillColor=none;strokeColor=#DD3522;verticalAlign=top;fontStyle=0;fontColor=#DD3522;whiteSpace=wrap;html=1;" vertex="1" parent="1">
          <mxGeometry x="2009.6666717529297" y="1008.5333213806152" width="670" height="140" as="geometry" />
        </mxCell>
        <mxCell id="e_KA3uBAL_2bLxz84az9-108" value="" style="sketch=0;points=[[0,0,0],[0.25,0,0],[0.5,0,0],[0.75,0,0],[1,0,0],[0,1,0],[0.25,1,0],[0.5,1,0],[0.75,1,0],[1,1,0],[0,0.25,0],[0,0.5,0],[0,0.75,0],[1,0.25,0],[1,0.5,0],[1,0.75,0]];outlineConnect=0;fontColor=#232F3E;fillColor=#ED7100;strokeColor=#ffffff;dashed=0;verticalLabelPosition=bottom;verticalAlign=top;align=center;html=1;fontSize=12;fontStyle=0;aspect=fixed;shape=mxgraph.aws4.resourceIcon;resIcon=mxgraph.aws4.ecs;" vertex="1" parent="1">
          <mxGeometry x="2809.6666717529297" y="240.53332138061523" width="58" height="58" as="geometry" />
        </mxCell>
        <mxCell id="e_KA3uBAL_2bLxz84az9-109" value="" style="sketch=0;points=[[0,0,0],[0.25,0,0],[0.5,0,0],[0.75,0,0],[1,0,0],[0,1,0],[0.25,1,0],[0.5,1,0],[0.75,1,0],[1,1,0],[0,0.25,0],[0,0.5,0],[0,0.75,0],[1,0.25,0],[1,0.5,0],[1,0.75,0]];outlineConnect=0;fontColor=#232F3E;fillColor=#ED7100;strokeColor=#ffffff;dashed=0;verticalLabelPosition=bottom;verticalAlign=top;align=center;html=1;fontSize=12;fontStyle=0;aspect=fixed;shape=mxgraph.aws4.resourceIcon;resIcon=mxgraph.aws4.fargate;" vertex="1" parent="1">
          <mxGeometry x="2940.6666717529297" y="358.53332138061523" width="48.5" height="48.5" as="geometry" />
        </mxCell>
        <mxCell id="e_KA3uBAL_2bLxz84az9-110" value="" style="sketch=0;outlineConnect=0;fontColor=#232F3E;gradientColor=none;fillColor=#ED7100;strokeColor=none;dashed=0;verticalLabelPosition=bottom;verticalAlign=top;align=center;html=1;fontSize=12;fontStyle=0;aspect=fixed;pointerEvents=1;shape=mxgraph.aws4.ecs_service;" vertex="1" parent="1">
          <mxGeometry x="2879.6666717529297" y="310.53332138061523" width="39" height="48" as="geometry" />
        </mxCell>
        <mxCell id="e_KA3uBAL_2bLxz84az9-111" value="" style="sketch=0;outlineConnect=0;fontColor=#232F3E;gradientColor=none;fillColor=#ED7100;strokeColor=none;dashed=0;verticalLabelPosition=bottom;verticalAlign=top;align=center;html=1;fontSize=12;fontStyle=0;aspect=fixed;pointerEvents=1;shape=mxgraph.aws4.ecs_task;" vertex="1" parent="1">
          <mxGeometry x="3079.6666717529297" y="400.53332138061523" width="37" height="48" as="geometry" />
        </mxCell>
        <mxCell id="e_KA3uBAL_2bLxz84az9-112" value="" style="rounded=1;fillColor=none;gradientColor=none;arcSize=10;dashed=1;" vertex="1" parent="1">
          <mxGeometry x="2839.6666717529297" y="260.53332138061523" width="660" height="360" as="geometry" />
        </mxCell>
        <mxCell id="e_KA3uBAL_2bLxz84az9-113" value="" style="rounded=1;fillColor=none;gradientColor=none;arcSize=10;dashed=1;" vertex="1" parent="1">
          <mxGeometry x="2859.6666717529297" y="290.53332138061523" width="620" height="310" as="geometry" />
        </mxCell>
        <mxCell id="e_KA3uBAL_2bLxz84az9-114" value="" style="rounded=1;fillColor=none;gradientColor=none;arcSize=10;dashed=1;" vertex="1" parent="1">
          <mxGeometry x="2929.6666717529297" y="350.53332138061523" width="480" height="230" as="geometry" />
        </mxCell>
        <mxCell id="e_KA3uBAL_2bLxz84az9-115" value="" style="rounded=1;fillColor=none;gradientColor=none;arcSize=10;dashed=1;" vertex="1" parent="1">
          <mxGeometry x="2999.6666717529297" y="390.53332138061523" width="380" height="160" as="geometry" />
        </mxCell>
        <mxCell id="e_KA3uBAL_2bLxz84az9-116" value="&lt;span style=&quot;font-size: 15px;&quot;&gt;ECS Container&lt;/span&gt;" style="text;strokeColor=none;fillColor=none;html=1;fontSize=24;fontStyle=1;verticalAlign=middle;align=center;" vertex="1" parent="1">
          <mxGeometry x="2899.6666717529297" y="259.53332138061523" width="50" height="20" as="geometry" />
        </mxCell>
        <mxCell id="e_KA3uBAL_2bLxz84az9-117" value="&lt;span style=&quot;font-size: 15px;&quot;&gt;ECS Services&lt;/span&gt;" style="text;strokeColor=none;fillColor=none;html=1;fontSize=24;fontStyle=1;verticalAlign=middle;align=center;" vertex="1" parent="1">
          <mxGeometry x="2949.6666717529297" y="320.53332138061523" width="50" height="20" as="geometry" />
        </mxCell>
        <mxCell id="e_KA3uBAL_2bLxz84az9-118" value="&lt;span style=&quot;font-size: 15px;&quot;&gt;ECS Fargate&lt;/span&gt;" style="text;strokeColor=none;fillColor=none;html=1;fontSize=24;fontStyle=1;verticalAlign=middle;align=center;" vertex="1" parent="1">
          <mxGeometry x="3009.6666717529297" y="364.03332138061523" width="60" height="20" as="geometry" />
        </mxCell>
        <mxCell id="e_KA3uBAL_2bLxz84az9-119" value="&lt;span style=&quot;font-size: 15px;&quot;&gt;ECS Task&lt;/span&gt;" style="text;strokeColor=none;fillColor=none;html=1;fontSize=24;fontStyle=1;verticalAlign=middle;align=center;" vertex="1" parent="1">
          <mxGeometry x="3134.6666717529297" y="399.53332138061523" width="60" height="20" as="geometry" />
        </mxCell>
        <mxCell id="e_KA3uBAL_2bLxz84az9-120" value="Amazon ECR" style="sketch=0;outlineConnect=0;fontColor=#232F3E;gradientColor=none;strokeColor=#ffffff;fillColor=#232F3E;dashed=0;verticalLabelPosition=middle;verticalAlign=bottom;align=center;html=1;whiteSpace=wrap;fontSize=10;fontStyle=1;spacing=3;shape=mxgraph.aws4.productIcon;prIcon=mxgraph.aws4.ecr;" vertex="1" parent="1">
          <mxGeometry x="3219.6666717529297" y="443.03332138061523" width="60" height="88" as="geometry" />
        </mxCell>
        <mxCell id="e_KA3uBAL_2bLxz84az9-121" value="" style="rounded=1;fillColor=none;gradientColor=none;arcSize=10;dashed=1;" vertex="1" parent="1">
          <mxGeometry x="3139.6666717529297" y="440.53332138061523" width="200" height="90" as="geometry" />
        </mxCell>
        <mxCell id="e_KA3uBAL_2bLxz84az9-122" value="&lt;h1&gt;Security&lt;/h1&gt;&lt;p&gt;In terms of security we are using application in&amp;nbsp;&lt;/p&gt;&lt;p&gt;private subnet,&amp;nbsp;&lt;span style=&quot;background-color: initial;&quot;&gt;WAF , Code Guru , Guard duty, Inspector,&lt;/span&gt;&lt;/p&gt;&lt;p&gt;&lt;span style=&quot;background-color: initial;&quot;&gt;Cloud watch logs alerts,&amp;nbsp; exposed on Nat Gateway&lt;/span&gt;&lt;/p&gt;&lt;p&gt;&lt;span style=&quot;background-color: initial;&quot;&gt;&amp;nbsp;&lt;/span&gt;&lt;/p&gt;" style="text;html=1;strokeColor=none;fillColor=none;spacing=5;spacingTop=-20;whiteSpace=wrap;overflow=hidden;rounded=0;" vertex="1" parent="1">
          <mxGeometry x="3069.6666717529297" y="769.5333213806152" width="330" height="151" as="geometry" />
        </mxCell>
      </root>
    </mxGraphModel>
  </diagram>
</mxfile>
